<?xml version="1.0" encoding="utf-8"?>
<!-- Generator: Adobe Illustrator 26.0.3, SVG Export Plug-In . SVG Version: 6.00 Build 0)  -->
<svg version="1.1" id="Layer_1" xmlns="http://www.w3.org/2000/svg" xmlns:xlink="http://www.w3.org/1999/xlink" x="0px" y="0px"
	 viewBox="0 0 141.1 129.2" style="enable-background:new 0 0 141.1 129.2;" xml:space="preserve">
<style type="text/css">
	.st0{fill:#E50914;}
	.st1{fill:#FFFFFF;}
</style>
<path class="st0" d="M70.6,40.6v9.5c10.9-0.3,20,8.2,20.4,19.2c0,0.4,0,0.9,0,1.3h9.5c0.4-16.1-12.4-29.5-28.5-29.9
	C71.5,40.6,71.1,40.6,70.6,40.6z M106.5,34.7C97.2,25.3,84.5,20,71.2,20h-0.6v10.2c21.9-0.3,39.9,17.2,40.2,39.1c0,0.4,0,0.8,0,1.2
	H121c0-0.2,0-0.4,0-0.6C121.1,56.7,115.8,44,106.5,34.7z"/>
<path class="st0" d="M0,70.5c0-39,31.6-70.6,70.6-70.6s70.6,31.6,70.6,70.6v7.4h-19v-7.3h9.4v-0.1c-1.3-33.7-29.6-59.9-63.3-58.6
	C36.4,13.1,10.9,38.6,9.6,70.5v0.1H19v7.3H0L0,70.5L0,70.5z"/>
<g>
	<path class="st1" d="M75.7,64.4l-5-54.7l-5,54.7c-3.4,2.8-4,7.8-1.2,11.2c2.8,3.4,7.8,4,11.2,1.2c3.4-2.8,4-7.8,1.2-11.2
		C76.6,65.1,76.1,64.7,75.7,64.4z"/>
	<path class="st1" d="M9,95.9v8.7h19.5v8.2H9v15.8H0V87.8h31.1v8.2H9z"/>
	<path class="st1" d="M61.6,128.6l-3.7-9.2H40.5l-3.7,9.2h-9.2l17.5-41.1h8.3L71,128.6H61.6L61.6,128.6z M49.2,98.3l-5.4,13.2h10.9
		L49.2,98.3z"/>
	<path class="st1" d="M89.7,129.2c-6.4,0-12.6-2.3-17.3-6.5l5.3-6.4c3.7,3,7.5,5,12.2,5c3.7,0,5.9-1.5,5.9-3.9v-0.1
		c0-2.3-1.4-3.4-8.2-5.2C79.3,110,74,107.8,74,99.7v-0.1c0-7.4,6-12.3,14.3-12.3c5.5-0.1,10.8,1.7,15.1,5.1l-4.7,6.8
		c-3.6-2.5-7.2-4-10.6-4S83,96.7,83,98.7v0.1c0,2.7,1.8,3.6,8.8,5.4c8.3,2.2,13,5.1,13,12.3v0.1C104.7,124.7,98.5,129.2,89.7,129.2z
		"/>
	<path class="st1" d="M128.7,96v32.6h-9V96h-12.4v-8.3h33.9V96H128.7z"/>
</g>
</svg>
