<?xml version="1.0" encoding="utf-8"?>
<!-- Generator: Adobe Illustrator 26.0.3, SVG Export Plug-In . SVG Version: 6.00 Build 0)  -->
<svg version="1.1" id="Camada_1" xmlns="http://www.w3.org/2000/svg" xmlns:xlink="http://www.w3.org/1999/xlink" x="0px" y="0px"
	 viewBox="0 0 1920 1200" style="enable-background:new 0 0 1920 1200;" xml:space="preserve">
<style type="text/css">
	.st0{fill:#071B58;}
</style>
<path class="st0" d="M1081.8,182.4c0.5,0,1.5,0,1.9,0c0,77.8,0,155.5,0,233.2c-0.2,1.4,0.3,3.2,1.6,3.1c5.6,0.1,11.1,0,16.7-0.1
	c0,10.1-0.1,20.3,0,30.4c-0.1,4.2,2.4,7.1,4.5,9.7c0,14.8,0,29.6,0,44.4c0,3.5-0.4,7.2,1,10.4c7.5-0.1,15.1,0,22.6,0
	c0.1-22.7-0.1-45.5,0.1-68.2c0.2-0.4,0.7-1,1-1.4c2.7-0.4,5.4,0,8-0.1c0.1-3.7-0.2-7.4,0.1-11c0.3-0.3,0.8-1,1-1.4
	c4.7,0.1,9.7-1.1,14.2,0.8c0.4-0.3,1.1-0.9,1.4-1.1c-0.1-5.1,0-10.3-0.1-15.4c3.7-0.1,7.4,0.2,11.1-0.1c2.2-2.4,0.7-7,1.1-10.3
	c5.2,0.3,10.5-0.6,15.7,0.4c5.5,6.8,10.5,14.4,15.9,21.4c2.4,0.1,4.8,0,7.3-0.3c0,28.9,0,57.8,0,86.7h18.7c0.3-0.7,0.8-2.1,1-2.7
	c0.1-22.7,0-45.4,0.1-68c3,0,6.1,0,9.1,0c0.3-3-1-7.2,1.1-9.3c5-0.4,9.9,0,14.9-0.1c0.3,3.5-0.8,7.6,0.5,10.8
	c2.3,1.6,5.3,0.3,7.9,0.7c0,12.6-0.1,25.2,0,37.9c1.2-0.7,2.4-1.7,3.2-3.2c1.9-3.5,4.6-5.9,6.7-9.1c0-12.7,0-25.4,0-38
	c-0.2-11.1,0.4-22.3-0.3-33.4c5.3,0.2,10.5-0.3,15.8,0.2c2.6,1.3,3.7,5.2,5.8,7.4c0.1,12.7,0,25.5,0,38.2c2.8,3.1,5.1,6.8,7.7,10.2
	c1.1,1.3,1.4,3.4,1.4,5.4c0,17.7,0,35.4,0,53.1h19c0-43.7,0-87.5,0-131.2c7.9,0,15.7,0,23.6,0c0.1,18.9-0.1,37.9,0.1,56.9
	c0.2,0.3,0.7,1,0.9,1.3c3.4,0.4,6.9,0,10.4,0.1c0,8.8,0,17.6,0,26.4c0.3,0.6,0.8,1.9,1,2.6c2.6,1.8,3.7,5.7,6.2,7.8
	c0.9,1.7,1.9,3.3,3,4.9c2.8,0,5.6,0,8.4,0c2.1-3,4.2-5.9,6.5-8.8c0-10.3,0-20.5,0-30.8c6.8,0,13.6,0,20.4,0c0,6.8-0.1,13.6,0.1,20.4
	c2.6,3.2,5,6.7,7.5,10.1c1.5,2.2,3.4,4.1,4.3,6.9c0.5,0.1,1.4,0.2,1.9,0.3c0.1,4.7-0.2,9.3,0.1,14c0.2,0.3,0.7,1,1,1.3
	c8.8,0.3,17.6,0,26.4,0.1c0.1-15.8-0.1-31.6,0-47.4c0.2-0.3,0.7-1,1-1.4c7-0.3,14,0,21-0.1c0-11.5,0-22.9,0-34.4h29.6
	c0,18.4,0,36.8,0,55.2c5.6,0,11.1,0,16.7,0c0-5.4,0-10.8,0-16.2c1.6-2,3.6-3.7,4.9-6.3c0.5-0.9,0.9-2.4,1.9-2.3
	c5.5-0.4,11,0,16.4-0.1c2.2-3.1,4.6-6.2,6.8-9.4c5.7,0,11.4,0,17.1,0c0,18.4,0,36.8,0,55.2h16.7c0.1-16.3-0.1-32.5,0.1-48.8
	c0.2-0.2,0.7-0.6,0.9-0.8c4.5-0.5,9,0.6,13.5-0.3c0-4.2-0.4-8.6,0.6-12.6c5.6,0.2,11.2-0.1,16.8,0.1c1.1-0.1,1.7,1.6,1.6,3
	c0,19.8,0,39.6,0,59.4c5.1,0,10.1,0,15.2,0c1,0.2,2.4-0.4,2.3-2.1c0.2-8.7-0.1-17.3,0.1-25.9c0.8-4.1,3.5-6.6,5.2-10
	c0.1-20.6,0-41.3,0-61.9c6.6,0,13.2,0,19.8,0c0,18.8,0,37.5,0,56.3c5.4,1.2,11-0.4,16.4,0.5c3.3,1.8,5.3,6.1,8,9.2
	c0,16.2,0,32.3,0,48.5c3.5,0,7.1,0,10.6,0c0-31.2,0-62.5,0-93.7c8.1,0,16.2-0.1,24.3,0c1.2-0.2,1.5,1.8,1.4,3.1
	c0,15.6-0.1,31.2,0,46.9c4.6,0,9.1,0,13.7,0c0,18,0,36.1,0,54.1c12.2,0,24.3-0.1,36.5,0.1c0.9-4.1,0.4-8.4,0.6-12.5
	c0.3-20.5,0.2-41-0.3-61.4c-0.2-26-0.3-51.9-0.1-77.9c3.5-0.2,7-0.2,10.5-0.2c0-3.5,0-6.9,0-10.4c3.5,0,7.1,0.1,10.6,0
	c0,2.8,0,5.5,0,8.3h6.8c0,26,0,52.1,0,78.1h18.2c0-7.1,0-14.3,0-21.4c2.2-2.9,4.3-5.8,6.4-8.8c4.7,0,9.4,0,14.1,0
	c0,28.2-0.1,56.5,0,84.7c0.3,0.7,0.8,2.1,1,2.7c1.9-0.4,4.5,1.2,5.7-1.5c0.3-4.7-0.2-9.5,0.2-14.2c2.2-4.3,5.3-7.5,7.8-11.4
	c2.7-0.1,5.4-0.1,8,0c0-24,0-47.9,0-71.9c-0.2-2.5,0.8-4.8,2.2-6.4c2.5-3.1,4.6-6.9,7.4-9.6c0.9-1.5,1.5-4.1,3.3-3.7
	c4.8-0.1,9.7,0,14.5,0c0,44.9-0.1,89.8,0,134.7c0.3,0.7,0.8,2,1,2.7h22.5c0-23.6,0-47.2,0-70.8c7.1,0,14.2,0,21.3,0v758.9H2.1V513.5
	H9c0-27.1-0.1-54.1,0-81.1c2.3-0.1,4.5-0.1,6.8-0.1c0-1.9,0-3.7,0.1-5.6c0.3-0.7,0.8-2.1,1-2.7c4,0,7.9,0,11.9,0c0,26,0,52,0,78.1
	c0,3.8-0.3,7.8,0.6,11.5c3.2-0.2,6.5,0.2,9.7-0.2c0.3-0.3,0.7-1,1-1.4c0.2-23.1,0-46.2,0.1-69.3c5.3,0,10.6,0,16,0
	c0-23.6,0-47.2,0-70.8c2.4,0,4.8,0.2,7.3-0.1c2.2-2.4,0.7-7,1.1-10.3c5.8,0,11.6-0.1,17.4,0.1c0.1,3.1,0.1,6.2,0,9.3
	c1.8,0,3.6,0,5.4,0c0,35.4,0,70.8,0,106.2c0,1.9,0.2,3.8,0.4,5.7c9-0.3,18,0.2,26.9-0.2c0.1,9.8-0.1,19.7,0.1,29.5
	c0.2,0.4,0.7,1,1,1.4c6.5,0.3,13,0,19.4,0.1c0.1-25.5-0.2-51,0.2-76.5c1.2-0.1,2.4-0.2,3.6-0.2c0-3.4-0.2-6.9,0.1-10.3
	c1.6-2.9,4.9-1,7.2-1.5c0.3-3.8,0.3-7.6,0.2-11.5c5.3,0,10.5,0,15.8,0c1.6,3.8,0.8,8.3,1,12.5c1.5,0,3,0,4.6,0c0,29.1,0,58.3,0,87.4
	H202V501c2.7-0.6,6.3,1.6,8.3-1.5c0.2-24.5,0.2-49,0-73.5h17.1c3.4-2.4,5.7-6.7,8.3-10.3c5.7-0.2,11.5-0.1,17.2-0.1
	c0,14.9-0.1,29.8,0.1,44.7c4.5,0.1,9.1,0.1,13.6,0.1c0-13.2,0-26.4,0-39.6c4.1,0,8.1,0,12.2,0v-8.4c6.6-1,13.2-0.7,19.8-0.1
	c0.1,4.1-0.2,8.2,0.1,12.2c1.9,3.1,5.5,0.8,8.2,1.6c0.1,5.5,0.1,11,0.1,16.6c2.8,0,5.6,0,8.4,0c0,13.5,0,27.1,0,40.6
	c2.2,0,4.3-0.2,6.5,0.1c1.5,0.9,1.1,3.3,1.1,5.1c-0.7,8.3,0.3,16.6,0,25c5.7-0.1,11.4,0.2,17.2-0.1c1.5-0.9,1-3.3,1.1-5
	c-0.2-4.6,0.4-9.2-0.5-13.6c2.9,0.1,5.9,0,8.8,0c0-55.2,0-110.4,0-165.6c2.5-0.6,5.1-0.5,7.6-0.9c0-4-0.2-8.1,0.1-12.1
	c0.5-1.7,1.8-1.5,2.9-1.5c10.4,0.1,20.8,0,31.2,0.1c0,55.5,0,111.1,0,166.6h25.8c0-11.1,0-22.2,0-33.3c-0.1-1.8,0.3-3.4,0.8-5
	c5.8,0.3,11.7,0.3,17.5,0c0-23.3,0-46.6,0-69.9c0.1-2.6-0.4-5.5,0.6-7.9c0.1-0.5,0.2-1.4,0.2-1.9c1.7-3.5,4.4-5.7,6.3-8.9
	c7.6,0,15.2-0.1,22.8,0.1c0.8,0.9,1.6,1.7,2.4,2.5c1.3,2.5,2.9,4.7,4.5,6.8c3.2,0,6.3,0,9.5,0c0,19.4,0,38.9,0,58.3
	c1.6,0,3.2,0,4.7,0c0.4,2,0.6,4.1,0.6,6.3c-0.1,10.8,0,21.5,0,32.3c4.6,0,9.2,0,13.7,0c1.3,0.1,2.6-0.6,3.8-1.2
	c-0.1-69,0-138.1,0-207.1c-0.3-3.2,1.9-4.9,3.3-7c8.9-12.1,17.7-24.3,26.6-36.4c0.8-1.3,2.1-1.3,3.2-1.5c0.1,7.7,0.7,15.5-0.2,23.2
	c0.2,0.5,0.5,1.4,0.7,1.9c7.8,0,15.6,0,23.4,0c0,45.5,0,91,0,136.5c-0.2,1.3,0.5,3.1,1.6,3c4,0.2,8.1,0,12.1,0c0-15.7-0.1-31.3,0-47
	c-0.1-3.1,2-4.8,3.4-6.6c1.8-2.6,3.6-5.1,5.2-7.8c9.3,0,18.5,0,27.8,0c0,51,0,102,0,153.1c5.6,0,11.2,0,16.8,0
	c0,16.1-0.2,32.3,0,48.5c0.2,0.4,0.7,1.1,1,1.4c8,0.3,16,0,24,0.1c0-8.3,0-16.7,0-25c2.9,0,5.9,0,8.8,0c0.7-2,2.2-3.1,2.9-5
	c0.2-0.1,0.7-0.2,0.9-0.3c0.5-1.3,1-2.9,2.3-2.8c3.9-0.4,7.8,0,11.7-0.2c0-23.2,0-46.5,0-69.7c0.1-2.7-0.4-5.6,0.7-8
	c0.1-1.4,0.1-2.7,0.2-4.1c1.1-0.6,1.8-1.9,2.7-2.9c0.9-1.5,1.9-2.9,3-4.2c1.1-2,2.6-3.4,3.7-5.4c0.8-1,1.6-2,2.4-3
	c0.8-1.3,1.8-2.5,2.8-3.6c9.2-0.1,18.4-0.2,27.7,0c0.3,0.3,0.8,1,1,1.4c0.3,4.2-0.2,8.4,0.2,12.6l1,1.4c6.7,0.3,13.5,0,20.2,0.1
	c0,38.6,0,77.3,0,115.9c1.1-0.2,2.3-0.1,2.5-2c1.2-1.1,2.2-2.6,3.1-4.1c2-2.1,3.7-4.7,5.4-7.2c0.9-1.5,1.9-2.9,3-4.1
	c0.8-1.6,2.6-2.6,2.5-4.8c0.2-8.3,0-16.6,0.1-24.9c2.8,0,5.6,0,8.4,0c0.2-1.4,0.3-2.8,0.3-4.2c-0.1-10,0.8-20.1,0.2-30.1
	c-0.5-7.3,0-14.6-0.4-21.8c0.2-0.6,0.5-1.7,0.6-2.3c2.2,0.1,4.5,0.1,6.7,0.1c0-3.4,0-6.8,0-10.3c5.6-0.2,11.1-0.1,16.7-0.1
	c0,3.4,0,6.9,0,10.3c3.4,0.1,6.9,0.1,10.3,0c0.3,0.7,0.8,2.1,1,2.7c0,3.4,0,6.9,0,10.3c0.9,1.3,1.8,2.8,2.6,4.2
	c2.8,2.5,4.2,7.1,7.3,9.1c2.1,5.9-0.6,13.1,1.7,18.9c4.4,6.7,9.4,12.7,13.9,19.3c4.4,0.9,8.9,0.2,13.3,0.3c3.8-0.1,7.6,0.3,11.4-0.2
	c0-6.7,0-13.3,0-19.9c2.5,0,5.1,0,7.6,0c0-2.7-0.3-5.3-0.4-7.9c0.9-1.9,2.9-0.8,4.2-1.1c3,0.5,6.3-1,9.1,0.8c-0.1,9.3,0,18.7-0.1,28
	h16.7c0-20.1,0-40.3,0-60.4c2.5,0,5.1,0,7.6,0c0-3.8,0-7.6,0-11.4c5.6,0,11.1,0,16.7,0c0,3.8,0,7.6,0,11.5c2.3,0,4.5,0,6.8,0
	c0,34.1,0,68.3,0,102.4c3.6-4.9,7.3-9.7,10.8-14.8c1.8-3,3.8-5.7,6.4-7.5c2.5-0.6,6,1.6,7.8-1.5c0.3-6.1,0-12.2,0.1-18.2
	c3-0.1,6-0.1,9.1-0.1c0-30.2,0-60.4,0-90.6c1.9-0.4,4.6,1.1,6-1.1c0.3-5.5,0-11.1,0.1-16.7c0-1.4-0.2-3.3,1.1-3.9
	c1.2-0.3,2.3-0.2,3.5-0.2c0.2-7.5,0.1-15,0.1-22.5c0.5-0.4,1.4-1.1,1.9-1.4c3.9-0.1,7.8-0.1,11.7-0.1c1-0.2,2.2,0.6,2.2,2.1
	c0.1,6.9,0,13.9,0,20.8c1.5,0,3,0,4.6,0c0,8,0,16,0,24c2.2,0,4.5,0,6.8,0.1c0.1,6.2,0,12.4,0.1,18.6c2,0,3.9,0,5.9,0
	c1.3,5,0.9,10.4,0.9,15.6c0,20.3,0,40.6,0,60.9c8.9,12.4,18,24.6,26.9,36.9h9.6c0-17.3,0-34.7,0-52c0-4.7-0.4-9.6,0.9-14.1
	c1-1.9,2.3-3.6,3.7-5.1c0-69.5,0-138.9,0-208.4C1057.3,216.1,1069.5,199.2,1081.8,182.4L1081.8,182.4z"/>
</svg>
