<svg xmlns="http://www.w3.org/2000/svg" viewBox="0 0 504.31 538.83"><defs><style>.cls-1{fill:#0ae6ff;}</style></defs><g id="Camada_2" data-name="Camada 2"><g id="Camada_3" data-name="Camada 3"><g id="HATCH"><path class="cls-1" d="M199.27,234.21h139.3l25-145H250.19c-17.25,0-27.78-9.68-27.78-41.32L224.77,0H146.31L132.22,84.05h37.65c25.17,0,51.36,16.29,45.81,45.81C199.27,234.21,206.89,190.06,199.27,234.21Z"/></g><g id="HATCH-2" data-name="HATCH"><path class="cls-1" d="M354.15,278.6H235.92l-27,153H357.86L337,538.83l110.82-.15,21.74-111.56-109.68.15,19.34-106.64c1.89-19.84,21.52-51.29,108.88-51.29l16.25-92H413.85C410.11,281.61,354.15,278.6,354.15,278.6Z"/></g><g id="HATCH-3" data-name="HATCH"><path class="cls-1" d="M72.78,328.54c0-10.48.88-41.91.88-41.91H11.22L0,349.9s27.62,0,36.83,0C53.12,350,71.14,364.15,68,385.2c-5,33.58-7.11,47.85-12.75,81.34H159.8L178.58,355.1H94.91C72.25,355.1,72.77,337.18,72.78,328.54Z"/></g></g></g></svg>