<?xml version="1.0" encoding="utf-8"?>
<!-- Generator: Adobe Illustrator 26.0.3, SVG Export Plug-In . SVG Version: 6.00 Build 0)  -->
<svg version="1.1" id="Camada_1" xmlns="http://www.w3.org/2000/svg" xmlns:xlink="http://www.w3.org/1999/xlink" x="0px" y="0px"
	 viewBox="0 0 398.9 150" style="enable-background:new 0 0 398.9 150;" xml:space="preserve">
<style type="text/css">
	.st0{fill:#0AE6FF;}
	.st1{fill:none;}
</style>
<image style="display:none;overflow:visible;" width="400" height="150" xlink:href="../../site/logo.png" >
</image>
<g id="Camada_2_00000153691855261819157670000000152216311111237524_">
	<g id="Camada_3_00000054252757307558125150000018150204833347170455_">
		<g id="HATCH_00000163062672936757294650000000961305392566625176_">
			<path class="st0" d="M42.6,64.2h29.8l5.3-31H53.5c-3.7,0-5.9-2.1-5.9-8.8l0.5-10.2H31.3l-3,18h8.1c5.4,0,11,3.5,9.8,9.8
				C42.6,64.2,44.3,54.8,42.6,64.2z"/>
		</g>
		<g id="HATCH-2_00000132799955179611834080000013492935316019630468_">
			<path class="st0" d="M75.8,73.7H50.5l-5.8,32.7h31.9l-4.5,22.9l23.7,0l4.7-23.9l-23.5,0l4.1-22.8c0.4-4.2,4.6-11,23.3-11
				l3.5-19.7H88.5C87.7,74.4,75.8,73.7,75.8,73.7z"/>
		</g>
		<g id="HATCH-3_00000062870937599955683880000005203612009043222431_">
			<path class="st0" d="M15.6,84.4c0-2.2,0.2-9,0.2-9H2.4L0,89c0,0,5.9,0,7.9,0c3.5,0,7.3,3,6.7,7.6c-1.1,7.2-1.5,10.2-2.7,17.4
				h22.4l4-23.8H20.3C15.5,90.1,15.6,86.2,15.6,84.4z"/>
		</g>
		<g id="SPLINE_00000068667551190604769950000004518526942458921892_">
			<path class="st1" d="M178.9,90.7l2.9-10.9h-20.1c-12.9,0-19.3-6.1-19.3-18.3c0-18.1,8.6-27.1,25.7-27.1h20.3v-11h-18.8
				c-27.4,0-40.3,13.5-40.3,40c0,18.4,10.2,27.3,31,27.3H178.9z"/>
		</g>
		<g id="HATCH-4_00000026144543294128735010000011247150276413715364_">
			<path d="M178.9,90.7l2.9-10.9h-20.1c-12.9,0-19.3-6.1-19.3-18.3c0-18.1,8.6-27.1,25.7-27.1h20.3v-11h-18.8
				c-27.4,0-40.3,13.5-40.3,40c0,18.4,10.2,27.3,31,27.3H178.9z"/>
		</g>
		<g id="SPLINE-2_00000081621133278930058450000008060039643958215577_">
			<path class="st1" d="M228.5,33.8c13.1,0,19.4,5.9,19.4,18.3c0,9.4-1.9,16.5-5.8,21.1c-3.9,4.7-10.2,7-19,7
				c-13.1,0-19.4-6-19.4-18.4C203.8,43.2,211.2,33.8,228.5,33.8z"/>
		</g>
		<g id="SPLINE-3_00000073711090398568956040000004319977769768283812_">
			<path class="st1" d="M222,91.7c26.3,0,38.8-13.6,38.8-41c0-18.8-10.3-28.2-31-28.2c-26.3,0-39,13.7-39,40.9
				C190.8,82,201.2,91.7,222,91.7z"/>
		</g>
		<g id="HATCH-5_00000104697477556189087720000005781433346109155263_">
			<path d="M228.5,33.8c13.1,0,19.4,5.9,19.4,18.3c0,9.4-1.9,16.5-5.8,21.1c-3.9,4.7-10.2,7-19,7c-13.1,0-19.4-6-19.4-18.4
				C203.8,43.2,211.2,33.8,228.5,33.8 M222,91.7c26.3,0,38.8-13.6,38.8-41c0-18.8-10.3-28.2-31-28.2c-26.3,0-39,13.7-39,40.9
				C190.8,82,201.2,91.7,222,91.7L222,91.7z"/>
		</g>
		<g id="SPLINE-4_00000024693841564748923780000009134066586331817147_">
			<path class="st1" d="M304.2,59.2h-18.1l3.6-24.8h16c9.6,0,14.4,3.6,14.4,10.7C320,54.5,315.2,59.2,304.2,59.2z"/>
		</g>
		<g id="SPLINE-5_00000136370743385821598150000002934497188982007434_">
			<path class="st1" d="M326.7,28.9c-4.3-3.7-10.5-5.5-18.8-5.5h-29.4L269,90.7h12.7l2.9-20.6h15l13.3,20.6h14.9L313,68.9
				c13.5-3,20-11.9,20-24.9C333,37.6,330.9,32.6,326.7,28.9z"/>
		</g>
		<g id="HATCH-6_00000142867511598982332480000007957116262263763098_">
			<path d="M304.2,59.2h-18.1l3.6-24.8h16c9.6,0,14.4,3.6,14.4,10.7C320,54.5,315.2,59.2,304.2,59.2 M326.7,28.9
				c-4.3-3.7-10.5-5.5-18.8-5.5h-29.4L269,90.7h12.7l2.9-20.6h15l13.3,20.6h14.9L313,68.9c13.5-3,20-11.9,20-24.9
				C333,37.6,330.9,32.6,326.7,28.9z"/>
		</g>
		<g id="LWPOLYLINE_00000157987073139059514250000005856429924202145705_">
			<polygon class="st1" points="347.9,23.4 338.4,90.7 390.3,90.7 393.1,79.8 352.6,79.8 355.1,61.7 387.7,61.7 389.1,51.1 
				356.6,51.1 358.9,34.4 398.8,34.4 398.9,23.4 			"/>
		</g>
		<g id="HATCH-7_00000090263459707039532700000016425871351747110585_">
			<polygon points="347.9,23.4 338.4,90.7 390.3,90.7 393.1,79.8 352.6,79.8 355.1,61.7 387.7,61.7 389.1,51.1 356.6,51.1 
				358.9,34.4 398.8,34.4 398.9,23.4 			"/>
		</g>
		<g id="LWPOLYLINE-2_00000021836863987999467830000018323638196988101518_">
			<polygon class="st1" points="130.7,119.5 133,119.5 134.8,103.6 132.4,103.6 			"/>
		</g>
		<g id="HATCH-8_00000005956452105562575590000004274504974071318963_">
			<polygon points="130.7,119.5 133,119.5 134.8,103.6 132.4,103.6 			"/>
		</g>
		<g id="LWPOLYLINE-3_00000012472582082214769970000004062079852347230875_">
			<polygon class="st1" points="145.7,114.8 139.5,103.6 137.7,103.6 136,119.5 138.2,119.5 139.4,108.3 145.6,119.5 147.4,119.5 
				149.1,103.6 146.9,103.6 			"/>
		</g>
		<g id="HATCH-9_00000137851626254921436130000011175158505871632262_">
			<polygon points="145.7,114.8 139.5,103.6 137.7,103.6 136,119.5 138.2,119.5 139.4,108.3 145.6,119.5 147.4,119.5 149.1,103.6 
				146.9,103.6 			"/>
		</g>
		<g id="LWPOLYLINE-4_00000037689755959907701020000002234055991970383272_">
			<polygon class="st1" points="161.3,106.2 161.3,103.6 152.1,103.6 150.3,119.5 152.7,119.5 153.4,113.1 159.2,113.1 159.4,110.6 
				153.7,110.6 154.1,106.2 			"/>
		</g>
		<g id="HATCH-10_00000012452675265951079110000006610313072682267540_">
			<polygon points="161.3,106.2 161.3,103.6 152.1,103.6 150.3,119.5 152.7,119.5 153.4,113.1 159.2,113.1 159.4,110.6 153.7,110.6 
				154.1,106.2 			"/>
		</g>
		<g id="SPLINE-6_00000065037642061859151350000008167131180301036452_">
			<path class="st1" d="M168.1,112.1h-3.4l0.7-5.9h3c1.8,0,2.7,0.9,2.7,2.5C171.1,111,170.2,112.1,168.1,112.1z"/>
		</g>
		<g id="SPLINE-7_00000155863072199288586870000010388086179323262877_">
			<path class="st1" d="M173.5,108.5c0-1.5-0.4-2.7-1.2-3.6s-2-1.3-3.5-1.3h-5.5l-1.8,16h2.4l0.6-4.9h2.8l2.5,4.9h2.8l-2.7-5.2
				C172.3,113.7,173.5,111.6,173.5,108.5z"/>
		</g>
		<g id="HATCH-11_00000103259927932918939850000002986079767986281857_">
			<path d="M168.1,112.1h-3.4l0.7-5.9h3c1.8,0,2.7,0.9,2.7,2.5C171.1,111,170.2,112.1,168.1,112.1 M173.5,108.5
				c0-1.5-0.4-2.7-1.2-3.6c-0.8-0.9-2-1.3-3.5-1.3h-5.5l-1.8,16h2.4l0.6-4.9h2.8l2.5,4.9h2.8l-2.7-5.2
				C172.3,113.7,173.5,111.6,173.5,108.5L173.5,108.5z"/>
		</g>
		<g id="SPLINE-8_00000174598634624539848510000009539552455845309586_">
			<polygon class="st1" points="178.6,112.8 181.4,106.2 181.7,106.2 183.1,112.8 			"/>
		</g>
		<g id="SPLINE-9_00000129206814066790964890000014130416836650777779_">
			<polygon class="st1" points="180.1,103.6 173.2,119.5 175.8,119.5 177.5,115.5 183.6,115.5 184.4,119.5 186.9,119.5 183.6,103.6 
							"/>
		</g>
		<g id="HATCH-12_00000126286121643176246700000003713306985075335103_">
			<path d="M178.6,112.8l2.8-6.7h0.3l1.3,6.7H178.6 M180.1,103.6l-6.9,16h2.6l1.7-4.1h6.1l0.8,4.1h2.5l-3.3-16H180.1z"/>
		</g>
		<g id="LWPOLYLINE-5_00000167392670545384722700000010865583259304339080_">
			<polygon class="st1" points="188.2,119.5 197.8,119.5 198.3,116.9 190.8,116.9 191.3,112.7 197.3,112.7 197.6,110.1 191.5,110.1 
				192,106.2 199.4,106.2 199.4,103.6 189.9,103.6 			"/>
		</g>
		<g id="HATCH-13_00000143595916590347815630000006794586855501218229_">
			<polygon points="188.2,119.5 197.8,119.5 198.3,116.9 190.8,116.9 191.3,112.7 197.3,112.7 197.6,110.1 191.5,110.1 192,106.2 
				199.4,106.2 199.4,103.6 189.9,103.6 			"/>
		</g>
		<g id="SPLINE-10_00000154393143744619779990000014990345298817349553_">
			<path class="st1" d="M205.5,106.2h5.5l-0.1-2.6h-5.4c-1.4,0-2.5,0.4-3.3,1.3c-0.8,0.9-1.2,2-1.2,3.4c0,2.3,1.1,3.5,3.3,4l2.3,0.6
				c1.3,0.3,1.9,0.9,1.9,2c0,1.3-0.9,2.1-2.4,2.1h-6.2l0.1,2.6h6.3c1.4,0,2.5-0.4,3.4-1.3c0.9-0.9,1.3-2.1,1.3-3.5
				c0-2.4-1.2-3.8-3.4-4.3l-2.2-0.5c-1.3-0.3-1.8-0.9-1.8-1.9C203.4,106.8,204.1,106.2,205.5,106.2z"/>
		</g>
		<g id="HATCH-14_00000134949405038990352250000002125511314853936008_">
			<path d="M205.5,106.2h5.5l-0.1-2.6h-5.4c-1.4,0-2.5,0.4-3.3,1.3c-0.8,0.9-1.2,2-1.2,3.4c0,2.3,1.1,3.5,3.3,4l2.3,0.6
				c1.3,0.3,1.9,0.9,1.9,2c0,1.3-0.9,2.1-2.4,2.1h-6.2l0.1,2.6h6.3c1.4,0,2.5-0.4,3.4-1.3c0.9-0.9,1.3-2.1,1.3-3.5
				c0-2.4-1.2-3.8-3.4-4.3l-2.2-0.5c-1.3-0.3-1.8-0.9-1.8-1.9C203.4,106.8,204.1,106.2,205.5,106.2z"/>
		</g>
		<g id="LWPOLYLINE-6_00000125584971450973864210000018198311027267927174_">
			<polygon class="st1" points="212.6,103.6 212.3,106.2 217,106.2 215.5,119.5 217.9,119.5 219.3,106.2 224,106.2 224.3,103.6 			
				"/>
		</g>
		<g id="HATCH-15_00000120526700674078976800000002144940290582390206_">
			<polygon points="212.6,103.6 212.3,106.2 217,106.2 215.5,119.5 217.9,119.5 219.3,106.2 224,106.2 224.3,103.6 			"/>
		</g>
		<g id="SPLINE-11_00000144297456220498678760000018071549129600480190_">
			<path class="st1" d="M230.7,112.1h-3.4l0.7-5.9h3c1.8,0,2.7,0.8,2.7,2.5C233.7,111,232.8,112.1,230.7,112.1z"/>
		</g>
		<g id="SPLINE-12_00000142178153150348751540000000469012692662923180_">
			<path class="st1" d="M236.1,108.5c0-1.5-0.4-2.7-1.2-3.6s-2-1.3-3.5-1.3H226l-1.8,16h2.4l0.5-4.9h2.8l2.5,4.9h2.8l-2.7-5.2
				C234.9,113.7,236.1,111.6,236.1,108.5z"/>
		</g>
		<g id="HATCH-16_00000051368855726172667940000017241584881617449138_">
			<path d="M230.7,112.1h-3.4l0.7-5.9h3c1.8,0,2.7,0.8,2.7,2.5C233.7,111,232.8,112.1,230.7,112.1 M236.1,108.5
				c0-1.5-0.4-2.7-1.2-3.6c-0.8-0.9-2-1.3-3.5-1.3H226l-1.8,16h2.4l0.5-4.9h2.8l2.5,4.9h2.8l-2.7-5.2
				C234.9,113.7,236.1,111.6,236.1,108.5L236.1,108.5z"/>
		</g>
		<g id="SPLINE-13_00000098203070746577391310000005410102110282771635_">
			<path class="st1" d="M246.5,112.5c-0.3,3.1-1.5,4.6-3.7,4.6c-2.1,0-2.9-1.5-2.6-4.6l1-8.9h-2.4l-1,8.9c-0.5,4.8,1.1,7.2,4.9,7.2
				c1.9,0,3.3-0.6,4.3-1.7s1.6-3,1.9-5.6l1-8.9h-2.3L246.5,112.5z"/>
		</g>
		<g id="HATCH-17_00000037678068369117462700000014334104822021948040_">
			<path d="M246.5,112.5c-0.3,3.1-1.5,4.6-3.7,4.6c-2.1,0-2.9-1.5-2.6-4.6l1-8.9h-2.4l-1,8.9c-0.5,4.8,1.1,7.2,4.9,7.2
				c1.9,0,3.3-0.6,4.3-1.7s1.6-3,1.9-5.6l1-8.9h-2.3L246.5,112.5z"/>
		</g>
		<g id="LWPOLYLINE-7_00000161616601215254377010000001180073222186273953_">
			<polygon class="st1" points="251,106.2 255.7,106.2 254.2,119.5 256.6,119.5 258,106.2 262.7,106.2 263,103.6 251.3,103.6 			"/>
		</g>
		<g id="HATCH-18_00000057861355053845214860000017942104484135466135_">
			<polygon points="251,106.2 255.7,106.2 254.2,119.5 256.6,119.5 258,106.2 262.7,106.2 263,103.6 251.3,103.6 			"/>
		</g>
		<g id="SPLINE-14_00000002343476888951095940000001739723810177743763_">
			<path class="st1" d="M272.2,112.5c-0.3,3.1-1.5,4.6-3.7,4.6c-2.1,0-2.9-1.5-2.6-4.6l1-8.9h-2.4l-1,8.9c-0.5,4.8,1.1,7.2,4.9,7.2
				c1.9,0,3.3-0.6,4.3-1.7s1.6-3,1.9-5.6l1-8.9h-2.3L272.2,112.5z"/>
		</g>
		<g id="HATCH-19_00000127025772659730637170000002611676812058070167_">
			<path d="M272.2,112.5c-0.3,3.1-1.5,4.6-3.7,4.6c-2.1,0-2.9-1.5-2.6-4.6l1-8.9h-2.4l-1,8.9c-0.5,4.8,1.1,7.2,4.9,7.2
				c1.9,0,3.3-0.6,4.3-1.7s1.6-3,1.9-5.6l1-8.9h-2.3L272.2,112.5z"/>
		</g>
		<g id="SPLINE-15_00000120533556393948130810000008032992619412185492_">
			<path class="st1" d="M283.1,112.1h-3.4l0.7-5.9h3c1.8,0,2.7,0.8,2.7,2.5C286,111,285.1,112.1,283.1,112.1z"/>
		</g>
		<g id="SPLINE-16_00000033369851461886138850000008120231442727168129_">
			<path class="st1" d="M288.4,108.5c0-1.5-0.4-2.7-1.2-3.6c-0.8-0.9-2-1.3-3.5-1.3h-5.5l-1.8,16h2.4l0.5-4.9h2.8l2.5,4.9h2.8
				l-2.7-5.2C287.2,113.7,288.4,111.6,288.4,108.5z"/>
		</g>
		<g id="HATCH-20_00000052096816178073647340000018239584209495105158_">
			<path d="M283.1,112.1h-3.4l0.7-5.9h3c1.8,0,2.7,0.8,2.7,2.5C286,111,285.1,112.1,283.1,112.1 M288.4,108.5c0-1.5-0.4-2.7-1.2-3.6
				c-0.8-0.9-2-1.3-3.5-1.3h-5.5l-1.8,16h2.4l0.5-4.9h2.8l2.5,4.9h2.8l-2.7-5.2C287.2,113.7,288.4,111.6,288.4,108.5L288.4,108.5z"
				/>
		</g>
		<g id="SPLINE-17_00000011012680087632025730000006403840802099728258_">
			<polygon class="st1" points="293.6,112.8 296.4,106.2 296.7,106.2 298,112.8 			"/>
		</g>
		<g id="SPLINE-18_00000150812551374047761870000009562202394526719417_">
			<polygon class="st1" points="295,103.6 288.1,119.5 290.7,119.5 292.5,115.5 298.5,115.5 299.3,119.5 301.8,119.5 298.5,103.6 
							"/>
		</g>
		<g id="HATCH-21_00000128471285070623500860000004236397898007040386_">
			<path d="M293.6,112.8l2.8-6.7h0.3l1.3,6.7H293.6 M295,103.6l-6.9,16h2.6l1.7-4.1h6.1l0.8,4.1h2.5l-3.3-16H295z"/>
		</g>
		<g id="SPLINE-19_00000058560393843112543410000010105505476011701178_">
			<path class="st1" d="M312.7,116.9h-2.9l1.2-10.8h2.9c2.2,0,3.3,1.5,3.3,4.4C317.2,114.8,315.7,116.9,312.7,116.9z"/>
		</g>
		<g id="SPLINE-20_00000008833437923008956630000000612090807796746380_">
			<path class="st1" d="M314.1,103.6h-5.2l-1.8,16h5.2c4.9,0,7.2-3.2,7.2-9.4C319.6,105.7,317.8,103.6,314.1,103.6z"/>
		</g>
		<g id="HATCH-22_00000006695018345037538560000013501160804017744548_">
			<path d="M312.7,116.9h-2.9l1.2-10.8h2.9c2.2,0,3.3,1.5,3.3,4.4C317.2,114.8,315.7,117,312.7,116.9 M314.1,103.6h-5.2l-1.8,16h5.2
				c4.9,0,7.2-3.2,7.2-9.4C319.6,105.7,317.8,103.6,314.1,103.6L314.1,103.6z"/>
		</g>
		<g id="LWPOLYLINE-8_00000108303076112788910010000002703473679841338267_">
			<polygon class="st1" points="320.8,119.5 330.5,119.5 331,116.9 323.4,116.9 323.9,112.7 330,112.7 330.2,110.1 324.2,110.1 
				324.6,106.2 332,106.2 332,103.6 322.6,103.6 			"/>
		</g>
		<g id="HATCH-23_00000070101796781484664310000008681696407579302822_">
			<polygon points="320.8,119.5 330.5,119.5 331,116.9 323.4,116.9 323.9,112.7 330,112.7 330.2,110.1 324.2,110.1 324.6,106.2 
				332,106.2 332,103.6 322.6,103.6 			"/>
		</g>
		<g id="SPLINE-21_00000065754688404712152290000003097339734670640317_">
			<path class="st1" d="M343.6,112.1h-3.4l0.7-5.9h3c1.8,0,2.7,0.9,2.7,2.5C346.6,111,345.7,112.1,343.6,112.1z"/>
		</g>
		<g id="SPLINE-22_00000101819873248635391390000006187988425958681006_">
			<path class="st1" d="M349,108.5c0-1.5-0.4-2.7-1.2-3.6c-0.8-0.9-2-1.3-3.5-1.3h-5.5l-1.8,16h2.4l0.5-4.9h2.8l2.5,4.9h2.8
				l-2.7-5.2C347.8,113.7,349,111.6,349,108.5z"/>
		</g>
		<g id="HATCH-24_00000164508185171515467500000008644728776373128892_">
			<path d="M343.6,112.1h-3.4l0.7-5.9h3c1.8,0,2.7,0.9,2.7,2.5C346.6,111,345.7,112.1,343.6,112.1 M349,108.5c0-1.5-0.4-2.7-1.2-3.6
				c-0.8-0.9-2-1.3-3.5-1.3h-5.5l-1.8,16h2.4l0.5-4.9h2.8l2.5,4.9h2.8l-2.7-5.2C347.8,113.7,349,111.6,349,108.5L349,108.5z"/>
		</g>
		<g id="LWPOLYLINE-9_00000109745257812800168730000005031015306431293107_">
			<polygon class="st1" points="350,119.5 359.7,119.5 360.2,116.9 352.6,116.9 353.1,112.7 359.2,112.7 359.4,110.1 353.4,110.1 
				353.8,106.2 361.2,106.2 361.2,103.6 351.8,103.6 			"/>
		</g>
		<g id="HATCH-25_00000023277665904191957900000009450846136378368664_">
			<polygon points="350,119.5 359.7,119.5 360.2,116.9 352.6,116.9 353.1,112.7 359.2,112.7 359.4,110.1 353.4,110.1 353.8,106.2 
				361.2,106.2 361.2,103.6 351.8,103.6 			"/>
		</g>
		<g id="SPLINE-23_00000129185810595634460860000000165918623675588516_">
			<path class="st1" d="M367.6,116.9h-2.9l1.2-10.8h2.9c2.2,0,3.3,1.5,3.3,4.4C372.1,114.8,370.6,116.9,367.6,116.9z"/>
		</g>
		<g id="SPLINE-24_00000042701264104275283390000011579038819597802174_">
			<path class="st1" d="M369,103.6h-5.2l-1.8,16h5.2c4.9,0,7.2-3.2,7.2-9.4C374.5,105.7,372.7,103.6,369,103.6z"/>
		</g>
		<g id="HATCH-26_00000029768432910232110180000006674509677889157780_">
			<path d="M367.6,116.9h-2.9l1.2-10.8h2.9c2.2,0,3.3,1.5,3.3,4.4C372.1,114.8,370.6,117,367.6,116.9 M369,103.6h-5.2l-1.8,16h5.2
				c4.9,0,7.2-3.2,7.2-9.4C374.5,105.7,372.7,103.6,369,103.6L369,103.6z"/>
		</g>
		<g id="LWPOLYLINE-10_00000023251119191325158860000000496506750283004061_">
			<polygon class="st1" points="375.7,119.5 385.4,119.5 385.9,116.9 378.3,116.9 378.8,112.7 384.9,112.7 385.1,110.1 379.1,110.1 
				379.5,106.2 386.9,106.2 386.9,103.6 377.5,103.6 			"/>
		</g>
		<g id="HATCH-27_00000042734318702528844010000018290408953694756756_">
			<polygon points="375.7,119.5 385.4,119.5 385.9,116.9 378.3,116.9 378.8,112.7 384.9,112.7 385.1,110.1 379.1,110.1 379.5,106.2 
				386.9,106.2 386.9,103.6 377.5,103.6 			"/>
		</g>
		<g id="SPLINE-25_00000052819806090991485450000012210860983887692937_">
			<path class="st1" d="M393,106.2h5.5l-0.1-2.6h-5.4c-1.4,0-2.5,0.4-3.3,1.3c-0.8,0.9-1.2,2-1.2,3.4c0,2.3,1.1,3.5,3.3,4l2.3,0.6
				c1.3,0.3,1.9,0.9,1.9,2c0,1.3-0.9,2.1-2.4,2.1h-6.2l0.1,2.6h6.3c1.4,0,2.5-0.4,3.4-1.3c0.9-0.9,1.3-2.1,1.3-3.5
				c0-2.4-1.2-3.8-3.4-4.3l-2.2-0.5c-1.3-0.3-1.8-0.9-1.8-1.9C390.9,106.8,391.6,106.2,393,106.2z"/>
		</g>
		<g id="HATCH-28_00000021098036577560251370000001774583936577609092_">
			<path d="M393,106.2h5.5l-0.1-2.6h-5.4c-1.4,0-2.5,0.4-3.3,1.3c-0.8,0.9-1.2,2-1.2,3.4c0,2.3,1.1,3.5,3.3,4l2.3,0.6
				c1.3,0.3,1.9,0.9,1.9,2c0,1.3-0.9,2.1-2.4,2.1h-6.2l0.1,2.6h6.3c1.4,0,2.5-0.4,3.4-1.3c0.9-0.9,1.3-2.1,1.3-3.5
				c0-2.4-1.2-3.8-3.4-4.3l-2.2-0.5c-1.3-0.3-1.8-0.9-1.8-1.9C390.9,106.8,391.6,106.2,393,106.2z"/>
		</g>
	</g>
</g>
</svg>
