<?xml version="1.0" encoding="utf-8"?>
<!-- Generator: Adobe Illustrator 26.0.3, SVG Export Plug-In . SVG Version: 6.00 Build 0)  -->
<svg version="1.1" id="Camada_3" xmlns="http://www.w3.org/2000/svg" xmlns:xlink="http://www.w3.org/1999/xlink" x="0px" y="0px"
	 viewBox="0 0 166 110" style="enable-background:new 0 0 166 110;" xml:space="preserve">
<style type="text/css">
	.st0{fill:#ffffff;}
</style>
<g>
	<path class="st0" d="M32.4,25.4L1.2,85h16.5l8.1-16.2h29.9L63.5,85H92L63.8,25.4H32.4z M31.3,58.9l10.2-19.6L51,58.9H31.3z"/>
	<polygon class="st0" points="80.4,35.4 80.4,45.8 92,45.8 92,85 108.9,85 108.9,25.4 98.8,25.4 	"/>
	<path class="st0" d="M149.2,25.4h-22.1c-6.9,0-12.5,5.6-12.5,12.5v34.6c0,6.9,5.6,12.5,12.5,12.5h22.1c6.9,0,12.5-5.6,12.5-12.5
		V37.9C161.8,31,156.2,25.4,149.2,25.4z M144.5,72.6c0,1.6-1.3,2.9-2.9,2.9h-7c-1.6,0-2.9-1.3-2.9-2.9V38.2c0-1.6,1.3-2.9,2.9-2.9h7
		c1.6,0,2.9,1.3,2.9,2.9V72.6z"/>
</g>
</svg>
