<?xml version="1.0" encoding="utf-8"?>
<!-- Generator: Adobe Illustrator 26.0.3, SVG Export Plug-In . SVG Version: 6.00 Build 0)  -->
<svg version="1.1" id="Camada_2_00000115481838824959778940000009280348845364344742_"
	 xmlns="http://www.w3.org/2000/svg" xmlns:xlink="http://www.w3.org/1999/xlink" x="0px" y="0px" viewBox="0 0 166 110"
	 style="enable-background:new 0 0 166 110;" xml:space="preserve">
<style type="text/css">
	.st0{fill:#FFFFFF;}
	.st1{fill:#FF0000;}
</style>
<g>
	<g>
		<path class="st0" d="M16,78.4l10.8-47.8V16.9H2.4v13.7h13.3L1.4,81.1C0.1,85.7,1.7,90.8,5,92.6l7.8-0.4h14.9V78.4H16z"/>
		<polygon class="st0" points="30.8,16.9 30.8,30.6 38.8,30.6 38.8,92.6 48.7,92.6 48.7,30.6 56.7,30.6 56.7,16.9 		"/>
		<path class="st0" d="M82.8,30.6V16.9H60.1v10.4v3.3v15.6v13.7v18.9v3v1.7c0,5,2.9,9.1,6.6,9.1h16.2V78.9H70v-19h12.8V46.2H70V30.6
			H82.8z"/>
	</g>
	<g>
		<path class="st1" d="M110.1,32.6V18.9h-7.5v13.7H88v38.6c0,0,0.8,3,2.1,4.1c0.3,0.3,0.6,0.4,1,0.4c9.4,0.1,11.4,0,11.4,0v17.4h7.5
			V75.7h14.7V32.6H110.1z M103,62.9h-7.3V43.2h7.3V62.9z M117.5,62.9h-7.7V43.2h7.7V62.9z"/>
		<g>
			<path class="st1" d="M154.6,62.9h9.7V50.8h-6.9c2.4-4.9,5.5-27,5.5-27s-2.5-2.1-6.3-4.9c-0.9,13.9-6.3,31.9-6.3,31.9h-13.4
				c1.9-2.1,4.5-5.7,4.5-5.7s-2.9-13.3-8.1-22.7c-2.8,3.3-4.6,5.9-4.6,5.9s4.4,8,6.9,22.5h-7.5v12.1h10.1
				c-5,11.6-10.6,19.2-10.6,19.2s1.1,3,3.2,10.4c7.7-6.7,11.8-20.9,11.8-20.9s-1.3-4.3-3.7-8.8h15c-0.5,1-1.6,3.2-3.8,7.5
				c2.6,12,11.8,22.1,11.8,22.1s0.9-3.9,2.9-10.4C158.5,75.2,155.4,65.7,154.6,62.9z"/>
			<path class="st1" d="M150.3,44.1c0,0-3-20.1-5.5-26.5c-3.1,2.7-5.6,4.9-5.6,4.9s4.2,10.1,5.1,25.6
				C146.1,46.9,150.3,44.1,150.3,44.1z"/>
		</g>
	</g>
</g>
</svg>
