<?xml version="1.0" encoding="utf-8"?>
<!-- Generator: Adobe Illustrator 26.0.3, SVG Export Plug-In . SVG Version: 6.00 Build 0)  -->
<svg version="1.1" id="Camada_3" xmlns="http://www.w3.org/2000/svg" xmlns:xlink="http://www.w3.org/1999/xlink" x="0px" y="0px"
	 viewBox="0 0 166 110" style="enable-background:new 0 0 166 110;" xml:space="preserve">
<style type="text/css">
	.st0{fill:#ffffff;}
</style>
<g transform="matrix(1.199534 0 0 1.199534 15.237208 6.249314)">
	<path class="st0" d="M26.6,53.3h6v23.5h-6V53.3z M80.4,60c-0.2-0.2-2.1-1.3-5.1-1.3c-3.8,0-6.6,2.6-6.6,6.2c0,3.6,2.6,6.2,6.6,6.2
		c2.8,0,4.7-1.1,5.1-1.3v6.4c-0.8,0.2-2.8,0.8-5.4,0.8c-6.8,0-12.6-4.5-12.6-12.2c0-7,5.3-12.2,12.6-12.2c2.8,0,4.9,0.8,5.4,0.8V60z
		 M18.4,60c-0.2-0.2-2.1-1.3-5.1-1.3c-3.8,0-6.6,2.6-6.6,6.2c0,3.6,2.6,6.2,6.6,6.2c2.8,0,4.7-1.1,5.1-1.3v6.4
		c-0.8,0.2-2.8,0.8-5.4,0.8c-6.6,0-12.6-4.5-12.6-12.2c0-7,5.3-12.2,12.6-12.2c2.8,0,4.9,0.8,5.4,0.8V60z M111.4,65.1
		c0,6.8-5.3,12.2-12.4,12.2s-12.4-5.4-12.4-12.2S91.8,52.9,99,52.9C106.3,52.9,111.4,58.3,111.4,65.1z M99,58.9
		c-3.6,0-6.2,2.8-6.2,6.2c0,3.4,2.6,6.2,6.2,6.2c3.6,0,6.2-2.8,6.2-6.2C105.2,61.7,102.6,58.9,99,58.9z M55,58.7
		c0,0-2.6-0.8-4.7-0.8c-2.4,0-3.8,0.8-3.8,1.9c0,1.5,1.7,1.9,2.6,2.3l1.7,0.6c3.8,1.3,5.6,3.9,5.6,6.8c0,5.8-5.3,7.9-9.8,7.9
		c-3.2,0-6.2-0.6-6.4-0.6v-5.4c0.6,0.2,3,0.9,5.6,0.9c3,0,4.3-0.9,4.3-2.3c0-1.1-1.1-1.9-2.6-2.3c-0.4-0.2-0.9-0.4-1.3-0.4
		c-3.4-1.1-6-3-6-7c0-4.3,3.4-7.3,8.8-7.3c2.8,0,5.6,0.8,5.8,0.8V58.7z"/>
	<g>
		<path id="A" class="st0" d="M-5.9,28.1c0-1.6-1.3-3-2.9-3c0,0-0.1,0-0.1,0c-1.6,0-3,1.3-3,2.9c0,0,0,0.1,0,0.1v6.2
			c0,1.6,1.3,3,2.9,3c0,0,0.1,0,0.1,0c1.6,0,3-1.3,3-2.9c0,0,0-0.1,0-0.1V28.1z"/>
	</g>
	<path class="st0" d="M10.3,20c0-1.6-1.3-3-2.9-3c0,0-0.1,0-0.1,0c-1.7,0-2.8,1.3-2.8,3v14.3c0,1.6,1.3,3,2.9,3c0,0,0.1,0,0.1,0
		c1.6,0,3-1.3,3-2.9c0,0,0-0.1,0-0.1V20H10.3z M26.6,8.9c0-1.6-1.3-3-2.9-3c0,0-0.1,0-0.1,0c-1.6,0-3,1.3-3,2.9c0,0,0,0.1,0,0.1
		v31.2c0,1.6,1.3,3,2.9,3c0,0,0.1,0,0.1,0c1.6,0,3-1.3,3-2.9c0,0,0-0.1,0-0.1V8.9z M42.8,20c0-1.6-1.3-3-2.9-3c0,0-0.1,0-0.1,0
		c-1.6,0-3,1.3-3,2.9c0,0,0,0.1,0,0.1v14.3c0,1.6,1.3,3,2.9,3c0,0,0.1,0,0.1,0c1.6,0,3-1.3,3-2.9c0,0,0-0.1,0-0.1V20z"/>
	<g>
		<path id="A_00000099636920059041775590000007826564882982259616_" class="st0" d="M59,28.1c0-1.6-1.3-3-2.9-3c0,0-0.1,0-0.1,0
			c-1.6,0-3,1.3-3,2.9c0,0,0,0.1,0,0.1v6.2c0,1.6,1.3,3,2.9,3c0,0,0.1,0,0.1,0c1.6,0,3-1.3,3-2.9c0,0,0-0.1,0-0.1V28.1z"/>
	</g>
	<path class="st0" d="M75.1,20c0-1.7-1.3-3-3-3c-1.7,0-3,1.3-3,3v14.3c0,1.7,1.3,3,3,3c1.7,0,3-1.3,3-3V20z M91.3,8.9
		c0-1.7-1.3-3-3-3s-3,1.3-3,3v31.2c0,1.7,1.3,3,3,3s3-1.3,3-3V8.9z M107.4,20c0-1.7-1.3-3-3-3s-3,1.3-3,3v14.3c0,1.7,1.3,3,3,3
		s3-1.3,3-3V20z M123.6,28.1c0-1.7-1.3-3-3-3c-1.7,0-3,1.3-3,3v6.2c0,1.7,1.3,3,3,3c1.7,0,3-1.3,3-3V28.1z"/>
</g>
</svg>
