<?xml version="1.0" encoding="utf-8"?>
<!-- Generator: Adobe Illustrator 26.0.3, SVG Export Plug-In . SVG Version: 6.00 Build 0)  -->
<svg version="1.1" id="Camada_3" xmlns="http://www.w3.org/2000/svg" xmlns:xlink="http://www.w3.org/1999/xlink" x="0px" y="0px"
	 viewBox="0 0 166 110" style="enable-background:new 0 0 166 110;" xml:space="preserve">
<style type="text/css">
	.st0{fill:none;stroke:#FFFFFF;stroke-width:5;stroke-linecap:round;stroke-linejoin:round;stroke-miterlimit:10;}
	.st1{fill:#FCFCFC;}
	.st2{clip-path:url(#SVGID_00000006670589921806056660000014953787706748785597_);}
	.st3{fill:#00ACD3;}
	.st4{fill:#20C2EF;}
	.st5{stroke:#394D54;stroke-width:9.823907e-03;stroke-miterlimit:10;}
	.st6{fill:#17B5EB;}
	.st7{fill-opacity:0.17;}
	.st8{fill:#D4EDF1;}
	.st9{fill-opacity:8.500000e-02;}
	.st10{fill:none;stroke:#394D54;stroke-width:2.140198e-02;stroke-linecap:round;stroke-miterlimit:10;}
	.st11{fill:#2B2B2B;}
</style>
<g transform="matrix(.184659 0 0 .184659 3.070472 31.698131)">
	<g>
		<path class="st0" d="M676.7,182.6l-0.1-36.6l-0.2-65.4 M713.5,108.7l-36.9,37.2l37,36.7 M466.7,146.4c0.2-7.9-2.1-15.9-6.7-22.4
			c-6.7-9.4-17.5-15.8-29.3-15.9c-0.8,0-1.6,0-2.4,0.1c-4.7,0.3-9.2,0.9-13.2,2.6c-26.4,11-31,47.6-8.8,64.1
			c19.3,14.3,47.3,8.5,57-13.4C465.4,157,466.7,151.1,466.7,146.4V80.2 M644.6,112.5c-5.4-3.5-11.8-4.8-18.1-4.8c-0.7,0-1.4,0-2,0.1
			c-18.2,0.8-35.1,13.7-35.1,38.6c0,29.5,31.6,45.4,55.3,31.5 M750.9,174.7l56-48c0,0-1.4-2.6-2.2-3.8
			c-7.5-10.1-19.1-15.2-31.2-15.2C743.5,107.9,721,146.6,750.9,174.7c2.1,1.9,4.9,3.5,8.1,4.8c11,4.6,26,4.2,34.1-1.8 M528,108
			c-0.8,0-1.7,0.1-2.5,0.1c-22.7,0.4-39.1,24-34.1,45.9c4.8,21.3,28.1,34,48.3,27c23.4-6.2,33-35.7,20.1-55.6
			C552.6,114.5,540.7,107.7,528,108L528,108z M872.8,108.7c-9.2,0-18.2,3.2-24.8,9.5c-10.5,8.6-12.7,19.6-12.6,33.3l0.3,31.3"/>
	</g>
	<path class="st1" d="M217.7,85.8h32.8v33.5H267c7.7,0,15.5-1.4,22.8-3.8c3.6-1.2,7.6-2.9,11.1-5c-4.6-6-7-13.7-7.7-21.2
		c-0.9-10.2,1.1-23.5,8-31.5l3.4-4l4.1,3.3c10.3,8.3,19,19.9,20.6,33.1c12.4-3.7,27-2.8,38,3.5l4.5,2.6l-2.4,4.6
		c-9.3,18.1-28.7,23.7-47.6,22.7c-28.4,70.6-90.1,104.1-165,104.1c-38.7,0-74.2-14.5-94.4-48.8c-1.2-2.1-2.2-4.4-3.3-6.6
		c-6.8-15.1-9.1-31.7-7.6-48.2l0.5-5h28V85.8h32.8V53.1h65.5V20.3h39.3v65.5"/>
	<g>
		<g>
			<g>
				<defs>
					<path id="SVGID_1_" d="M115.3-146.8v65.9H83.8v33H57.4L57.1-45c-1.6,18,1.5,34.5,8.7,48.7L68.2,8c1.4,2.6,3.2,5,4.9,7.4
						c1.8,2.4,2.4,3.7,3.5,5.3c19,21.4,47.4,31.7,80.2,31.7C229.4,52.4,291,20.3,318.2-52c19.3,2,37.9-3,46.3-19.5
						c-13.5-7.8-30.8-5.3-40.7-0.3l26.4-75L247.1-80.9h-33v-65.9C214.1-146.8,115.3-146.8,115.3-146.8z"/>
				</defs>
				<clipPath id="SVGID_00000121972847712044968810000012899171833652140162_">
					<use xlink:href="#SVGID_1_"  style="overflow:visible;"/>
				</clipPath>
				<g transform="translate(0 -85)" style="clip-path:url(#SVGID_00000121972847712044968810000012899171833652140162_);">
					<g id="B">
						<g id="C" transform="translate(0 -22.866)">
							<path class="st3" d="M183.8,100.9h28.4v28.4h-28.4V100.9z"/>
							<path class="st4" d="M183.8,133.6h28.4V162h-28.4V133.6z"/>
							<path id="D" class="st5" d="M187.3,126.9v-23.7 M191.6,126.9v-23.7 M195.9,126.9v-23.7 M200.2,126.9v-23.7 M204.5,126.9
								v-23.7 M208.8,126.9v-23.7"/>
							<g>
								<path id="D_00000176039759733140958300000000185357750182766246_" class="st5" d="M187.3,159.7V136 M191.6,159.7V136
									 M195.9,159.7V136 M200.2,159.7V136 M204.5,159.7V136 M208.8,159.7V136"/>
							</g>
						</g>
						<g transform="matrix(1 0 0 -1 22.866 4.572651)">
							<g id="C_00000074425716861173289380000012176818256617179788_" transform="translate(0 -22.866)">
								<path class="st3" d="M216.6,162H245v-28.4h-28.4V162z"/>
								<path class="st4" d="M216.6,129.3H245v-28.4h-28.4V129.3z"/>
								<path id="D_00000086688327708040024000000015012427097253184146_" class="st5" d="M220.1,136v23.7 M224.4,136v23.7
									 M228.7,136v23.7 M233,136v23.7 M237.3,136v23.7 M241.5,136v23.7"/>
								<g>
									<path id="D_00000009553896836254346530000001828129729065502089_" class="st5" d="M220.1,103.2v23.7 M224.4,103.2v23.7
										 M228.7,103.2v23.7 M233,103.2v23.7 M237.3,103.2v23.7 M241.5,103.2v23.7"/>
								</g>
							</g>
						</g>
					</g>
					<g>
						<g id="B_00000181083605699850022340000011822220004049300621_">
							<g id="C_00000079466754567123591550000016573532319859192246_" transform="translate(0 -22.866)">
								<path class="st3" d="M52.8,166.4h28.4v28.4H52.8V166.4z"/>
								<path class="st4" d="M52.8,199.2h28.4v28.4H52.8V199.2z"/>
								<path id="D_00000116212054231982602140000015770360139279477910_" class="st5" d="M56.3,192.4v-23.7 M60.5,192.4v-23.7
									 M64.8,192.4v-23.7 M69.1,192.4v-23.7 M73.5,192.4v-23.7 M77.7,192.4v-23.7"/>
								<g>
									<path id="D_00000052106572135294973380000006608062030318747017_" class="st5" d="M56.3,225.2v-23.7 M60.5,225.2v-23.7
										 M64.8,225.2v-23.7 M69.1,225.2v-23.7 M73.5,225.2v-23.7 M77.7,225.2v-23.7"/>
								</g>
							</g>
							<g transform="matrix(1 0 0 -1 22.866 4.572651)">
								<g id="C_00000055670576431808536010000018217393038049692299_" transform="translate(0 -22.866)">
									<path class="st3" d="M85.6,227.6H114v-28.4H85.6V227.6z"/>
									<path class="st4" d="M85.6,194.8H114v-28.4H85.6V194.8z"/>
									<path id="D_00000031929485925455180670000005163857971804607409_" class="st5" d="M89,201.5v23.7 M93.3,201.5v23.7
										 M97.6,201.5v23.7 M101.9,201.5v23.7 M106.2,201.5v23.7 M110.5,201.5v23.7"/>
									<g>
										<path id="D_00000153701651174947294820000000069462134926781114_" class="st5" d="M89,168.8v23.7 M93.3,168.8v23.7
											 M97.6,168.8v23.7 M101.9,168.8v23.7 M106.2,168.8v23.7 M110.5,168.8v23.7"/>
									</g>
								</g>
							</g>
						</g>
					</g>
					<g>
						<g id="B_00000036230414601137472900000011956838969159418271_">
							<g id="C_00000155827420500369391480000006132754142579369352_" transform="translate(0 -22.866)">
								<path class="st3" d="M118.3,166.4h28.4v28.4h-28.4C118.3,194.8,118.3,166.4,118.3,166.4z"/>
								<path class="st4" d="M118.3,199.2h28.4v28.4h-28.4C118.3,227.6,118.3,199.2,118.3,199.2z"/>
								<path id="D_00000153677850838351821030000014380578732873656740_" class="st5" d="M121.8,192.4v-23.7 M126.1,192.4v-23.7
									 M130.4,192.4v-23.7 M134.7,192.4v-23.7 M139,192.4v-23.7 M143.2,192.4v-23.7"/>
								<g>
									<path id="D_00000107568970936133403310000005560164973309811605_" class="st5" d="M121.8,225.2v-23.7 M126.1,225.2v-23.7
										 M130.4,225.2v-23.7 M134.7,225.2v-23.7 M139,225.2v-23.7 M143.2,225.2v-23.7"/>
								</g>
							</g>
							<g transform="matrix(1 0 0 -1 22.866 4.572651)">
								<g id="C_00000148656291183354515460000007196723446540348035_" transform="translate(0 -22.866)">
									<path class="st3" d="M151.1,227.6h28.4v-28.4h-28.4V227.6z"/>
									<path class="st4" d="M151.1,194.8h28.4v-28.4h-28.4V194.8z"/>
									<path id="D_00000090281797708030875970000013670193085523776905_" class="st5" d="M154.6,201.5v23.7 M158.8,201.5v23.7
										 M163.1,201.5v23.7 M167.4,201.5v23.7 M171.7,201.5v23.7 M176,201.5v23.7"/>
									<g>
										<path id="D_00000078010229798139749030000015193127076865424538_" class="st5" d="M154.6,168.8v23.7 M158.8,168.8v23.7
											 M163.1,168.8v23.7 M167.4,168.8v23.7 M171.7,168.8v23.7 M176,168.8v23.7"/>
									</g>
								</g>
							</g>
						</g>
					</g>
					<g>
						<g id="B_00000065067330003029368560000000399846381719423162_">
							<g id="C_00000129907898088891612230000006814614331528873601_" transform="translate(0 -22.866)">
								<path class="st3" d="M183.8,166.4h28.4v28.4h-28.4V166.4z"/>
								<path class="st4" d="M183.8,199.2h28.4v28.4h-28.4V199.2z"/>
								<path id="D_00000097492376922761628600000006594076797619782560_" class="st5" d="M187.3,192.4v-23.7 M191.6,192.4v-23.7
									 M195.9,192.4v-23.7 M200.2,192.4v-23.7 M204.5,192.4v-23.7 M208.8,192.4v-23.7"/>
								<g>
									<path id="D_00000030467004442446573370000005111891758375442620_" class="st5" d="M187.3,225.2v-23.7 M191.6,225.2v-23.7
										 M195.9,225.2v-23.7 M200.2,225.2v-23.7 M204.5,225.2v-23.7 M208.8,225.2v-23.7"/>
								</g>
							</g>
							<g transform="matrix(1 0 0 -1 22.866 4.572651)">
								<g id="C_00000142883735299606042170000000195508997289933701_" transform="translate(0 -22.866)">
									<path class="st3" d="M216.6,227.6H245v-28.4h-28.4V227.6z"/>
									<path class="st4" d="M216.6,194.8H245v-28.4h-28.4V194.8z"/>
									<path id="D_00000088124031729679847710000017442431549193211057_" class="st5" d="M220.1,201.5v23.7 M224.4,201.5v23.7
										 M228.7,201.5v23.7 M233,201.5v23.7 M237.3,201.5v23.7 M241.5,201.5v23.7"/>
									<g>
										<path id="D_00000098218699754163998460000005696536033496504459_" class="st5" d="M220.1,168.8v23.7 M224.4,168.8v23.7
											 M228.7,168.8v23.7 M233,168.8v23.7 M237.3,168.8v23.7 M241.5,168.8v23.7"/>
									</g>
								</g>
							</g>
						</g>
					</g>
					<path class="st6" d="M323.8,183.2c2.2-17.1-10.6-30.5-18.5-36.8c-9.1,10.6-10.5,38.2,3.8,49.9c-8,7.1-24.8,13.5-42.1,13.5H55.1
						c-1.7,18,0,104.7,0,104.7H366l-1.4-131C351.1,175.7,333.8,178.2,323.8,183.2"/>
					<path class="st7" d="M55.1,232.8v81.7H366v-81.7"/>
					<path class="st8" d="M165.8,307.2c-19.4-9.2-30-21.7-36-35.4l-58.9,2.6l30.1,40.1L165.8,307.2"/>
					<path class="st9" d="M325.2,182.6L325.2,182.6c-29.9,38.6-72.8,72.2-118.8,89.9c-41.1,15.8-76.8,15.8-101.5,3.2
						c-2.7-1.5-5.3-3.2-7.9-4.7c-18.1-12.7-28.3-33.6-27.4-61.2H55.1v104.7H366V176.9h-35.8L325.2,182.6z"/>
				</g>
			</g>
		</g>
	</g>
	<path class="st10" d="M71.8,188c20.3,1.1,42,1.3,60.8-4.6"/>
	<path class="st8" d="M152.8,173.6c0,4.3-3.5,7.8-7.8,7.8s-7.8-3.5-7.8-7.8s3.5-7.8,7.8-7.8C149.3,165.7,152.8,169.2,152.8,173.6z"
		/>
	<path class="st11" d="M147,168.3c-1.1,0.6-1.5,2-0.8,3.1c0.4,0.7,1.2,1.1,2,1.1c0.9,0,1.6-0.5,2-1.2c0.3,0.7,0.4,1.4,0.4,2.2
		c0,3.1-2.5,5.6-5.6,5.6s-5.6-2.5-5.6-5.6s2.5-5.6,5.6-5.6C145.6,167.9,146.3,168.1,147,168.3L147,168.3z M6.4,149.5h364.4
		c-7.9-2-25.1-4.7-22.3-15.1c-14.4,16.7-49.2,11.7-58,3.5c-9.8,14.2-66.7,8.8-70.7-2.3c-12.3,14.4-50.2,14.4-62.5,0
		c-4,11-60.9,16.4-70.7,2.3c-8.8,8.2-43.6,13.2-58-3.5C31.5,144.8,14.3,147.5,6.4,149.5"/>
</g>
</svg>
