<svg id="Camada_2" data-name="Camada 2" xmlns="http://www.w3.org/2000/svg" xmlns:xlink="http://www.w3.org/1999/xlink" viewBox="0 0 166 110"><defs><style>.cls-1{fill:#fff;}.cls-2{stroke:#6b6969;stroke-miterlimit:10;stroke-width:0.25px;fill:url(#Gradiente_sem_nome_7);}</style><linearGradient id="Gradiente_sem_nome_7" x1="48.07" y1="41.52" x2="165" y2="41.52" gradientUnits="userSpaceOnUse"><stop offset="0" stop-color="#fff"/><stop offset="0.09" stop-color="#fef8f6"/><stop offset="0.25" stop-color="#fde6de"/><stop offset="0.44" stop-color="#fac8b6"/><stop offset="0.67" stop-color="#f79f7f"/><stop offset="0.92" stop-color="#f26b3a"/><stop offset="1" stop-color="#f15a24"/></linearGradient></defs><polygon class="cls-1" points="2 83.5 9.68 44.01 21.74 44.01 20.65 52.78 12.97 52.78 11.87 59.37 18.45 59.37 17.36 67.04 10.78 67.04 7.48 83.5 2 83.5"/><polygon class="cls-1" points="18.45 83.5 22.84 83.5 27.23 54.98 22.84 54.98 18.45 83.5"/><polygon class="cls-1" points="23.39 51.69 27.77 51.69 28.87 44.01 24.48 44.01 23.39 51.69"/><path class="cls-1" d="M39.23,55.23c-1.16-.22-2.44.71-3.65,2.43L37.1,44H32.71L28.32,83.5h4.39l.1-.86a2.08,2.08,0,0,0,1.06.6c2.75.53,6.17-5.32,7.64-13S42,55.76,39.23,55.23ZM38.1,70.41c-.66,3.44-2.18,6-3.4,5.81-.46-.09-.81-.56-1-1.3l1-8.51c.73-1.73,1.66-2.81,2.47-2.66C38.3,64,38.75,67,38.1,70.41Z"/><path class="cls-1" d="M52.24,75.07a4.15,4.15,0,0,1-3.81,2.78c-1.53.05-2.11-2.68-1.74-6.42h9.84c0-.13,0-.26.07-.39,1.44-9.46.6-16.16-3.68-16-3.6.11-7.65,5.45-9.16,13.64S43.36,83.5,47,83.5c4.22,0,6.84-2.11,8.44-7.16ZM52,60.71C53.53,60.6,54.13,62.66,54,66H47.83C48.91,62.78,50.52,60.81,52,60.71Z"/><path class="cls-1" d="M71.1,56.08l-2.19,6.58s-4.39-4.39-6.58,20.84H57.66L62.33,55h3.29v3.29S68.91,52.79,71.1,56.08Z"/><polygon class="cls-1" points="74.39 44.01 67.81 83.5 72.75 83.5 75.49 68.14 80.97 68.14 78.78 83.5 83.85 83.5 89.75 44.01 85.36 44.01 83.17 58.27 76.58 58.27 78.78 44.01 74.39 44.01"/><path class="cls-1" d="M99.07,54c-3.85-.85-8.45,5.18-10.27,13.46S88.63,83.15,92.49,84s8.46-5.19,10.28-13.47S102.93,54.85,99.07,54Zm-.85,17c-.91,4.17-2.85,7.29-4.31,7s-1.92-4-1-8.14,2.85-7.29,4.31-7S99.14,66.82,98.22,71Z"/><path class="cls-1" d="M136.81,76.17A4.13,4.13,0,0,1,133,78.94c-1.53,0-2.11-2.67-1.74-6.41h9.84c0-.14.05-.26.07-.4,1.44-9.45.6-16.15-3.67-16-3.61.12-7.65,5.46-9.17,13.65s-.39,14.83,3.21,14.83c4.23,0,6.84-2.11,8.45-7.15Zm-.29-14.37c1.59-.11,2.19,2,2.07,5.24H132.4C133.48,63.88,135.09,61.9,136.52,61.8Z"/><path class="cls-1" d="M107.29,83.78c2.2-11.25,3.3-21.12,5.53-20.66,1.18.25.21,9.1-2.23,20.66H115s4.34-20.91,5.53-20.66.16,9.1-2.28,20.66h5.48c3.64-15.28,3.72-28.59.16-29.45-1.5-.36-3.41,1.52-5.4,5-.41-2.22-1.15-4.7-2.23-5-1.49-.35-3.39,1.56-5.37,5l.82-5h-4.39l-3.93,26.2-.3,1.23c-.14.58-.27,1.44-.4,2h4.63"/><path class="cls-2" d="M140.63,57.21C179.38,55,187,1.23,48.07,39.62,97,26,187,26.46,140.63,57.21Z"/></svg>