<?xml version="1.0" encoding="utf-8"?>
<!-- Generator: Adobe Illustrator 26.0.3, SVG Export Plug-In . SVG Version: 6.00 Build 0)  -->
<svg version="1.1" id="Camada_3" xmlns="http://www.w3.org/2000/svg" xmlns:xlink="http://www.w3.org/1999/xlink" x="0px" y="0px"
	 viewBox="0 0 166 110" style="enable-background:new 0 0 166 110;" xml:space="preserve">
<style type="text/css">
	
		.st0{clip-path:url(#SVGID_00000088132870941368342660000004401578670680367284_);fill:url(#rect43_00000133503782782345201830000002416043693221101756_);}
	.st1{fill:#FFFFFF;stroke:#000000;stroke-width:0.25;stroke-miterlimit:10;}
</style>
<g>
	<g id="g958" transform="translate(-0.0849561)">
		<g id="g937" transform="matrix(0.48980749,0,0,0.48980749,-29.744846,88.66226)">
			<g>
				<g>
					<defs>
						<path id="SVGID_1_" d="M117.3-117.9c0,0,0,0.2-0.1,0.5c-0.5,0.1-1,0.3-1.5,0.5c-0.7,0.2-1.4,0.5-2.1,0.7
							c-0.7,0.3-1.4,0.5-2.1,0.8c-1.4,0.6-2.8,1.3-4.1,2c-1.3,0.7-2.6,1.5-3.8,2.4c-0.2-0.1-0.3-0.1-0.3-0.1
							c-12.8-4.9-24.1,1-24.1,1c-1,13.6,5.1,22.1,6.3,23.7c-0.3,0.8-0.6,1.7-0.8,2.5c-0.9,3.1-1.7,6.2-2.1,9.5
							c-0.1,0.5-0.1,0.9-0.2,1.4C70.5-67.1,67-55.2,67-55.2c9.8,11.3,21.3,12,21.3,12l0,0c1.5,2.6,3.1,5.1,5,7.4
							c0.8,1,1.6,1.9,2.5,2.8c-3.6,10.3,0.5,18.8,0.5,18.8c11,0.4,18.2-4.8,19.7-6c1.1,0.4,2.2,0.7,3.3,1c3.4,0.9,6.8,1.4,10.3,1.5
							c0.9,0,1.7,0.1,2.6,0h0.4h0.3h0.5h0.5l0,0c5.2,7.4,14.2,8.4,14.2,8.4c6.5-6.8,6.8-13.6,6.8-15l0,0c0,0,0,0,0-0.1s0-0.2,0-0.2
							l0,0c0-0.1,0-0.2,0-0.3c1.4-0.9,2.6-2,3.9-3.1c2.6-2.3,4.8-5,6.7-7.9c0.2-0.3,0.4-0.5,0.5-0.8c7.3,0.4,12.5-4.5,12.5-4.5
							c-1.2-7.6-5.6-11.3-6.5-12l0,0c0,0,0,0-0.1-0.1l-0.1-0.1l0,0c0,0-0.1-0.1-0.2-0.1c0-0.5,0.1-0.9,0.1-1.4
							c0.1-0.8,0.1-1.6,0.1-2.5V-58v-0.3v-0.2c0-0.2,0-0.1,0-0.2v-0.5v-0.7c0-0.2,0-0.4,0-0.7c0-0.2,0-0.4-0.1-0.6l-0.1-0.6
							l-0.1-0.6c-0.1-0.8-0.3-1.7-0.5-2.5c-0.8-3.3-2-6.4-3.7-9.2s-3.8-5.3-6.2-7.4c-2.4-2.1-5-3.8-7.8-5c-2.8-1.3-5.7-2.1-8.6-2.4
							c-1.5-0.2-2.9-0.3-4.4-0.2h-0.5h-0.1h-0.2h-0.2h-0.5c-0.2,0-0.4,0-0.6,0c-0.7,0.1-1.5,0.2-2.2,0.3c-2.9,0.5-5.6,1.6-8,3
							c-2.4,1.4-4.5,3.2-6.2,5.3c-1.7,2-3,4.3-3.9,6.6c-0.9,2.3-1.4,4.8-1.6,7.1c0,0.6,0,1.2,0,1.7c0,0.1,0,0.3,0,0.4v0.5
							c0,0.3,0,0.6,0.1,0.8c0.1,1.2,0.3,2.3,0.7,3.4c0.6,2.2,1.7,4.2,2.9,5.9c1.3,1.7,2.8,3.1,4.4,4.2c1.6,1.1,3.3,1.9,5,2.4
							c1.7,0.5,3.4,0.7,5,0.7c0.2,0,0.4,0,0.6,0c0.1,0,0.2,0,0.3,0s0.2,0,0.3,0c0.2,0,0.3,0,0.5,0h0.1h0.2c0.1,0,0.2,0,0.3,0
							c0.2,0,0.4-0.1,0.6-0.1c0.2,0,0.4-0.1,0.6-0.1c0.4-0.1,0.7-0.2,1.1-0.3c0.7-0.2,1.3-0.5,1.9-0.8c0.6-0.3,1.2-0.7,1.7-1
							c0.1-0.1,0.3-0.2,0.4-0.3c0.6-0.4,0.6-1.2,0.2-1.8c-0.4-0.5-1.1-0.6-1.6-0.3c-0.1,0.1-0.3,0.1-0.4,0.2
							c-0.5,0.2-0.9,0.4-1.5,0.6c-0.5,0.2-1,0.3-1.6,0.4c-0.3,0-0.6,0.1-0.8,0.1c-0.1,0-0.3,0-0.4,0c-0.1,0-0.3,0-0.4,0
							c-0.1,0-0.3,0-0.4,0c-0.2,0-0.3,0-0.5,0c0,0-0.1,0,0,0h-0.1h-0.1c-0.1,0-0.2,0-0.2,0c-0.2,0-0.3,0-0.5-0.1
							c-1.2-0.2-2.5-0.5-3.7-1.1c-1.2-0.5-2.4-1.3-3.4-2.2c-1-0.9-2-2.1-2.7-3.4c-0.7-1.3-1.2-2.7-1.4-4.2c-0.1-0.7-0.2-1.5-0.1-2.3
							c0-0.2,0-0.4,0-0.6c0,0.1,0,0,0,0v-0.1v-0.2c0-0.1,0-0.2,0-0.3c0-0.4,0.1-0.8,0.2-1.2c0.6-3.2,2.2-6.4,4.7-8.8
							c0.6-0.6,1.3-1.2,2-1.7s1.5-0.9,2.3-1.3s1.6-0.7,2.5-0.9c0.9-0.2,1.7-0.4,2.6-0.5c0.4,0,0.9-0.1,1.3-0.1c0.1,0,0.2,0,0.3,0
							h0.4h0.2c0.1,0,0,0,0,0h0.1h0.4c1,0.1,1.9,0.2,2.9,0.4c1.9,0.4,3.8,1.1,5.5,2.1c3.4,1.9,6.4,4.9,8.2,8.5
							c0.9,1.8,1.5,3.7,1.9,5.7c0.1,0.5,0.1,1,0.2,1.5v0.4v0.4c0,0.1,0,0.3,0,0.4c0,0.1,0,0.3,0,0.4v0.3v0.4c0,0.2,0,0.6,0,0.9
							c0,0.5-0.1,1.1-0.2,1.7c-0.1,0.5-0.2,1.1-0.3,1.6s-0.2,1.1-0.4,1.6c-0.3,1.1-0.6,2.1-1,3.1c-0.8,2-1.9,4-3.2,5.8
							c-2.6,3.6-6.2,6.5-10.2,8.3c-2,0.9-4.2,1.6-6.3,1.9c-1.1,0.2-2.2,0.3-3.3,0.3H134h-0.2h-0.4h-0.5h-0.3c0.2,0,0,0,0,0h-0.1
							c-0.6,0-1.2,0-1.8-0.1c-2.4-0.2-4.7-0.6-7-1.3s-4.5-1.5-6.6-2.6c-4.2-2.2-7.9-5.3-10.8-9c-1.5-1.8-2.7-3.8-3.8-5.9
							c-1.1-2.1-1.9-4.2-2.5-6.5c-0.6-2.2-1-4.5-1.1-6.8v-0.4v-0.1v-0.1v-0.2v-0.4V-67v-0.1v0.1v-0.5v-0.1l0,0v-0.2
							c0-0.3,0-0.6,0-0.8c0-1.1,0.1-2.3,0.3-3.5c0.1-1.2,0.3-2.3,0.6-3.5c0.2-1.2,0.5-2.3,0.8-3.4c0.6-2.3,1.5-4.5,2.4-6.5
							c1.9-4.1,4.4-7.8,7.4-10.7c0.8-0.7,1.5-1.4,2.3-2.1c0.8-0.7,1.7-1.3,2.5-1.8c0.9-0.6,1.8-1.1,2.7-1.6c0.5-0.2,0.9-0.5,1.4-0.7
							c0.2-0.1,0.5-0.2,0.7-0.3c0.2-0.1,0.5-0.2,0.7-0.3c1-0.4,1.9-0.7,2.9-1.1c0.3-0.1,0.5-0.2,0.7-0.2c0.2-0.1,0.5-0.1,0.8-0.2
							c0.5-0.1,1-0.3,1.5-0.4c0.3-0.1,0.5-0.1,0.8-0.2c0.3-0.1,0.5-0.1,0.8-0.2c0.3,0,0.5-0.1,0.8-0.1l0.4-0.1l0.4-0.1
							c0.3,0,0.5-0.1,0.8-0.1s0.6-0.1,0.9-0.1c0.2,0,0.6-0.1,0.9-0.1c0.2,0,0.4,0,0.5-0.1h0.4h0.2h0.2c0.3,0,0.6,0,0.9-0.1h0.4
							c0,0,0.2,0,0,0h0.1h0.2c0.3,0,0.5,0,0.8,0c1,0,2,0,3,0c2,0.1,3.9,0.3,5.8,0.6c3.8,0.7,7.3,1.9,10.5,3.5s6.1,3.5,8.5,5.6
							c0.2,0.1,0.3,0.3,0.5,0.4c0.2,0.1,0.3,0.3,0.4,0.4c0.3,0.3,0.6,0.5,0.9,0.8c0.3,0.3,0.6,0.5,0.8,0.8c0.3,0.3,0.5,0.5,0.8,0.8
							c1.1,1.1,2,2.2,2.9,3.4c1.8,2.3,3.2,4.6,4.3,6.7c0.1,0.1,0.1,0.3,0.2,0.4c0.1,0.1,0.1,0.3,0.2,0.4c0.1,0.3,0.3,0.5,0.4,0.8
							c0.1,0.3,0.2,0.5,0.4,0.8c0.1,0.3,0.2,0.5,0.3,0.8c0.4,1,0.8,2,1.1,2.9c0.5,1.5,0.9,2.8,1.2,4c0.1,0.5,0.6,0.8,1,0.7
							c0.5,0,0.9-0.4,0.9-0.9c0-1.2,0-2.7-0.1-4.4c-0.2-2.1-0.5-4.4-1.2-7.1c-0.7-2.6-1.7-5.5-3.2-8.5c-1.5-3-3.4-6.1-5.9-9
							c-1-1.2-2.1-2.3-3.2-3.5c1.7-6.9-2.1-12.8-2.1-12.8c-6.6-0.4-10.8,2.1-12.4,3.2c-0.3-0.1-0.5-0.2-0.8-0.3
							c-1.1-0.5-2.3-0.9-3.5-1.3c-1.2-0.4-2.4-0.7-3.6-1c-1.2-0.3-2.5-0.5-3.8-0.7c-0.2,0-0.4-0.1-0.7-0.1c-2.9-9.2-11.1-13-11.1-13
							C119-126.1,117.3-117.9,117.3-117.9"/>
					</defs>
					<clipPath id="SVGID_00000088103454146799263180000011726153170026049670_">
						<use xlink:href="#SVGID_1_"  style="overflow:visible;"/>
					</clipPath>
					
						<linearGradient id="rect43_00000005239386269889506850000010549331781091415687_" gradientUnits="userSpaceOnUse" x1="-9636.1777" y1="31530.5801" x2="-9625.0479" y2="31530.5801" gradientTransform="matrix(0 -2.4165 -2.4165 0 76316.0469 -23266.9316)">
						<stop  offset="0" style="stop-color:#FFF200"/>
						<stop  offset="1" style="stop-color:#F15A29"/>
					</linearGradient>
					
						<rect id="rect43" x="67" y="-131.9" style="clip-path:url(#SVGID_00000088103454146799263180000011726153170026049670_);fill:url(#rect43_00000005239386269889506850000010549331781091415687_);" width="113" height="122.7"/>
				</g>
			</g>
		</g>
	</g>
	<g>
		<path id="path16" class="st1" d="M83.5,54.5c-0.2,5.7-4.7,10.1-10.2,10.1c-5.8,0-10.2-4.7-10.2-10.4c0-5.8,4.7-10.5,10.4-10.5
			c2.6,0,5.1,1.1,7.3,3.1l-1.7,2.1c-1.6-1.4-3.6-2.4-5.6-2.4c-4.2,0-7.7,3.5-7.7,7.7c0,4.3,3.3,7.7,7.4,7.7c3.7,0,6.7-2.7,7.2-6.2
			h-8.5v-2.5h11.4L83.5,54.5L83.5,54.5z"/>
		<path id="path18" class="st1" d="M93.3,53.1h-1.6c-1.7,0-3.1,1.4-3.1,3.1v8.1h-2.8V50.5h2.3v1.2c0.8-0.8,1.9-1.2,3.3-1.2h3
			L93.3,53.1z"/>
		<path id="path20" class="st1" d="M108.4,64.4H106v-1.8c-1.8,1.8-4.7,2.6-7.6,1.4c-2.2-1-3.8-2.9-4.2-5.3c-0.8-4.5,2.6-8.5,7.1-8.5
			c1.9,0,3.5,0.8,4.8,2v-1.8h2.4L108.4,64.4L108.4,64.4z M105.6,58.4c0.7-2.8-1.5-5.4-4.3-5.4c-2.4,0-4.4,2-4.4,4.4
			c0,2.7,2.4,4.8,5.2,4.3C103.8,61.4,105.2,60.1,105.6,58.4"/>
		<path id="path22" class="st1" d="M114.1,49.7v0.8h4.4V53h-4.4v11.5h-2.8V49.8c0-3.1,2.2-4.9,5-4.9h3.3l-1.1,2.6h-2.2
			C115,47.5,114.1,48.5,114.1,49.7"/>
		<path id="path24" class="st1" d="M133.2,64.4h-2.4v-1.8c-1.8,1.8-4.7,2.6-7.6,1.4c-2.2-1-3.8-2.9-4.2-5.3
			c-0.8-4.5,2.6-8.5,7.1-8.5c1.9,0,3.5,0.8,4.8,2v-1.8h2.4L133.2,64.4L133.2,64.4z M130.4,58.4c0.7-2.8-1.5-5.4-4.3-5.4
			c-2.4,0-4.4,2-4.4,4.4c0,2.7,2.4,4.8,5.2,4.3C128.6,61.4,130,60.1,130.4,58.4"/>
		<path id="path26" class="st1" d="M148.1,56.1v8.2h-2.8v-8.2c0-1.7-1.4-3.1-3.1-3.1c-1.8,0-3.1,1.4-3.1,3.1v8.2h-2.8V50.5h2.3v1.2
			c1-0.9,2.3-1.4,3.7-1.4C145.6,50.2,148.1,52.9,148.1,56.1"/>
		<path id="path28" class="st1" d="M164.5,64.4h-2.4v-1.8c-1.8,1.8-4.7,2.6-7.6,1.4c-2.2-1-3.8-2.9-4.2-5.3
			c-0.8-4.5,2.6-8.5,7.1-8.5c1.9,0,3.5,0.8,4.8,2v-1.8h2.4L164.5,64.4L164.5,64.4z M161.6,58.4c0.7-2.8-1.5-5.4-4.3-5.4
			c-2.4,0-4.4,2-4.4,4.4c0,2.7,2.4,4.8,5.2,4.3C159.9,61.4,161.3,60.1,161.6,58.4"/>
	</g>
</g>
</svg>
