<?xml version="1.0" encoding="utf-8"?>
<!-- Generator: Adobe Illustrator 26.0.3, SVG Export Plug-In . SVG Version: 6.00 Build 0)  -->
<svg version="1.1" id="Camada_3" xmlns="http://www.w3.org/2000/svg" xmlns:xlink="http://www.w3.org/1999/xlink" x="0px" y="0px"
	 viewBox="0 0 166 110" style="enable-background:new 0 0 166 110;" xml:space="preserve">
<style type="text/css">
	.st0{fill:#FFFFFF;}
	.st1{fill:#E12229;}
</style>
<g>
	<path class="st0" d="M64.9,63.1h-3.7V46.7h3.7v6.6h8.3v-6.6H77V63h-3.7v-6.8H65L64.9,63.1L64.9,63.1z M83.7,56.5
		c0,2.9,0.9,4.1,4,4.1s4-1.2,4-4.1v-9.8h3.7v9.9c0.2,1.5-0.2,3.1-1,4.4c-1.5,1.6-3.6,2.3-6.7,2.3S82.5,62.6,81,61
		c-0.8-0.9-1-2.3-1-4.4v-9.9h3.7V56.5z M107.6,46.7l7.5,16.3H111l-1.6-3.9h-7.7l-1.6,3.9h-4l7.5-16.3H107.6z M102.8,56.3h5.3
		l-2.7-6.3L102.8,56.3z M140.3,46.7L134.8,63h-4.6l-3.8-12.2L123.1,63h-4.5l-5.9-16.3h4l4.1,12.6l3.5-12.6h4.4l4,12.6l3.8-12.6
		L140.3,46.7z M145.3,53.4h10.3v2.8h-10.3c0,2.9,1.3,4,4.2,4h6.1V63h-6.3c-2,0.2-3.9-0.3-5.5-1.4c-1.9-1.6-2.9-4-2.7-6.4
		c0-5.8,2.6-8.5,8.3-8.5h6.2v2.8h-6.1C146.8,49.6,145.5,50.8,145.3,53.4 M158.9,46.7h3.9V63h-3.9V46.7z"/>
	<path class="st1" d="M25.1,65.7c0.1,0,0.1-0.1,0-0.2c-3.8-8.2-8.5-15.9-14.1-22.9c0,0-4.4,4.2-4.1,8.4c0.2,2,1.1,3.8,2.6,5.1
		c3.9,3.8,13.2,8.5,15.4,9.6C24.9,65.8,25,65.8,25.1,65.7 M23.6,69c0-0.1-0.1-0.1-0.2-0.1l0,0L7.8,69.4c1.7,3,4.6,5.4,7.5,4.6
		c2-0.5,6.7-3.8,8.2-4.8l0,0C23.6,69,23.6,69,23.6,69 M23.8,67.6c0.1-0.1-0.1-0.2-0.1-0.2l0,0C16.9,62.7,3.6,55.6,3.6,55.6
		C2.1,60.2,4.5,65.2,9,67c1,0.4,2,0.6,3,0.7C12.2,67.7,21.3,67.7,23.8,67.6L23.8,67.6 M24.9,35.9c-0.7,0.1-2.5,0.5-2.5,0.5
		C20,37,18,38.8,17.3,41.2c-0.4,1.6-0.4,3.3,0,5c1.4,6.1,8.2,16.2,9.6,18.3c0.1,0.1,0.2,0.1,0.2,0.1c0.1,0,0.1-0.1,0.1-0.2l0,0
		C29.5,41.8,24.9,35.9,24.9,35.9 M30,64.5c0.1,0,0.2,0,0.2-0.1l0,0c1.5-2.2,8.2-12.2,9.6-18.3c0.4-1.6,0.4-3.3,0-5
		c-0.8-2.4-2.7-4.2-5.2-4.8c0,0-1.2-0.3-2.5-0.5c0,0-4.6,6-2.4,28.4l0,0C29.9,64.4,30,64.4,30,64.5 M33.7,68.8c0,0-0.2,0-0.2,0.1
		s0,0.2,0.1,0.2c1.5,1.1,6,4.3,8.2,4.9c0,0,4,1.4,7.5-4.6L33.7,68.8L33.7,68.8z M53.5,55.6c0,0-13.3,7.1-20.1,11.8
		c-0.1,0.1-0.1,0.1-0.1,0.2c0,0,0.1,0.1,0.2,0.1l0,0h12c0.9-0.1,1.8-0.3,2.7-0.6c2.2-0.9,4-2.6,5-4.8C54.1,60.1,54.2,57.7,53.5,55.6
		 M32.1,65.7c0.1,0,0.1,0.1,0.2,0c2.2-1.1,11.5-5.8,15.4-9.6c1.5-1.3,2.4-3.1,2.6-5.1c0.3-4.4-4.1-8.4-4.1-8.4
		c-5.6,7-10.3,14.7-14.1,22.9l0,0C32.1,65.6,32.1,65.7,32.1,65.7"/>
</g>
</svg>
