<?xml version="1.0" encoding="utf-8"?>
<!-- Generator: Adobe Illustrator 26.0.3, SVG Export Plug-In . SVG Version: 6.00 Build 0)  -->
<svg version="1.1" id="Layer_1" xmlns="http://www.w3.org/2000/svg" xmlns:xlink="http://www.w3.org/1999/xlink" x="0px" y="0px"
	 viewBox="0 0 166 110" style="enable-background:new 0 0 166 110;" xml:space="preserve">
<style type="text/css">
	.st0{fill:#020204;}
	.st1{fill:#FDFDFB;}
	.st2{fill-opacity:0.26;}
	.st3{opacity:0.3;enable-background:new    ;}
	.st4{fill:url(#SVGID_1_);}
	.st5{fill:url(#SVGID_00000167367135153916469820000004779548636174813826_);}
	.st6{fill:url(#SVGID_00000156570268017973208740000013870228439678682786_);}
	.st7{fill:#7C7C7C;}
	.st8{fill:#141413;}
	.st9{fill:url(#SVGID_00000141435434941807603040000013390498415745760417_);}
	
		.st10{clip-path:url(#SVGID_00000098205691156185928680000016283701077997458848_);fill:url(#SVGID_00000147199510889141014290000013154435323422555788_);}
	.st11{fill:url(#SVGID_00000103243673123302842390000008485839543454795452_);}
	.st12{fill:url(#SVGID_00000089562914196554296920000002291133037277886378_);}
	.st13{fill:url(#SVGID_00000119834805389686237640000016820167057537780927_);}
	.st14{fill:url(#SVGID_00000123416730490678968370000012742334623997531831_);}
	.st15{fill:#D9B30D;}
	.st16{fill:#604405;}
	.st17{fill:url(#SVGID_00000070808571119277490050000004767192365179961507_);}
	.st18{fill:#F6DA4A;}
	.st19{opacity:0.8;fill:url(#SVGID_00000137836149334895841690000014009553669719924415_);enable-background:new    ;}
	.st20{opacity:0.8;fill:url(#SVGID_00000116218399055245284860000018179392457476773810_);enable-background:new    ;}
	.st21{fill:url(#SVGID_00000054246527498552957030000008468132062255045249_);}
	
		.st22{clip-path:url(#SVGID_00000174573898752883946620000002490612190472435339_);fill:url(#SVGID_00000054983086565896350650000017081615144217301659_);}
	.st23{clip-path:url(#SVGID_00000041979719177092870920000009780662560760896175_);fill:#838384;}
	.st24{opacity:0.25;fill:url(#SVGID_00000000932060130675306890000016173537922344101309_);enable-background:new    ;}
	.st25{opacity:0.42;fill:url(#SVGID_00000083789001588859042300000010264152902711072188_);enable-background:new    ;}
	.st26{opacity:0.2;fill:url(#SVGID_00000073683628837839441710000013803039829164812986_);enable-background:new    ;}
	.st27{opacity:0.1;enable-background:new    ;}
	.st28{fill:#838384;}
	.st29{opacity:0.2;fill:url(#SVGID_00000172409522431598731000000009652006759503147152_);enable-background:new    ;}
	
		.st30{clip-path:url(#SVGID_00000173156122700023562560000001970287314124843152_);fill:url(#SVGID_00000044178809471932828400000011418970969981875901_);}
	.st31{clip-path:url(#SVGID_00000130633889309605715850000017974416815062702512_);fill:#CD8907;}
	.st32{clip-path:url(#SVGID_00000092454435786353419180000002963080336970926466_);fill:#F5C021;}
	.st33{fill:url(#SVGID_00000018959220987787963110000017056624294679097524_);}
	.st34{opacity:0.75;fill:#7C7C7C;enable-background:new    ;}
	.st35{opacity:0.25;fill:#7C7C7C;enable-background:new    ;}
	.st36{fill:url(#Aa_00000070835079349583016620000015139057609794736028_);}
	.st37{fill:url(#Aa_00000107566823619493264430000013421384244511527069_);}
	.st38{clip-path:url(#SVGID_00000125581890736098297490000009985785920223163530_);}
	.st39{fill:url(#Ab_00000132784768912823607060000003210409607796705686_);}
	.st40{clip-path:url(#SVGID_00000155126122784349217540000007345737753034139057_);}
	.st41{fill:url(#Ab_00000136406170412704445730000017311140400079117704_);}
	
		.st42{opacity:0.95;clip-path:url(#SVGID_00000093878424620733392190000003117741889547679416_);fill:#7C7C7C;enable-background:new    ;}
	.st43{clip-path:url(#SVGID_00000022534914121103854530000002267193561863646895_);}
	.st44{fill:url(#SVGID_00000070097896327122766340000013735836092364579209_);}
	.st45{fill:#D99A03;}
	.st46{fill:#F5BD0C;}
	.st47{fill:url(#SVGID_00000052820543499226865210000013245864901305052350_);}
	.st48{fill:#FFFFFF;}
</style>
<g transform="translate(160 -327.362)">
	<g>
		<path class="st0" d="M-121,370l2,4.2c1.3,2.7,2.2,5.6,2.6,8.6s0.2,6.1-0.7,8.9c-1.1,3.2-3.1,6.1-5.5,8.5
			c-2.9,2.8-6.6,4.9-10.7,5.1c-2.6,0.1-5.2-0.6-7.6-1.9c-2-1-3.7-2.4-5.2-4.1c-1.4-1.7-2.5-3.7-3-5.8c-0.6-2.6-0.3-5.5,0.6-8
			c0.7-1.8,1.6-3.5,2.3-5.4c0.8-2,1.2-4.1,2.2-6c0.9-1.7,2.3-3.2,3-4.9c0.4-1.1,0.6-2.2,0.9-3.3s0.7-2.2,1.4-3.1
			c0.9-1,2.3-1.6,3.7-1.8c1.4-0.2,2.8,0.1,4.1,0.4c1.1,0.2,2.1,0.6,3.2,0.9c0.9,0.3,1.8,0.7,2.5,1.2c1,0.7,1.8,1.8,2.5,2.9
			C-122,367.7-121.5,368.9-121,370L-121,370z"/>
		<path class="st0" d="M-132.6,405.4l3.3,0.3l2.9,0.6c1.5,0.4,3,0.8,4.5,0.9c0.4,0,0.8,0,1.2-0.1c0.4-0.1,0.8-0.3,1.1-0.5
			c0.5-0.4,0.8-0.9,0.9-1.5s0-1.2-0.1-1.8c-0.3-1.1-1.1-2.1-1.7-3.2l-1-1.8c-0.4-0.6-0.8-1.1-1.4-1.5c-0.8-0.5-1.8-0.7-2.7-0.6
			s-1.8,0.4-2.7,0.9c-1.2,0.6-2.3,1.4-2.9,2.6c-0.2,0.4-0.4,0.8-0.6,1.3s-0.4,0.8-0.7,1.2c-0.4,0.4-0.8,0.6-1.2,1
			c-0.2,0.2-0.3,0.4-0.4,0.6s-0.1,0.5,0,0.8c0.1,0.2,0.2,0.3,0.3,0.4s0.3,0.2,0.5,0.3C-133.3,405.4-132.9,405.4-132.6,405.4
			L-132.6,405.4z"/>
		<path class="st0" d="M-135.8,405.4c-0.9,0-1.8,0.2-2.7,0.4l-2.6,0.6c-1.4,0.4-2.9,0.8-4.4,0.9c-0.4,0-0.8,0-1.2-0.1
			s-0.8-0.2-1.1-0.5c-0.5-0.4-0.8-0.9-0.9-1.5c-0.1-0.6,0-1.2,0.1-1.8c0.3-1.1,1.1-2.1,1.7-3.2l1-1.8c0.4-0.6,0.8-1.1,1.4-1.5
			c0.8-0.5,1.7-0.7,2.7-0.6c0.9,0.1,1.8,0.4,2.6,0.9c1.1,0.6,2.2,1.5,2.9,2.6c0.5,0.8,0.7,1.7,1.3,2.4c0.3,0.4,0.7,0.7,0.9,1.2
			c0.1,0.2,0.2,0.5,0.2,0.7s0,0.5-0.2,0.7c-0.1,0.1-0.2,0.2-0.4,0.3c-0.1,0.1-0.3,0.1-0.5,0.2C-135.2,405.4-135.5,405.4-135.8,405.4
			L-135.8,405.4z M-141,367l-0.3-9.2c0.1-1.5,0.3-3.1,1-4.4c0.7-1.4,1.8-2.5,3.1-3.3c1.3-0.7,2.7-1,4.2-1c2,0,3.9,0.6,5.5,1.8
			c1,0.7,1.8,1.6,2.5,2.7c0.6,0.9,1,1.8,1.3,2.9c0.6,2.1,0.4,4.2,0.5,6.4c0.1,2,0.4,4,0.3,6.1c0,0.4-0.1,0.9-0.3,1.3
			c-0.2,0.4-0.5,0.7-0.9,0.9c-0.4,0.2-0.8,0.3-1.2,0.4c-0.8,0.1-1.7,0-2.6,0.1c-1.2,0.1-2.4,0.6-3.7,0.8c-1.5,0.2-3,0.1-4.4,0
			l-1.8-0.1c-0.6-0.1-1.2-0.2-1.7-0.5c-0.3-0.2-0.6-0.4-0.9-0.7c-0.2-0.3-0.4-0.6-0.5-1c-0.1-0.5-0.1-1.1-0.1-1.6
			C-140.9,368.1-140.9,367.6-141,367L-141,367z"/>
	</g>
	<path class="st1" d="M-138.7,366.4c0.1,1.3-0.2,2.7-0.7,3.9c-0.3,0.7-0.6,1.3-1,1.9c-0.7,1-1.4,2.1-1.8,3.3
		c-0.2,0.7-0.3,1.5-0.2,2.2c-0.8,1.2-1.5,2.5-2.1,3.8c-0.9,2-1.5,4.1-1.7,6.3c-0.3,2.7,0.1,5.4,1.1,7.9c0.8,1.8,1.9,3.4,3.4,4.7
		c0.7,0.6,1.6,1.2,2.4,1.6c3.1,1.5,6.8,1.5,9.8-0.1c1.6-0.8,2.9-2.1,4.2-3.3c0.8-0.7,1.5-1.5,2.1-2.4c1.1-1.7,1.5-3.8,1.8-5.9
		c0.4-3.6,0.4-7.4-1.1-10.6c-0.5-1.1-1.3-2.1-2.1-3c-0.2-1.6-0.7-3.1-1.3-4.5l-1.5-3.1c-0.4-0.9-0.7-1.8-1.3-2.4
		c-0.7-0.7-1.7-1-2.6-1.1c-1-0.1-1.9,0.1-2.9,0.2L-138.7,366.4L-138.7,366.4z"/>
	<path class="st2" d="M-139.1,370c0.3,1,1,1.8,1.8,2.5c0.3,0.2,0.6,0.4,0.9,0.6c0.3,0.1,0.7,0.2,1,0.2s0.7-0.2,1-0.3
		c0.3-0.2,0.6-0.4,0.9-0.6c0.5-0.3,1-0.6,1.5-0.8c0.6-0.3,1.2-0.7,1.7-1.2c0.2-0.2,0.5-0.5,0.7-0.6s0.6-0.3,0.9-0.3
		c0.2,0,0.5,0.1,0.7,0.2c0.1,0,0.2,0,0.4,0c0.1,0,0.2-0.1,0.3-0.2c0.1-0.1,0.1-0.3,0.1-0.4s-0.1-0.3-0.1-0.4
		c-0.1-0.3-0.3-0.5-0.4-0.8s-0.1-0.5-0.1-0.8s0-0.5-0.1-0.8c-0.1-0.2-0.2-0.3-0.4-0.4s-0.4-0.1-0.6-0.2c-0.4,0-0.8,0-1.2,0.1
		c-0.5,0-1.1,0-1.6,0c-0.7,0-1.3,0.2-2,0.2c-0.8,0-1.5-0.2-2.3-0.1c-0.3,0.1-0.6,0.2-0.9,0.3c-0.3,0.1-0.6,0.2-1,0.2
		s-0.7-0.1-1.1-0.2c-0.2,0-0.4,0-0.5,0.1c-0.2,0.1-0.3,0.2-0.4,0.4c0,0.1-0.1,0.2-0.1,0.3c0,0.1,0,0.2,0,0.3
		c0.1,0.2,0.1,0.4,0.2,0.6C-139.4,368.5-139.4,369.3-139.1,370L-139.1,370z"/>
	<path class="st3" d="M-140.1,367.2c0.7,0.4,1.3,0.9,1.8,1.5c0.5,0.5,0.9,1.1,1.5,1.5c0.4,0.3,0.9,0.4,1.5,0.5s1.2,0,1.8-0.2
		c0.5-0.1,1.1-0.4,1.6-0.6c0.9-0.5,1.7-1.3,2.7-1.6c0.2-0.1,0.5-0.1,0.7-0.2s0.4-0.2,0.5-0.4c0.1-0.2,0.1-0.4,0.1-0.6
		s0.1-0.4,0.2-0.7c0-0.2,0-0.5-0.1-0.7s-0.2-0.3-0.4-0.4s-0.4-0.1-0.6-0.1c-0.4,0-0.8,0.1-1.2,0.1c-0.5,0-1.1,0-1.6,0
		c-0.7,0-1.3,0.2-2,0.2c-0.8,0-1.5-0.1-2.3-0.1c-0.3,0-0.7,0-1,0s-0.6,0.2-0.9,0.3c-0.3,0.2-0.5,0.4-0.7,0.6
		c-0.1,0.1-0.3,0.2-0.4,0.2c-0.1,0.1-0.3,0.1-0.5,0.1c-0.1,0-0.2,0-0.2,0C-139.9,366.7-140.1,366.9-140.1,367.2L-140.1,367.2
		L-140.1,367.2z"/>
	
		<radialGradient id="SVGID_1_" cx="15032.1006" cy="7660.5767" r="23.37" gradientTransform="matrix(0.1021 -4.297940e-03 3.709150e-03 0.1563 -1701.2063 -771.6577)" gradientUnits="userSpaceOnUse">
		<stop  offset="0" style="stop-color:#FEFEFC"/>
		<stop  offset="0.757" style="stop-color:#FEFEFC"/>
		<stop  offset="1" style="stop-color:#D4D4D4"/>
	</radialGradient>
	<path class="st4" d="M-138.4,358.1c-0.4,0-0.7,0.2-1,0.4c-0.3,0.2-0.4,0.6-0.6,0.9c-0.2,0.7-0.2,1.4-0.1,2.1c0,0.6,0.1,1.3,0.3,1.9
		c0.1,0.3,0.3,0.6,0.5,0.8c0.2,0.2,0.5,0.4,0.8,0.5s0.6,0.1,0.9,0c0.3-0.1,0.6-0.3,0.8-0.5c0.3-0.3,0.5-0.7,0.7-1.1
		c0.1-0.4,0.2-0.9,0.2-1.3c0-0.6-0.1-1.1-0.3-1.6s-0.4-1-0.8-1.4c-0.2-0.2-0.4-0.4-0.6-0.5S-138.1,358.1-138.4,358.1L-138.4,358.1z"
		/>
	
		<radialGradient id="SVGID_00000154422456323417222030000011695811937458933652_" cx="10781.667" cy="7543.707" r="23.37" gradientTransform="matrix(0.136 -4.297940e-03 4.940030e-03 0.1563 -1634.1228 -771.6577)" gradientUnits="userSpaceOnUse">
		<stop  offset="0" style="stop-color:#FEFEFC"/>
		<stop  offset="0.757" style="stop-color:#FEFEFC"/>
		<stop  offset="1" style="stop-color:#D4D4D4"/>
	</radialGradient>
	<path style="fill:url(#SVGID_00000154422456323417222030000011695811937458933652_);" d="M-132,358.1c-0.6,0.3-1,0.9-1.3,1.6
		c-0.3,0.8-0.2,1.7,0.1,2.5s0.8,1.6,1.5,2.1c0.4,0.3,0.8,0.4,1.2,0.5s0.9,0,1.3-0.2c0.5-0.2,0.8-0.7,1.1-1.2c0.2-0.5,0.3-1,0.4-1.5
		c0-0.7,0-1.4-0.3-2c-0.2-0.7-0.7-1.3-1.3-1.7c-0.3-0.2-0.7-0.3-1-0.4c-0.4-0.1-0.7,0-1.1,0.1C-131.7,357.9-131.8,358-132,358.1
		L-132,358.1z"/>
	<path class="st3" d="M-138.5,363.9l-1,0.9c-0.2,0.2-0.4,0.4-0.4,0.6c-0.1,0.2-0.1,0.5-0.1,0.7c0,0.1,0,0.2,0,0.2v0.1
		c0,0,0,0.1,0.1,0.1c0,0,0.1,0.1,0.2,0.1c0.1,0,0.1,0,0.2,0c0.3,0,0.6,0.2,0.8,0.3l0.7,0.5c0.5,0.3,1.2,0.5,1.9,0.5
		c0.6,0,1.3-0.1,1.9-0.2c0.5-0.1,1-0.2,1.5-0.4c0.7-0.3,1.4-0.7,2-1.2c0.3-0.2,0.6-0.4,0.8-0.7c0.1-0.1,0.2-0.2,0.3-0.3
		c0.1-0.1,0.2-0.1,0.3-0.2c0.2-0.1,0.4,0,0.6,0c0.1,0,0.3,0.1,0.4,0c0.1,0,0.1,0,0.2,0c0.1,0,0.1-0.1,0.2-0.1
		c0.1-0.1,0.1-0.2,0.1-0.3c0-0.1,0-0.2-0.1-0.3c-0.1-0.2-0.3-0.3-0.4-0.3c-0.2-0.1-0.5-0.2-0.7-0.2c-0.8-0.2-1.5-0.4-2.2-0.8
		c-0.3-0.2-0.7-0.4-1-0.5c-0.3-0.2-0.7-0.4-1.1-0.5c-0.8-0.3-1.8-0.2-2.6,0.1C-137,362.6-137.8,363.1-138.5,363.9L-138.5,363.9z"/>
	
		<radialGradient id="SVGID_00000039833683961990180120000013576831494198835637_" cx="5316.0776" cy="19762.0215" r="24.669" gradientTransform="matrix(8.741297e-02 -6.352916e-02 5.766287e-02 7.934124e-02 -1739.5061 -867.0303)" gradientUnits="userSpaceOnUse">
		<stop  offset="0" style="stop-color:#020204"/>
		<stop  offset="0.734" style="stop-color:#020204"/>
		<stop  offset="1" style="stop-color:#5C5C5C"/>
	</radialGradient>
	<path style="fill:url(#SVGID_00000039833683961990180120000013576831494198835637_);" d="M-136.7,362.8c0.4-0.4,0.6-0.9,0.9-1.3
		c0.2-0.2,0.4-0.4,0.6-0.5c0.2-0.1,0.5-0.2,0.8-0.2s0.6,0.2,0.8,0.4c0.2,0.2,0.4,0.5,0.5,0.7c0.1,0.3,0.2,0.5,0.4,0.8
		c0.2,0.2,0.5,0.4,0.7,0.6c0.1,0.1,0.2,0.2,0.3,0.3c0.1,0.1,0.2,0.3,0.2,0.4s0,0.3,0,0.5c-0.1,0.1-0.1,0.3-0.3,0.4
		c-0.2,0.2-0.5,0.3-0.8,0.4c-0.6,0.1-1.2-0.1-1.8-0.1s-1.2,0.2-1.9,0.2c-0.3,0-0.6-0.1-0.9-0.3c-0.1-0.1-0.2-0.2-0.3-0.3
		c-0.1-0.1-0.1-0.3-0.1-0.4s0-0.3,0.1-0.4s0.1-0.3,0.2-0.4C-137.1,363.2-136.9,363-136.7,362.8L-136.7,362.8z"/>
	<path class="st7" d="M-129.7,351.8c-0.5,0.4-0.3,0.8-0.1,1.3s-0.5,1.8-0.5,1.8c0,0.1,1.4-0.7,1.8-1.1c0.5-0.6,1.6,0.7,1.5,0.6
		C-127,353.9-129.2,351.4-129.7,351.8L-129.7,351.8z"/>
	<g transform="matrix(.125261 0 0 .125261 -170.86783 328.54818)">
		<path class="st0" d="M320.4,249.3c-1.7,0.1-3.3,0.7-4.7,1.6c-1.4,0.9-2.6,2.1-3.6,3.5c-1.9,2.8-2.7,6.2-2.9,9.5
			c-0.1,2.5,0.2,5.1,1,7.5s2.2,4.6,4.2,6.2s4.5,2.6,7.1,2.8c2.6,0.1,5.2-0.6,7.3-2.1c1.7-1.2,3.1-2.8,4-4.6s1.6-3.8,1.8-5.9
			c0.5-3.6-0.1-7.4-1.7-10.6c-1.7-3.2-4.5-5.9-7.9-7.1C323.6,249.5,322,249.2,320.4,249.3L320.4,249.3z"/>
		<path class="st8" d="M324.4,260.3c-1.4,0.5-3.6,0.2-4.2,1.6c-0.4,0.8,0.1,2.1,1,2.5c1.7,0.7,4.2-0.5,4.9-2.2
			c0.3-0.7-0.1-1.9-0.9-2.2C325,259.9,324.7,260.2,324.4,260.3L324.4,260.3z"/>
		
			<linearGradient id="SVGID_00000003826655782225401580000008000144433814310808_" gradientUnits="userSpaceOnUse" x1="849721.125" y1="533114.4375" x2="849731.875" y2="533127.1875" gradientTransform="matrix(1.569520e-02 0 0 1.569520e-02 -13013.2617 -8113.0981)">
			<stop  offset="0" style="stop-color:#949494;stop-opacity:0.392"/>
			<stop  offset="0.5" style="stop-color:#949494"/>
			<stop  offset="1" style="stop-color:#949494;stop-opacity:0.392"/>
		</linearGradient>
		<path style="fill:url(#SVGID_00000003826655782225401580000008000144433814310808_);" d="M330.8,263.9c1.9-1.9-1.3-6.8-3.8-8.8
			c-1.8-1.5-7-3-6.8-1.4s2.6,3.6,4.2,5.2C326.3,260.8,329.9,264.8,330.8,263.9z"/>
	</g>
	<g>
		<g>
			<defs>
				<path id="SVGID_00000116941883443623271030000015001486600753673859_" d="M-132,358.1c-0.5,0.4-1,0.9-1.3,1.6
					c-0.3,0.8-0.3,1.8,0.1,2.5c0.8,1.3,2.5,2.8,4,2.4c1-0.3,1.2-1.7,1.4-2.7c0.1-0.7,0.1-1.4-0.3-2c-0.7-1.1-2.1-2-3.4-2
					C-131.7,357.8-131.9,358-132,358.1z"/>
			</defs>
			<clipPath id="SVGID_00000122707511583203220440000011869539470612172970_">
				<use xlink:href="#SVGID_00000116941883443623271030000015001486600753673859_"  style="overflow:visible;"/>
			</clipPath>
			
				<linearGradient id="SVGID_00000101063349606338125260000003055794831428973485_" gradientUnits="userSpaceOnUse" x1="12017.1299" y1="8913.2275" x2="12051.4102" y2="8933.2744" gradientTransform="matrix(0.1253 0 0 0.1253 -1636.9818 -759.4902)">
				<stop  offset="0" style="stop-color:#747474"/>
				<stop  offset="0.125" style="stop-color:#8C8C8C"/>
				<stop  offset="0.25" style="stop-color:#A4A4A4"/>
				<stop  offset="0.5" style="stop-color:#D4D4D4"/>
				<stop  offset="0.619" style="stop-color:#D4D4D4"/>
				<stop  offset="1" style="stop-color:#7C7C7C"/>
			</linearGradient>
			
				<path style="clip-path:url(#SVGID_00000122707511583203220440000011869539470612172970_);fill:url(#SVGID_00000101063349606338125260000003055794831428973485_);" d="
				M-134.1,360.1c0.5-0.4,1-0.7,1.6-0.9c1.2-0.4,2.6-0.2,3.7,0.5c0.4,0.2,0.7,0.5,1.1,0.8c0.3,0.3,0.7,0.5,1.1,0.7
				c0.2,0.1,0.5,0.1,0.7,0.1s0.4-0.1,0.6-0.2s0.3-0.3,0.4-0.5c0.2-0.4,0.3-0.8,0.3-1.2c-0.1-0.9-0.6-1.6-1-2.4
				c-0.1-0.2-0.2-0.5-0.4-0.7c-0.5-0.7-1.2-1.1-2-1.4c-0.8-0.3-1.6-0.4-2.4-0.5c-0.4,0-0.7-0.1-1.1-0.1c-0.4,0.1-0.8,0.2-1.2,0.3
				c-0.2,0.1-0.4,0.1-0.6,0.1c-0.2,0.1-0.4,0.1-0.5,0.3c-0.2,0.2-0.4,0.5-0.4,0.7c-0.1,0.3,0,0.6,0,0.9c0.1,0.6,0.3,1.1,0.3,1.7
				c0,0.4-0.1,0.8-0.1,1.2c0,0.1,0,0.2,0.1,0.4"/>
		</g>
	</g>
	<g transform="matrix(.125261 0 0 .125261 -134.66734 329.67553)">
		
			<linearGradient id="SVGID_00000090267103930907913160000011043285211469086629_" gradientUnits="userSpaceOnUse" x1="828942.375" y1="530661" x2="828965.1875" y2="530682.5625" gradientTransform="matrix(1.569520e-02 0 0 1.569520e-02 -12972.5254 -8114.0845)">
			<stop  offset="0" style="stop-color:#646464;stop-opacity:0"/>
			<stop  offset="0.306" style="stop-color:#646464;stop-opacity:0.583"/>
			<stop  offset="0.47" style="stop-color:#646464"/>
			<stop  offset="0.728" style="stop-color:#646464;stop-opacity:0.257"/>
			<stop  offset="1" style="stop-color:#646464;stop-opacity:0"/>
		</linearGradient>
		<path style="fill:url(#SVGID_00000090267103930907913160000011043285211469086629_);" d="M36.6,213.7c-0.8,1-1.5,2-2,3.2
			c3.4,0.7,6.7,2.2,9.7,4.1c5.7,3.8,10,9.3,13,15.4c0.7-0.8,1.4-1.6,1.9-2.6c-3-6.4-7.4-12.2-13.3-16.1
			C43.1,215.9,39.9,214.4,36.6,213.7L36.6,213.7z"/>
		
			<linearGradient id="SVGID_00000118391862491930046060000016693193334727893124_" gradientUnits="userSpaceOnUse" x1="824766.8125" y1="530729.0625" x2="824788.3125" y2="530749.75" gradientTransform="matrix(1.569520e-02 0 0 1.569520e-02 -12972.5254 -8114.0845)">
			<stop  offset="0" style="stop-color:#646464;stop-opacity:0"/>
			<stop  offset="0.306" style="stop-color:#646464;stop-opacity:0.583"/>
			<stop  offset="0.47" style="stop-color:#646464"/>
			<stop  offset="0.728" style="stop-color:#646464;stop-opacity:0.257"/>
			<stop  offset="1" style="stop-color:#646464;stop-opacity:0"/>
		</linearGradient>
		<path style="fill:url(#SVGID_00000118391862491930046060000016693193334727893124_);" d="M-29.7,216.8c-0.4,0-0.8,0-1.2,0h-0.8
			c2.3,0.2,4.5,0.8,6.6,1.7c2.8,1.3,5.3,3,7.4,5.1c4,3.8,7,8.4,9,13.3c-0.5-3.7-1.6-7.3-3.3-10.7c-0.8-0.9-1.6-1.8-2.5-2.6
			c-2.2-2-4.6-3.8-7.4-5.1C-24.3,217.5-27,216.9-29.7,216.8L-29.7,216.8z"/>
	</g>
	<path class="st0" d="M-139.2,361.1c-0.1,0.4-0.1,0.9,0.1,1.4c0.1,0.3,0.3,0.5,0.5,0.8c0.1,0.2,0.3,0.3,0.5,0.4s0.4,0.1,0.6,0.1
		c0.2,0,0.3-0.2,0.4-0.3c0.1-0.1,0.2-0.3,0.2-0.5c0.2-0.5,0.1-1.1,0-1.6c-0.1-0.4-0.3-0.7-0.6-1c-0.1-0.1-0.3-0.2-0.5-0.3
		c-0.2,0-0.4,0-0.6,0c-0.2,0.1-0.3,0.2-0.4,0.4C-139.1,360.7-139.2,360.9-139.2,361.1L-139.2,361.1z"/>
	
		<linearGradient id="SVGID_00000153693396420986068220000010090520266709485458_" gradientUnits="userSpaceOnUse" x1="12070.6162" y1="8936.6826" x2="12079.9707" y2="8953.4102" gradientTransform="matrix(0.1253 0 0 0.1253 -1650.7605 -759.4902)">
		<stop  offset="0" style="stop-color:#757574;stop-opacity:0"/>
		<stop  offset="0.263" style="stop-color:#757574"/>
		<stop  offset="0.5" style="stop-color:#757574"/>
		<stop  offset="1" style="stop-color:#757574;stop-opacity:0"/>
	</linearGradient>
	<path style="fill:url(#SVGID_00000153693396420986068220000010090520266709485458_);" d="M-138.3,360.7c0,0.1,0.2,0.2,0.3,0.3
		c0.1,0.1,0.2,0.2,0.2,0.3c0.1,0.2-0.1,0.6,0.1,0.8c0.1,0.1,0.2,0.1,0.2,0c0.2-0.2,0.2-0.6,0.1-0.9c-0.1-0.3-0.3-0.5-0.5-0.7
		c-0.1-0.1-0.3-0.1-0.4,0C-138.3,360.5-138.3,360.7-138.3,360.7z"/>
	<g transform="matrix(.125261 0 0 .125261 -144.56297 328.54818)">
		
			<radialGradient id="SVGID_00000046301260947166759570000012468280087519072678_" cx="557314.0625" cy="1185223.875" r="49.8945" gradientTransform="matrix(1.469311e-02 -6.062802e-03 4.257279e-03 1.031461e-02 -13136.7373 -8550.1973)" gradientUnits="userSpaceOnUse">
			<stop  offset="0" style="stop-color:#D2940A"/>
			<stop  offset="0.751" style="stop-color:#D89C08"/>
			<stop  offset="0.866" style="stop-color:#B67E07"/>
			<stop  offset="1" style="stop-color:#946106"/>
		</radialGradient>
		<path style="fill:url(#SVGID_00000046301260947166759570000012468280087519072678_);" d="M36,304.3c0.1,0.5,0.3,0.9,0.5,1.3
			c0.4,0.7,1,1.3,1.7,1.8s1.4,0.9,2.1,1.3c3.7,2.4,6.8,5.7,9.5,9.2c3.6,4.7,6.9,9.9,11.7,13.3c3.4,2.4,7.5,3.8,11.7,4.2
			c4.9,0.5,9.8-0.3,14.6-1.7c4.4-1.3,8.6-3.1,12.5-5.5c7.4-4.5,13.5-11.2,21.7-14.2c1.8-0.7,3.6-1.1,5.3-1.9s3.3-2,4.1-3.7
			c0.8-1.6,0.8-3.5,1-5.3c0.3-1.9,0.9-3.8,1.2-5.7s0.4-4-0.4-5.7c-0.7-1.5-1.9-2.6-3.4-3.3c-1.4-0.7-3-1.1-4.7-1.1
			c-3.2-0.2-6.4,0.7-9.6,1c-4.2,0.4-8.5-0.2-12.8,0c-5.3,0.2-10.5,1.4-15.8,1.6c-6,0.3-12.1-0.6-18.1-0.9c-2.6-0.1-5.3-0.1-7.8,0.4
			s-5.1,1.3-7.3,2.8c-2.1,1.5-3.8,3.4-5.7,5.1c-1,0.8-2,1.6-3.2,2.2c-1.1,0.6-2.4,0.9-3.7,0.9c-0.6,0-1.3-0.1-2,0.1
			c-0.4,0.1-0.7,0.4-1,0.7c-0.3,0.3-0.5,0.6-0.8,1C36.8,302.6,36.4,303.4,36,304.3L36,304.3z"/>
		<path class="st15" d="M59.7,310.8c-1.2,5.4,1.8,10.8,7,12.6c3.2,1.1,6.7,0.5,9.7-1c1.7-0.9,3.3-2.2,4.3-3.8c0.5-0.8,0.8-1.8,1-2.7
			c0.1-1,0-2-0.3-2.9c-0.4-1-1-1.9-1.8-2.6s-1.8-1.2-2.8-1.5c-2-0.7-4.2-0.7-6.3-0.6c-3.2,0.2-6.4,0.6-9.6,1.2"/>
		<path class="st16" d="M49.3,290.9L43,295c-1.1,0.7-2.1,1.6-2.7,2.7c-0.4,0.8-0.5,1.8-0.5,2.7c0,0.9,0,1.8-0.1,2.7
			c-0.1,0.6-0.2,1.2-0.3,1.9c0,0.3,0,0.6,0.1,0.9s0.2,0.6,0.4,0.8c0.3,0.3,0.7,0.5,1,0.6s0.8,0.2,1.2,0.3c1.9,0.4,3.5,1.6,5,2.9
			l4.2,4c4.1,3.3,9.5,4.7,14.7,4.8c5.2,0.1,10.4-1,15.5-2.2l11.9-3.3c5.9-2.2,11.5-5.5,16.2-9.7c2.2-1.9,4.2-4,6.6-5.5
			c2.1-1.4,4.6-2.2,6.7-3.5c0.2-0.1,0.4-0.2,0.6-0.4c0.2-0.1,0.3-0.3,0.4-0.5c0.2-0.4,0.2-0.8,0.1-1.1c-0.1-0.4-0.3-0.7-0.6-1
			c-0.3-0.3-0.6-0.6-0.9-0.9c-2.3-2-5.4-2.7-8.4-2.9s-6-0.1-9-0.6c-2.8-0.5-5.4-1.5-8.1-2.4c-2.8-0.9-5.7-1.6-8.6-2.1
			c-6.9-1.1-14-0.9-20.8,0.5C61.4,285.1,55.1,287.5,49.3,290.9L49.3,290.9z"/>
		
			<linearGradient id="SVGID_00000107581265719401938710000010767160292759245702_" gradientUnits="userSpaceOnUse" x1="829764.6875" y1="535585.5625" x2="829855.25" y2="535584.875" gradientTransform="matrix(1.569520e-02 0 0 1.569520e-02 -12983.6611 -8113.0981)">
			<stop  offset="0" style="stop-color:#AD780A"/>
			<stop  offset="0.12" style="stop-color:#D89E08"/>
			<stop  offset="0.255" style="stop-color:#EDB80B"/>
			<stop  offset="0.392" style="stop-color:#EBC80D"/>
			<stop  offset="0.527" style="stop-color:#F5D838"/>
			<stop  offset="0.769" style="stop-color:#F6D811"/>
			<stop  offset="1" style="stop-color:#F5CD31"/>
		</linearGradient>
		<path style="fill:url(#SVGID_00000107581265719401938710000010767160292759245702_);" d="M48.6,283.7c-3.1,2.1-5.9,4.6-8.2,7.5
			c-1.3,1.7-2.6,3.4-3.3,5.5c-0.5,1.6-0.7,3.3-1.1,4.9c-0.1,0.6-0.3,1.2-0.3,1.9c0,0.3,0,0.6,0.1,0.9s0.3,0.6,0.5,0.8
			c0.4,0.4,0.9,0.6,1.4,0.7s1,0.1,1.5,0.2c2.3,0.3,4.5,1.4,6.4,2.7l5.7,4.1c4.4,2.8,9.6,4,14.8,4.2c5.2,0.2,10.4-0.6,15.4-1.6
			c4-0.8,8.1-1.8,11.9-3.3c5.9-2.3,11.2-5.9,16.2-9.7c2.3-1.7,4.6-3.5,6.6-5.5c0.7-0.7,1.4-1.4,2.1-2s1.6-1.2,2.5-1.5
			c1.4-0.5,2.9-0.3,4.4-0.1c1.1,0.2,2.2,0.4,3.3,0.4c0.6,0,1.1-0.1,1.6-0.3c0.5-0.2,1-0.5,1.4-1c0.5-0.6,0.7-1.3,0.7-2
			s-0.2-1.5-0.6-2.1c-0.7-1.3-2-2.1-3.4-2.7c-1.8-0.8-3.8-1.2-5.8-1.7c-6-1.4-11.8-3.6-17.4-6.3c-2.8-1.4-5.4-2.9-8.1-4.3
			c-2.8-1.5-5.6-2.9-8.6-3.8c-6.8-2-14.1-1.4-20.8,0.9C60.4,273.1,53.7,277.7,48.6,283.7L48.6,283.7z"/>
		<path class="st18" d="M96.1,285.1c-0.4-0.5-0.9-0.8-1.4-0.9c-0.6-0.2-1.2-0.2-1.7-0.1c-1.2,0.2-2.2,0.8-3.2,1.5
			c-2.7,1.9-5.2,4.2-7.3,6.8c-2.8,3.4-5.1,7.3-5.9,11.7c-0.1,0.7-0.2,1.5-0.1,2.2s0.4,1.5,0.9,2s1.1,0.7,1.7,0.8s1.3,0,1.9-0.2
			c1.2-0.4,2.3-1.3,3.2-2.1c5.4-4.8,10.2-10.5,12.1-17.4c0.2-0.7,0.4-1.4,0.4-2.1C96.7,286.5,96.6,285.7,96.1,285.1L96.1,285.1z"/>
		
			<radialGradient id="SVGID_00000097462565994990553330000002355372372125530028_" cx="832915.125" cy="935919.25" r="5.1801" gradientTransform="matrix(1.569520e-02 0 0 9.152577e-03 -12983.6611 -8290.3232)" gradientUnits="userSpaceOnUse">
			<stop  offset="0" style="stop-color:#3A2903"/>
			<stop  offset="0.555" style="stop-color:#735208"/>
			<stop  offset="1" style="stop-color:#AC8C04"/>
		</radialGradient>
		<path style="opacity:0.8;fill:url(#SVGID_00000097462565994990553330000002355372372125530028_);enable-background:new    ;" d="
			M83.3,275.2c0.4,1.2,2.3,1,3.4,1.6c1,0.5,1.8,1.6,2.8,1.6s2.7-0.4,2.8-1.4c0.2-1.4-1.8-2.2-3.1-2.7c-1.7-0.6-3.8-1-5.3-0.1
			C83.6,274.4,83.2,274.8,83.3,275.2L83.3,275.2z"/>
		
			<radialGradient id="SVGID_00000180350558406660600770000003802390664901403045_" cx="831428.375" cy="495363.3125" r="2.4618" gradientTransform="matrix(1.569520e-02 0 0 1.687266e-02 -12983.6611 -8081.1587)" gradientUnits="userSpaceOnUse">
			<stop  offset="0" style="stop-color:#3A2903"/>
			<stop  offset="0.555" style="stop-color:#735208"/>
			<stop  offset="1" style="stop-color:#AC8C04"/>
		</radialGradient>
		<path style="opacity:0.8;fill:url(#SVGID_00000180350558406660600770000003802390664901403045_);enable-background:new    ;" d="
			M65,274.5c-1.4-0.5-3.8,2-3,3.3c0.2,0.4,0.9,0.8,1.3,0.6c0.7-0.4,1.2-1.7,1.9-2.2C65.6,276,65.5,274.7,65,274.5L65,274.5z"/>
		
			<linearGradient id="SVGID_00000043443741833930616290000011843605028911006381_" gradientUnits="userSpaceOnUse" x1="824387.25" y1="343718.25" x2="824387.9375" y2="343722.6562" gradientTransform="matrix(1.718581e-02 0 -2.670162e-03 2.382464e-02 -13121.5342 -7898.4336)">
			<stop  offset="0" style="stop-color:#F5CE2D"/>
			<stop  offset="1" style="stop-color:#D79B08"/>
		</linearGradient>
		<path style="fill:url(#SVGID_00000043443741833930616290000011843605028911006381_);" d="M129.1,287.7c2.5,0,4.3,2.5,3.9,5.7
			s-2.7,5.7-5.2,5.7c-2.5,0-4.3-2.5-3.9-5.7S126.5,287.7,129.1,287.7z"/>
		<g>
			<g>
				<defs>
					<path id="SVGID_00000032630036281152712070000016886939091434234514_" d="M49.6,235.9c-6.1,7.7-13.7,18.7-13.1,27.7
						c0.5,8.9,6.2,22.3,13.4,25.7s9.2,0,13.4-4s6.2-11.8,6.4-19.6c0.2-7.9-4.9-19.1-8.7-24.5C57.1,235.8,55.7,228.2,49.6,235.9
						L49.6,235.9z"/>
				</defs>
				<clipPath id="SVGID_00000152260590517616149460000015595883224441911480_">
					<use xlink:href="#SVGID_00000032630036281152712070000016886939091434234514_"  style="overflow:visible;"/>
				</clipPath>
				
					<radialGradient id="SVGID_00000175298854960273838110000013299976321884187524_" cx="40.3429" cy="239.5176" r="5.48" gradientTransform="matrix(3.160210e-03 -5.203034e-04 4.809091e-04 2.920938e-03 -13770.3301 -8498.46)" gradientUnits="userSpaceOnUse">
					<stop  offset="0" style="stop-color:#C8C8C8"/>
					<stop  offset="1" style="stop-color:#797978"/>
				</radialGradient>
				
					<path style="clip-path:url(#SVGID_00000152260590517616149460000015595883224441911480_);fill:url(#SVGID_00000175298854960273838110000013299976321884187524_);" d="
					M43.4,247.4c4.3-2.6,9.6-3.2,14.5-2.7c5,0.5,9.8,1.9,14.7,3.3c3.5,1,7.1,1.9,10.5,3.4c3.3,1.6,6.4,3.9,8.2,7.1l0.9,1.5
					c0.3,0.5,0.7,1,1.1,1.3c0.5,0.4,1.1,0.6,1.6,0.6c0.3,0,0.6-0.1,0.8-0.2c0.3-0.2,0.5-0.4,0.6-0.6c0.2-0.3,0.2-0.6,0.2-1
					c0-0.3-0.1-0.7-0.2-1c-1.2-4.4-4.1-8.2-6.2-12.2l-3.7-7.4c-4.5-8.3-11.9-14.8-20.4-19c-8.5-4.2-17.8-6.2-27.3-6.8
					c-10.9-0.6-21.8,0.7-32.6,2.5c-4.7,0.8-9.4,1.8-13.5,4.1c-2.1,1.2-4,2.7-5.4,4.5s-2.5,4.1-2.9,6.4c-0.3,2.3,0,4.6,0.8,6.7
					c0.8,2.1,2,4.1,3.5,5.9c2.9,3.5,6.6,6.3,10,9.3S5.2,259.5,9,262c1.9,1.3,4,2.3,6.2,2.9s4.5,0.8,6.8,0.3s4.5-1.6,6.3-3.1
					c1.9-1.4,3.5-3.2,5-5C36.5,253.7,39.4,249.8,43.4,247.4L43.4,247.4z"/>
			</g>
		</g>
	</g>
	<path class="st0" d="M-120.1,378.8c1.2,1,2,2.5,2.2,4c0.2,1.2,0.1,2.5-0.2,3.6s-0.7,2.3-1.1,3.5c-0.2,0.5-0.3,0.9-0.4,1.4
		s0,1,0.2,1.4c0.3,0.5,0.8,0.8,1.3,1s1.1,0.2,1.6,0c0.5-0.1,1-0.4,1.5-0.7c1.1-0.9,1.8-2.2,2-3.6s0.1-2.8-0.1-4.2
		c-0.3-1.9-0.9-3.7-1.6-5.5c-0.5-1.3-1.1-2.6-2-3.7c-0.8-1.1-1.9-2-2.7-3.1c-0.6-0.8-1-1.6-1.7-2.3c-0.3-0.3-0.7-0.6-1.2-0.8
		c-0.4-0.2-0.9-0.2-1.4-0.1c-0.6,0.2-1.1,0.6-1.4,1.2s-0.3,1.2-0.2,1.9c0.1,0.8,0.5,1.5,0.9,2.2c0.5,0.8,1,1.6,1.7,2.1
		C-121.7,377.8-120.8,378.2-120.1,378.8L-120.1,378.8z"/>
	<g>
		<g>
			<defs>
				<path id="SVGID_00000165916276913957163740000017517582271100642708_" d="M-120.1,378.8c1.2,1,2,2.5,2.2,4
					c0.4,2.4-0.5,4.8-1.3,7.1c-0.2,0.5-0.3,0.9-0.4,1.4s0,1,0.2,1.4c0.3,0.5,0.8,0.8,1.3,1s1.1,0.2,1.6,0c0.5-0.1,1-0.4,1.5-0.7
					c1.1-0.9,1.8-2.2,2-3.6c0.3-1.4,0.1-2.8-0.1-4.2c-0.3-1.9-0.9-3.7-1.6-5.5c-0.5-1.3-1.1-2.6-2-3.7c-0.8-1.1-1.9-2-2.7-3.1
					c-0.6-0.8-1-1.6-1.7-2.3c-0.3-0.3-0.7-0.6-1.2-0.8s-1-0.2-1.4-0.1c-0.3,0.1-0.6,0.2-0.8,0.5c-0.2,0.2-0.4,0.5-0.6,0.8
					c-0.3,0.6-0.3,1.2-0.2,1.8c0.1,0.8,0.5,1.5,0.9,2.2c0.5,0.8,1,1.6,1.7,2.1C-121.7,377.8-120.8,378.2-120.1,378.8"/>
			</defs>
			<clipPath id="SVGID_00000056393108037573699110000000998442319657723776_">
				<use xlink:href="#SVGID_00000165916276913957163740000017517582271100642708_"  style="overflow:visible;"/>
			</clipPath>
			<path style="clip-path:url(#SVGID_00000056393108037573699110000000998442319657723776_);fill:#838384;" d="M-123,376.9l0.3,0.3
				c0.7,0.6,1.1,1.3,1.9,1.9c1.2,1,2.5,2.7,2.8,4.2c0.2,1.2-0.1,1.9-0.4,3.3s-1.2,3.4-1.7,4.8c-0.2,0.5,0.4,0.3,0.3,0.9
				c0,0.3,0,0.6,0,0.9V393c0.1-0.8,0.3-1.5,0.6-2.3c0.5-1.4,1.1-2.8,1.5-4.3s0.4-2.5,0.1-3.8c-0.3-1.6-1.2-3.1-2.5-4
				C-120.9,377.9-122,377.5-123,376.9L-123,376.9z"/>
		</g>
	</g>
	
		<radialGradient id="SVGID_00000070092663847370302490000006668332932943480508_" cx="-19057.3887" cy="11823.8359" r="43.9286" gradientTransform="matrix(-0.101 0 0 9.561900e-02 -2068.4568 -753.1612)" gradientUnits="userSpaceOnUse">
		<stop  offset="0" style="stop-color:#000000"/>
		<stop  offset="1" style="stop-color:#000000;stop-opacity:0.25"/>
	</radialGradient>
	<path style="opacity:0.25;fill:url(#SVGID_00000070092663847370302490000006668332932943480508_);enable-background:new    ;" d="
		M-142,376c0.2,0.3-0.1,1.4,4.6,0.7c0,0-0.8,0.1-1.7,0.3c-1.3,0.4-2.4,0.9-3.3,1.5c-0.9,0.6-1.5,1.4-2.3,2.1c0,0,1.3-2.3,1.6-3
		s-0.1-0.7,0.2-1.7c0.2-1,0.9-2,0.9-2S-142.4,375.4-142,376L-142,376z"/>
	<g transform="matrix(.125261 0 0 .125261 -134.66734 329.67553)">
		
			<radialGradient id="SVGID_00000062879408048310038570000011729963110957585547_" cx="848091.0625" cy="718749.9375" r="43.9286" gradientTransform="matrix(1.569520e-02 0 0 1.197733e-02 -13261.5254 -8208.1514)" gradientUnits="userSpaceOnUse">
			<stop  offset="0" style="stop-color:#000000"/>
			<stop  offset="1" style="stop-color:#000000;stop-opacity:0.25"/>
		</radialGradient>
		<path style="opacity:0.42;fill:url(#SVGID_00000062879408048310038570000011729963110957585547_);enable-background:new    ;" d="
			M63.3,367.8c-7.7,5.4-12.3,4.8-21.7,5.8c-9.4,1.1-34.8,0.7-34.8,0.7s3.7-0.1,11.8,1.4s24.8,3,34.1,6.5c9.4,3.6,12.8,4.6,18.5,8.2
			c8.1,5.1,14,13.1,21.8,18.8c0,0,0.4-7.4-2.8-13c-3.1-5.6-11.5-14.3-14-22.5s-3.6-24.3-3.6-24.3S71.1,362.4,63.3,367.8L63.3,367.8z
			"/>
		
			<radialGradient id="SVGID_00000091712404719466107360000000504598322417086080_" cx="844351" cy="506197.3125" r="17.3928" gradientTransform="matrix(1.569520e-02 0 0 1.677245e-02 -13261.5254 -8098.3081)" gradientUnits="userSpaceOnUse">
			<stop  offset="0" style="stop-color:#000000"/>
			<stop  offset="1" style="stop-color:#000000;stop-opacity:0.25"/>
		</radialGradient>
		<path style="opacity:0.2;fill:url(#SVGID_00000091712404719466107360000000504598322417086080_);enable-background:new    ;" d="
			M-9.5,356.3l-1.1,7c-0.2,1.1-0.5,2.3-0.9,3.4s-1,2.1-1.9,2.9c-0.8,0.7-1.7,1.1-2.6,1.6c-3.6,1.7-7.5,2.7-11.4,3.2l4.7,0.4
			c1,0.1,2,0.2,2.9,0.5c1,0.2,1.9,0.6,2.7,1.2c0.9,0.6,1.6,1.5,2.1,2.5c1,1.9,1.4,4.1,1.6,6.3c0.2,2.8,0.3,5.5,0.1,8.3
			c0.2-1.9,0.6-3.7,1.2-5.4c1-3.2,2.7-6.2,5-8.6c0.9-1,1.9-1.9,3-2.6c3.4-2.4,7.5-3.4,11.6-2.8c-4.1,0.2-8.2-1.1-11.5-3.6
			c-1.7-1.3-3.1-2.8-4.1-4.7C-9.8,362.8-10.2,359.4-9.5,356.3L-9.5,356.3z"/>
		<path class="st27" d="M-19.4,410.9c-2,7.5-3.3,15.2-4.1,22.9c-1,10.9-0.8,21.9-1.4,32.9c-0.5,9.3-1.6,18.7,0,27.9
			c0.8,4.4,2.2,8.6,4.1,12.6c0.3-1.5,0.5-3.1,0.7-4.6c0.7-7.4-0.6-14.9-1-22.3c-0.7-13.1,1.1-26.1,1.8-39.2
			C-18.6,431-18.7,420.9-19.4,410.9L-19.4,410.9z"/>
		<path class="st28" d="M70.8,298.3c-3.5,3.2,1.6,7.9,4,13.5c1.5,3.5,5.7,8.3,9.7,7.6c3-0.6,4.9-4.9,4.6-8c-0.6-5.9-5.5-7.3-9.2-9.3
			C77,300.3,73.2,296,70.8,298.3L70.8,298.3z"/>
	</g>
	<g transform="matrix(.125261 0 0 .125261 -132.03685 328.54818)">
		
			<linearGradient id="SVGID_00000029013869385398791040000010091619069367890566_" gradientUnits="userSpaceOnUse" x1="852057.3125" y1="546664.8125" x2="852063.1875" y2="546709.0625" gradientTransform="matrix(1.610856e-02 0 0 1.569520e-02 -12944.5947 -8113.0981)">
			<stop  offset="0" style="stop-color:#000000"/>
			<stop  offset="1" style="stop-color:#000000;stop-opacity:0"/>
		</linearGradient>
		<path style="opacity:0.2;fill:url(#SVGID_00000029013869385398791040000010091619069367890566_);enable-background:new    ;" d="
			M869.1,571.9c1.5,2.6-2.6,5.4-4.6,7.6c-4.5,4.8-10.6,7.9-16.3,11.3c-9.7,5.8-20.8,9.5-30.3,15.6c-6.4,4.1-12.1,9.2-17.9,14
			c-5,4.1-9,9.4-14.5,12.9s-11.6,6.7-18.1,7.5c-7.9,1-16.3-0.4-23.6-3.5c-5.1-2.1-10.1-5.4-13.1-10s-3.4-10.5-3.7-15.9
			c-0.5-9.7,2.2-19.3,3.6-29c1.1-8,3.1-15.9,3.7-24c1.2-14.7-1.3-29.5,0.5-44.1c0.6-4.7-0.3-10.7,3.3-13.9c3.4-3,8.9-1.8,13.5-1.7
			c5.5,0.1,10.9,1.5,16.3,2.8c3.4,0.8,6.6,2.3,10,2.9c5.7,1.1,11.5,1.7,17.2,1.5c6.2-0.2,12.2-2.9,18.5-2.8c2.6,0,5.1,0.5,7.6,1.3
			c2.4,0.8,4.9,1.9,6.8,3.7c1.4,1.3,2.4,3.1,3.1,4.9c1.1,2.7,1.5,5.6,1.9,8.4c0.4,2.5-0.3,5.2,0.7,7.6c3,7.7,9.2,14,15.2,19.8
			c2.9,3.1,6.6,5.7,10.2,7.7c3.7,2.2,7.2,3.9,9,7.7C869,566.5,867.1,570.2,869.1,571.9L869.1,571.9z"/>
		<g transform="translate(-410)">
			<g>
				<g>
					<defs>
						<path id="SVGID_00000067943593898496997990000003448867630054322061_" d="M603,571.9c1.5,2.6-2.5,5.4-4.5,7.6
							c-4.4,4.8-10.3,7.9-15.9,11.3c-9.5,5.8-20.2,9.5-29.5,15.6c-6.2,4.1-11.8,9.2-17.4,14c-4.8,4.1-8.8,9.4-14.2,12.9
							s-11.3,6.7-17.6,7.5c-7.7,1-15.8-0.4-22.9-3.5c-5-2.1-9.9-5.4-12.8-10s-3.3-10.5-3.6-15.9c-0.5-9.7,2.2-19.3,3.5-29
							c1.1-8,3-15.9,3.6-24c1.2-14.7-1.3-29.5,0.5-44.1c0.6-4.7-0.3-10.7,3.2-13.9c3.3-3,8.7-1.8,13.1-1.7
							c5.4,0.1,10.6,1.5,15.9,2.8c3.3,0.8,6.4,2.3,9.7,2.9c5.5,1.1,11.2,1.7,16.8,1.5c6.1-0.2,11.9-2.9,18-2.8c2.5,0,5,0.5,7.4,1.3
							s4.8,1.9,6.6,3.7c1.4,1.3,2.3,3.1,3,4.9c1.1,2.7,1.4,5.6,1.9,8.4c0.4,2.5-0.2,5.2,0.7,7.6c2.9,7.7,8.9,14,14.8,19.8
							c2.8,3.1,6.5,5.7,9.9,7.7c3.6,2.2,7,3.9,8.8,7.7C603,566.5,601,570.2,603,571.9L603,571.9z"/>
					</defs>
					<clipPath id="SVGID_00000106844683043719289700000009318929687336071587_">
						<use xlink:href="#SVGID_00000067943593898496997990000003448867630054322061_"  style="overflow:visible;"/>
					</clipPath>
					
						<linearGradient id="SVGID_00000168099449395432306430000003305209157820738177_" gradientUnits="userSpaceOnUse" x1="860585.5625" y1="557227.8125" x2="860662.6875" y2="557102.8125" gradientTransform="matrix(1.569520e-02 0 0 1.569520e-02 -13027.3574 -8113.0981)">
						<stop  offset="0" style="stop-color:#3E2A06"/>
						<stop  offset="1" style="stop-color:#AD780A"/>
					</linearGradient>
					
						<path style="clip-path:url(#SVGID_00000106844683043719289700000009318929687336071587_);fill:url(#SVGID_00000168099449395432306430000003305209157820738177_);" d="
						M603,571.9c-1.1,2.8-2.6,5.3-4.5,7.6c-4.2,5-10.1,8.3-15.9,11.3c-9.9,5.1-20.2,9.5-29.5,15.6c-6.3,4.1-12,8.9-17.4,14
						c-4.6,4.4-9,9.1-14.2,12.9c-5.2,3.8-11.3,6.5-17.6,7.5c-7.7,1.2-15.7-0.3-22.9-3.5c-5-2.2-9.9-5.3-12.8-10s-3.6-10.4-3.6-15.9
						c0-9.7,1.8-19.4,3.5-29c1.4-8,2.8-16,3.6-24c1.6-14.6,1.6-29.4,0.5-44.1c-0.2-2.5-0.4-4.9,0-7.4c0.4-2.4,1.4-4.9,3.2-6.5
						c1.7-1.5,4-2.1,6.3-2.3c2.3-0.1,4.5,0.2,6.8,0.6c5.3,0.8,10.7,1.4,15.9,2.8c3.3,0.9,6.5,2,9.7,2.9c5.5,1.5,11.2,2.2,16.8,1.5
						c6-0.7,11.9-3,18-2.8c2.5,0.1,5,0.5,7.4,1.3s4.8,1.9,6.6,3.7c1.4,1.4,2.3,3.1,3,4.9c1.1,2.7,1.6,5.5,1.9,8.4
						c0.2,2.5,0.2,5.1,0.7,7.6c0.8,4.1,3,7.9,5.7,11.1c2.7,3.2,5.9,6,9.1,8.7c3.2,2.7,6.4,5.4,9.9,7.7c1.6,1.1,3.3,2.1,4.8,3.4
						c1.5,1.2,3,2.6,3.9,4.4C603.2,566.5,603.6,569.3,603,571.9L603,571.9z"/>
				</g>
			</g>
			<g>
				<g>
					<defs>
						<path id="SVGID_00000063623992095506567530000018272562212109638077_" d="M603,571.9c1.5,2.6-2.5,5.4-4.5,7.6
							c-4.4,4.8-10.3,7.9-15.9,11.3c-9.5,5.8-20.2,9.5-29.5,15.6c-6.2,4.1-11.8,9.2-17.4,14c-4.8,4.1-8.8,9.4-14.2,12.9
							s-11.3,6.7-17.6,7.5c-7.7,1-15.8-0.4-22.9-3.5c-5-2.1-9.9-5.4-12.8-10s-3.3-10.5-3.6-15.9c-0.5-9.7,2.2-19.3,3.5-29
							c1.1-8,3-15.9,3.6-24c1.2-14.7-1.3-29.5,0.5-44.1c0.6-4.7-0.3-10.7,3.2-13.9c3.3-3,8.7-1.8,13.1-1.7
							c5.4,0.1,10.6,1.5,15.9,2.8c3.3,0.8,6.4,2.3,9.7,2.9c5.5,1.1,11.2,1.7,16.8,1.5c6.1-0.2,11.9-2.9,18-2.8c2.5,0,5,0.5,7.4,1.3
							s4.8,1.9,6.6,3.7c1.4,1.3,2.3,3.1,3,4.9c1.1,2.7,1.4,5.6,1.9,8.4c0.4,2.5-0.2,5.2,0.7,7.6c2.9,7.7,8.9,14,14.8,19.8
							c2.8,3.1,6.5,5.7,9.9,7.7c3.6,2.2,7,3.9,8.8,7.7C603,566.5,601,570.2,603,571.9L603,571.9z"/>
					</defs>
					<clipPath id="SVGID_00000108998617380112207100000000646333072635319734_">
						<use xlink:href="#SVGID_00000063623992095506567530000018272562212109638077_"  style="overflow:visible;"/>
					</clipPath>
					<path style="clip-path:url(#SVGID_00000108998617380112207100000000646333072635319734_);fill:#CD8907;" d="M598,566.8
						c-1,2.5-2.4,4.8-4.1,6.8c-3.9,4.5-9.2,7.5-14.5,10.1c-9.1,4.5-18.4,8.5-27,14c-5.7,3.7-11,8-15.9,12.6
						c-4.2,4-8.2,8.2-12.9,11.6c-4.8,3.4-10.3,5.8-16.1,6.7c-7.1,1-14.4-0.3-20.9-3.1c-4.6-2-9-4.8-11.7-9
						c-2.6-4.2-3.3-9.3-3.3-14.3c0-8.8,1.6-17.4,3.2-26.1c1.3-7.2,2.5-14.4,3.3-21.6c1.4-13.2,1.4-26.5,0.5-39.7
						c-0.1-2.2-0.3-4.4,0-6.6s1.2-4.4,2.9-5.8c1.6-1.4,3.7-2,5.8-2.1c2.1-0.1,4.1,0.2,6.2,0.5c4.8,0.7,9.7,1.3,14.5,2.5
						c3,0.8,5.9,1.8,8.9,2.6c5,1.3,10.2,2,15.3,1.4c5.5-0.6,10.9-2.7,16.4-2.5c2.3,0.1,4.5,0.5,6.7,1.2s4.4,1.7,6,3.3
						c1.2,1.2,2.1,2.8,2.8,4.4c1,2.4,1.7,5,1.7,7.6c0.1,2.7-0.5,5.4-0.2,8.1c0.3,2.2,1.2,4.2,2.4,6.1c1.2,1.9,2.6,3.5,4,5.2
						c2.8,3.3,5.5,6.6,9,9.1c3.9,2.8,8.6,4.5,12.7,7.2c1.2,0.8,2.4,1.7,3.2,2.9C598.5,561.9,598.8,564.5,598,566.8L598,566.8z"/>
				</g>
			</g>
		</g>
		<g>
			<g>
				<defs>
					<path id="SVGID_00000078012897013972948350000004820487169537316483_" d="M193,571.9c1.5,2.6-2.5,5.4-4.5,7.6
						c-4.4,4.8-10.3,7.9-15.9,11.3c-9.5,5.8-20.2,9.5-29.5,15.6c-6.2,4.1-11.7,9.2-17.4,14c-4.8,4.1-8.8,9.4-14.2,12.9
						c-5.4,3.4-11.3,6.7-17.6,7.5c-7.7,1-15.8-0.4-22.9-3.5c-5-2.1-9.9-5.4-12.8-10c-2.9-4.6-3.3-10.5-3.6-15.9
						c-0.5-9.7,2.2-19.3,3.5-29c1.1-8,3-15.9,3.6-24c1.2-14.7-1.3-29.5,0.5-44.1c0.5-4.7-0.3-10.7,3.2-13.9c3.3-3,8.7-1.8,13.1-1.7
						c5.4,0.1,10.6,1.5,15.9,2.8c3.3,0.8,6.4,2.3,9.7,2.9c5.5,1.1,11.2,1.7,16.8,1.5c6.1-0.2,11.9-2.9,18-2.8c2.5,0,5,0.5,7.4,1.3
						s4.8,1.9,6.6,3.7c1.4,1.3,2.3,3.1,3,4.9c1.1,2.7,1.4,5.6,1.9,8.4c0.4,2.5-0.2,5.2,0.7,7.6c2.9,7.7,8.9,14,14.8,19.8
						c2.8,3.1,6.5,5.7,9.9,7.7c3.6,2.2,7,3.9,8.8,7.7C193,566.6,191,570.2,193,571.9L193,571.9z"/>
				</defs>
				<clipPath id="SVGID_00000025440744975692817370000004278944897389350576_">
					<use xlink:href="#SVGID_00000078012897013972948350000004820487169537316483_"  style="overflow:visible;"/>
				</clipPath>
				<path style="clip-path:url(#SVGID_00000025440744975692817370000004278944897389350576_);fill:#F5C021;" d="M187.4,564
					c-1.1,2.5-2.5,4.8-4.2,6.9c-3.9,4.8-9.3,8.1-14.9,10.2c-9.2,3.5-19.3,4-28.4,7.9c-5.5,2.4-10.5,6.1-15.5,9.5
					c-4.1,2.8-8.2,5.5-12.7,7.4c-5.1,2.2-10.4,3.4-15.8,4.3c-3.4,0.6-6.9,1-10.4,0.8s-6.9-1-10-2.8c-2.3-1.3-4.4-3.3-5.6-5.8
					c-1.4-2.8-1.6-6-1.6-9.2c0.1-8.4,1.9-16.7,1.8-25.1c0-7.3-1.5-14.5-1.9-21.8c-0.8-14,2.2-28.3-0.4-42c-0.4-2.2-1-4.4-1-6.7
					c0-1.1,0.2-2.3,0.6-3.3s1-2,1.9-2.6c0.7-0.6,1.6-0.9,2.4-1c0.9-0.2,1.8-0.1,2.6,0c1.7,0.3,3.4,1,5.1,1.5
					c4.8,1.4,10,1.4,14.9,2.5c3.1,0.7,6.1,1.8,9.1,2.6c5.1,1.4,10.5,2,15.7,1.4c5.7-0.7,11.2-2.7,16.9-2.6c2.3,0.1,4.7,0.5,6.9,1.2
					s4.5,1.6,6.2,3.3c1.2,1.2,2.1,2.8,2.8,4.5c1,2.4,1.8,5,1.8,7.6c0,1.4-0.2,2.7-0.3,4.1c-0.1,1.4-0.2,2.8,0.2,4.1
					c0.3,1.3,1,2.5,1.8,3.6s1.7,2.1,2.5,3.2c2.3,3,3.9,6.5,5.7,9.9s3.8,6.7,6.6,9.1c3.8,3.3,8.8,4.6,13,7.2c1.2,0.8,2.5,1.7,3.3,2.9
					C187.8,559,188.2,561.6,187.4,564L187.4,564z"/>
			</g>
		</g>
		
			<linearGradient id="SVGID_00000087382830482532690310000015160297329807813294_" gradientUnits="userSpaceOnUse" x1="833334.8125" y1="549203.5625" x2="833332.5" y2="549223.9375" gradientTransform="matrix(1.569520e-02 0 0 1.569520e-02 -12969.5654 -8113.0981)">
			<stop  offset="0" style="stop-color:#F3CD0C"/>
			<stop  offset="1" style="stop-color:#F3CD0C;stop-opacity:0"/>
		</linearGradient>
		<path style="fill:url(#SVGID_00000087382830482532690310000015160297329807813294_);" d="M66.8,505.8c5.3-1.4,9.7,2.6,13.5,5.6
			c2.5,2.1,6,1.6,9,1.7c5-0.2,10,0.8,15,0.2c9.9-0.8,19.5-3.3,29.4-3.7c4.7-0.3,10-0.6,14.1,2.2c1.7,1.1,4.1,6,5.7,4.2
			c-0.7-5.1-4.5-10-9.5-11.4c-4-0.6-8,0.5-12,0.1c-11.9-0.3-23.7-2.5-35.7-1.9c-8.3,0.1-16.6-0.3-24.9-0.6c-3.3-0.7-4.4,2.2-6.2,3.3
			"/>
	</g>
	<g>
		<path class="st34" d="M-120.7,379.8c0.2,0,1.7,1.2,1.5,1.7s-0.6,0.2-0.9,0.2s-1,0.3-1.1,0.1c-0.1-0.2,0.3-0.7,0.6-1.1
			C-120.4,380.3-121,379.8-120.7,379.8L-120.7,379.8z"/>
		<path class="st35" d="M-141.5,371.9c0-0.3-0.4-0.3-0.6-0.2c-0.2,0.1-0.3,0.5-0.2,0.7C-142.1,372.7-141.5,372.3-141.5,371.9
			L-141.5,371.9z"/>
	</g>
	<g transform="matrix(.125261 0 0 .125261 -132.03685 328.54818)">
		<g>
			
				<radialGradient id="Aa_00000047782083279652997460000002911459868043640965_" cx="705037.0625" cy="205706.1094" r="27.0169" gradientTransform="matrix(2.053028e-02 5.499972e-03 -5.773314e-03 2.154489e-02 -13177.335 -7783.0752)" gradientUnits="userSpaceOnUse">
				<stop  offset="0" style="stop-color:#110800"/>
				<stop  offset="0.591" style="stop-color:#A65A00;stop-opacity:0.8"/>
				<stop  offset="1" style="stop-color:#FF921E;stop-opacity:0"/>
			</radialGradient>
			<path id="Aa" style="fill:url(#Aa_00000047782083279652997460000002911459868043640965_);" d="M137.6,513.8
				c-0.9-1.8-2.5-3.1-4.4-3.9c-1.8-0.8-3.8-1-5.8-1c-4,0-7.9,1.1-11.9,0.7c-3.3-0.3-6.5-1.5-9.8-2.3c-3.4-0.8-6.9-1.1-10.3-0.2
				c-3.6,1-6.7,3.4-8.7,6.5c-1.7,2.8-2.6,6-2.8,9.3c-0.3,3.3,0,6.5,0.3,9.8c0.2,2.3,0.5,4.7,1.1,7s1.4,4.5,2.8,6.4
				c2,2.8,4.9,4.7,8.1,5.9c5.3,1.9,11.1,1.8,16.2-0.3c9.1-3.9,16.8-11,21.4-19.7c1.7-3.1,3-6.4,3.8-9.9c0.3-1.4,0.6-2.8,0.6-4.2
				S138.3,515,137.6,513.8L137.6,513.8z"/>
		</g>
		<g transform="matrix(1 0 0 .722925 0 80.758477)">
			
				<radialGradient id="Aa_00000026879459905222157470000010293600416384613008_" cx="774593.25" cy="626560.9375" r="27.0169" gradientTransform="matrix(2.053028e-02 3.976068e-03 -4.173673e-03 1.126496e-02 -13177.8008 -9615.748)" gradientUnits="userSpaceOnUse">
				<stop  offset="0" style="stop-color:#110800"/>
				<stop  offset="0.591" style="stop-color:#A65A00;stop-opacity:0.8"/>
				<stop  offset="1" style="stop-color:#FF921E;stop-opacity:0"/>
			</radialGradient>
			
				<path id="Aa_00000094590275700871731160000001595002381867537544_" style="fill:url(#Aa_00000026879459905222157470000010293600416384613008_);" d="
				M137.6,511.9c-0.9-1.3-2.5-2.2-4.4-2.8c-1.8-0.6-3.8-0.7-5.8-0.7c-4,0-7.9,0.8-11.9,0.5c-3.3-0.2-6.5-1.1-9.8-1.7
				c-3.4-0.6-6.9-0.8-10.3-0.2c-3.6,0.7-6.7,2.4-8.7,4.7c-1.7,2-2.6,4.4-2.8,6.7s0,4.7,0.3,7.1c0.2,1.7,0.5,3.4,1.1,5.1
				c0.6,1.7,1.4,3.3,2.8,4.7c2,2,4.9,3.4,8.1,4.3c5.3,1.4,11.1,1.3,16.2-0.2c9.1-2.8,16.8-8,21.4-14.3c1.7-2.3,3-4.7,3.8-7.1
				c0.3-1,0.6-2,0.6-3C138.5,513.9,138.3,512.8,137.6,511.9L137.6,511.9z"/>
		</g>
		<path class="st0" d="M145.2,497.2c-0.6-1.8-1.8-3.3-3.2-4.6s-3-2.2-4.8-3c-3.5-1.5-7.2-2-11-2.7l-10.5-2c-3.6-0.6-7.4-1-11-0.2
			c-3.2,0.7-6.1,2.3-8.5,4.5s-4.2,4.9-5.6,7.9c-2.4,5.2-3.1,11-2.7,16.7c0.3,4.2,1.4,8.6,4.2,11.8c2.2,2.6,5.4,4.2,8.7,5.2
			c5.7,1.7,11.8,1.6,17.4-0.2c9.3-3.1,17.4-9.2,23-17.3c1.8-2.6,3.4-5.5,4.1-8.7C146,502.1,146,499.6,145.2,497.2L145.2,497.2z"/>
		<g transform="translate(-310)">
			<g>
				<g>
					<defs>
						<path id="SVGID_00000178889252224319382880000003597636843107913890_" d="M455.2,497.2c-0.6-1.8-1.8-3.3-3.2-4.6s-3-2.2-4.8-3
							c-3.5-1.5-7.2-2-11-2.7l-10.5-2c-3.6-0.6-7.4-1-11-0.2c-3.2,0.7-6.1,2.3-8.5,4.5s-4.2,4.9-5.6,7.9c-2.4,5.2-3.1,11-2.7,16.7
							c0.3,4.2,1.4,8.6,4.2,11.8c2.2,2.6,5.4,4.2,8.7,5.2c5.7,1.7,11.8,1.6,17.4-0.2c9.3-3.1,17.4-9.2,23-17.3
							c1.8-2.6,3.4-5.5,4.1-8.7C456,502.1,456,499.6,455.2,497.2"/>
					</defs>
					<clipPath id="SVGID_00000127032034892578333560000009266345253985481656_">
						<use xlink:href="#SVGID_00000178889252224319382880000003597636843107913890_"  style="overflow:visible;"/>
					</clipPath>
					<g style="clip-path:url(#SVGID_00000127032034892578333560000009266345253985481656_);">
						
							<radialGradient id="Ab_00000173153490416934472970000009309932185199345070_" cx="425.8607" cy="496.1875" r="2.7433" gradientTransform="matrix(5.652471e-03 2.460311e-03 -1.137044e-03 2.612314e-03 -13416.9814 -8255.9111)" gradientUnits="userSpaceOnUse">
							<stop  offset="0" style="stop-color:#7C7C7C"/>
							<stop  offset="1" style="stop-color:#7C7C7C;stop-opacity:0.33"/>
						</radialGradient>
						<path id="Ab" style="fill:url(#Ab_00000173153490416934472970000009309932185199345070_);" d="M416.7,483
							c-0.9,0-1.7,0.1-2.6,0.3c-5.6,1-10.7,4.5-13.5,9.4c-2,3.5-3,7.5-2.7,11.5c0.1-2.8,0.9-5.5,2.2-8c2.3-4.1,6.5-7.3,11.1-8.1
							c2.9-0.5,5.8-0.2,8.7,0.2c2.8,0.3,5.6,0.7,8.3,1.3c4.2,0.9,8.4,2.3,12,4.8c0.8,0.6,1.6,1.2,2.3,2c0.7,0.8,1.2,1.7,1.4,2.7
							c0.3,1.4-0.1,3-0.8,4.3c-0.7,1.3-1.7,2.4-2.8,3.5c-0.8,0.8-1.8,1.7-2.7,2.5c4.1-0.8,8.3-1.9,11.7-4.3c1.4-1,2.8-2.2,3.6-3.8
							c0.9-1.5,1.2-3.4,0.8-5.1c-0.3-1.2-0.9-2.2-1.7-3.1c-0.8-0.9-1.7-1.6-2.7-2.3c-4.3-3-9.3-4.9-14.5-5.6
							c-3.3-0.6-6.7-1.1-10.1-1.6C422.1,483.1,419.4,482.9,416.7,483L416.7,483z"/>
					</g>
				</g>
			</g>
			<g>
				<g>
					<defs>
						<path id="SVGID_00000065763158357584144720000006824112852623405717_" d="M455.2,497.2c-0.6-1.8-1.8-3.3-3.2-4.6s-3-2.2-4.8-3
							c-3.5-1.5-7.2-2-11-2.7l-10.5-2c-3.6-0.6-7.4-1-11-0.2c-3.2,0.7-6.1,2.3-8.5,4.5s-4.2,4.9-5.6,7.9c-2.4,5.2-3.1,11-2.7,16.7
							c0.3,4.2,1.4,8.6,4.2,11.8c2.2,2.6,5.4,4.2,8.7,5.2c5.7,1.7,11.8,1.6,17.4-0.2c9.3-3.1,17.4-9.2,23-17.3
							c1.8-2.6,3.4-5.5,4.1-8.7C456,502.1,456,499.6,455.2,497.2"/>
					</defs>
					<clipPath id="SVGID_00000163762714735238804000000010463748237904477605_">
						<use xlink:href="#SVGID_00000065763158357584144720000006824112852623405717_"  style="overflow:visible;"/>
					</clipPath>
					<g style="clip-path:url(#SVGID_00000163762714735238804000000010463748237904477605_);">
						
							<linearGradient id="Ab_00000088106773239343541910000013738861915513067450_" gradientUnits="userSpaceOnUse" x1="855446.125" y1="548567.1875" x2="855450.9375" y2="548567" gradientTransform="matrix(1.569520e-02 0 0 1.569520e-02 -13013.2617 -8113.0981)">
							<stop  offset="0" style="stop-color:#7C7C7C"/>
							<stop  offset="1" style="stop-color:#7C7C7C;stop-opacity:0.33"/>
						</linearGradient>
						
							<path id="Ab_00000031918369288922605950000011676260213123789235_" style="fill:url(#Ab_00000088106773239343541910000013738861915513067450_);" d="
							M416.7,483c-0.9,0-1.7,0.1-2.6,0.3c-5.6,1-10.7,4.5-13.5,9.4c-2,3.5-3,7.5-2.7,11.5c0.1-2.8,0.9-5.5,2.2-8
							c2.3-4.1,6.5-7.3,11.1-8.1c2.9-0.5,5.8-0.2,8.7,0.2c2.8,0.3,5.6,0.7,8.3,1.3c4.2,0.9,8.4,2.3,12,4.8c0.8,0.6,1.6,1.2,2.3,2
							c0.7,0.8,1.2,1.7,1.4,2.7c0.3,1.4-0.1,3-0.8,4.3c-0.7,1.3-1.7,2.4-2.8,3.5c-0.8,0.8-1.8,1.7-2.7,2.5c4.1-0.8,8.3-1.9,11.7-4.3
							c1.4-1,2.8-2.2,3.6-3.8c0.9-1.5,1.2-3.4,0.8-5.1c-0.3-1.2-0.9-2.2-1.7-3.1c-0.8-0.9-1.7-1.6-2.7-2.3c-4.3-3-9.3-4.9-14.5-5.6
							c-3.3-0.6-6.7-1.1-10.1-1.6C422.1,483.1,419.4,482.9,416.7,483L416.7,483z"/>
					</g>
				</g>
			</g>
		</g>
	</g>
	<path class="st0" d="M-141.5,370.6l-3.4,4.3c-0.7,0.9-1.4,1.8-1.9,2.8c-0.4,0.9-0.6,1.8-0.9,2.8c-0.3,1.1-0.7,2.1-1.2,3.1l-1.4,2.7
		c-0.3,0.7-0.7,1.3-0.8,2.1c-0.1,0.6,0,1.2,0.1,1.7s0.4,1.1,0.7,1.6c1.1,2.2,2.8,4.1,4.9,5.6c0.9,0.7,1.9,1.2,2.9,1.7
		c0.6,0.3,1.1,0.5,1.8,0.5c0.3,0,0.6,0,0.9-0.2c0.3-0.1,0.5-0.3,0.7-0.6c0.2-0.3,0.3-0.7,0.2-1.1c0-0.4-0.2-0.7-0.4-1.1
		c-0.5-0.8-1.2-1.4-2-1.9l-4.6-3.8c-0.4-0.4-0.8-0.8-1.1-1.3s-0.4-1-0.5-1.5c-0.3-1.5-0.2-3,0.3-4.4c0.2-0.6,0.5-1.1,0.7-1.6
		c0.4-0.9,0.8-1.9,1.4-2.7c0.7-1.1,1.7-1.9,2.2-3.1c0.5-1,0.7-2,0.9-3.1L-141.5,370.6L-141.5,370.6z"/>
	<g>
		<g>
			<defs>
				<path id="SVGID_00000156565610526958445340000009923549270043466893_" d="M-141.6,370.6c0,0-1,1.3-1.6,2.1
					c-0.6,0.8-1.2,1.3-1.7,2.2c-0.6,0.8-1.5,1.9-1.9,2.8s-0.5,1.8-0.9,2.8s-0.7,2.1-1.2,3.1c-0.5,0.9-1.1,1.9-1.4,2.7
					s-0.8,1.1-0.8,2.1c-0.1,0.9-0.1,1.7,0.8,3.4c0.9,1.7,3.5,4.4,4.9,5.6s1.9,1.5,2.9,1.7s2.8,0.6,3.4-0.3c0.6-0.9,0.5-1.2-0.2-2.1
					c-0.6-0.9-1-1.1-2-1.9s-3.7-3-4.6-3.9s-1.4-0.7-1.1-1.3s-0.4-0.8-0.5-1.5c-0.2-1.3,0.2-3.8,0.3-4.4c0.1-0.7,0.2-0.6,0.7-1.6
					s0.8-1.7,1.4-2.7s1.7-2,2.2-3.1c0.5-1,0.7-2.2,0.9-3.1C-141.8,372.1-141.6,370.6-141.6,370.6L-141.6,370.6z"/>
			</defs>
			<clipPath id="SVGID_00000124152839038473062140000007205294061693528705_">
				<use xlink:href="#SVGID_00000156565610526958445340000009923549270043466893_"  style="overflow:visible;"/>
			</clipPath>
			
				<path style="opacity:0.95;clip-path:url(#SVGID_00000124152839038473062140000007205294061693528705_);fill:#7C7C7C;enable-background:new    ;" d="
				M-144.8,378.6c-0.5,0.4-0.9,0.9-1.2,1.5c-0.5,0.9-0.9,1.9-1.2,2.9c-0.3,0.7-0.6,1.4-0.7,2.2c0,0.4,0,0.8,0.1,1.2s0,0.8-0.2,1.2
				c-0.2,0.3-0.4,0.5-0.7,0.6c0.4,0.1,0.8,0.4,1.1,0.8c0.2,0.3,0.4,0.7,0.6,1c0.2,0.3,0.4,0.5,0.6,0.7s0.5,0.3,0.8,0.4
				c0.4,0.1,0.8-0.1,1.2-0.4c-0.4-3.6,0-7.3,1-10.8c0.1-0.2,0.1-0.4,0.2-0.7c0-0.2,0-0.5-0.2-0.7c-0.1-0.1-0.2-0.2-0.3-0.2
				s-0.2-0.1-0.4-0.1c-0.1,0-0.2,0.1-0.3,0.1S-144.7,378.5-144.8,378.6L-144.8,378.6z"/>
		</g>
	</g>
	<g>
		<g>
			<defs>
				<path id="SVGID_00000007414713432925164720000003453827850440768952_" d="M-180.9,377.4c0.2,0,0.3,0.1,0.4,0.2
					c0.2,0.1-0.2,0.7,0.3,0.5c0.2,0,0.2,0.3,0.3,0.4c0.1,0.2,0.3,0.3,0.3,0.5c0,0.1,0,0.3,0,0.4c-0.1,0.2-0.3,0.3-0.5,0.3
					c-0.2,0-0.3-0.1-0.4-0.1c-0.3-0.1-0.6-0.2-0.9-0.2l-0.3-0.1c-0.1,0-0.2,0-0.2-0.1c-0.1-0.1,0-0.3,0.1-0.4c0.1-0.2,0.1-0.5,0-0.6
					c0-0.1,0-0.2,0.1-0.3c0.1-0.1,0.4,0,0.5-0.1C-181,377.7-181,377.4-180.9,377.4L-180.9,377.4z"/>
			</defs>
			<clipPath id="SVGID_00000047056408311840551580000008462767804981928589_">
				<use xlink:href="#SVGID_00000007414713432925164720000003453827850440768952_"  style="overflow:visible;"/>
			</clipPath>
			
				<g transform="matrix(.125261 0 0 .125261 -162.09954 328.54818)" style="clip-path:url(#SVGID_00000047056408311840551580000008462767804981928589_);">
				
					<linearGradient id="SVGID_00000165230943433278060240000001344252812036746909_" gradientUnits="userSpaceOnUse" x1="832897.0625" y1="550656.25" x2="832973.625" y2="550784.6875" gradientTransform="matrix(1.569520e-02 0 0 1.569520e-02 -13003.3955 -8113.0981)">
					<stop  offset="0" style="stop-color:#B98309"/>
					<stop  offset="1" style="stop-color:#382605"/>
				</linearGradient>
				<path style="fill:url(#SVGID_00000165230943433278060240000001344252812036746909_);" d="M98.7,490.3c2.6-1.1,5.4-1.3,8.2-0.8
					c2.7,0.5,5.3,1.7,7.6,3.2c4.6,3.1,8,7.7,11.3,12.2c7.5,10.3,14.7,20.9,21.2,31.8c5.3,8.9,10.2,18.1,16.3,26.4
					c4,5.4,8.5,10.5,12.5,15.9s7.6,11.3,9.4,17.8c2.3,8.5,1.4,17.8-2.6,25.6c-2.8,5.5-7.2,10.2-12.5,13.4s-11.5,4.8-17.7,4.6
					c-9.8-0.4-18.8-5.3-27.9-8.9c-18.6-7.4-38.7-9.7-57.9-15.5c-5.9-1.8-11.7-3.9-17.6-5.5c-2.6-0.7-5.3-1.4-7.8-2.5
					s-4.8-2.8-6.2-5.2c-1.1-1.8-1.5-4-1.5-6.1s0.5-4.2,1.2-6.2c1.4-4,3.8-7.6,5.3-11.5c2.6-6.4,3-13.5,2.7-20.3
					c-0.3-6.9-1.5-13.7-1.9-20.6c-0.2-3.1-0.3-6.2,0.3-9.2s1.9-6,4.1-8.1c2-2,4.8-3.1,7.5-3.7s5.6-0.6,8.5-0.5
					c2.8,0.1,5.7,0.2,8.5,0s5.7-0.9,8.1-2.3c2.3-1.3,4.3-3.3,5.8-5.5c1.6-2.2,2.9-4.6,4.2-6.9c1.3-2.4,2.7-4.7,4.4-6.8
					C94.1,493.2,96.2,491.4,98.7,490.3L98.7,490.3z"/>
				<path class="st45" d="M102.8,494.8c2.3-0.9,5-1,7.4-0.5c2.5,0.6,4.7,1.8,6.7,3.3c4,3.1,6.7,7.4,9.4,11.7
					c6.4,10.3,12.6,20.7,18.5,31.4c4.5,8,8.7,16.2,14.2,23.5c3.6,4.9,7.8,9.3,11.5,14.2c3.7,4.8,7,10.1,8.6,15.9
					c2.1,7.5,1.3,15.9-2.4,22.8c-2.6,5-6.6,9.2-11.5,12s-10.5,4.2-16.2,4c-9-0.4-17.2-4.9-25.6-7.9c-16.2-5.9-33.8-6.7-50.4-11.3
					c-6-1.6-11.8-3.8-17.8-5.3c-2.6-0.7-5.3-1.2-7.9-2.3c-2.5-1.1-4.9-2.7-6.3-5.1c-1-1.8-1.4-3.8-1.4-5.9c0.1-2,0.6-4,1.3-5.9
					c1.4-3.8,3.7-7.2,5.2-11c2.2-5.7,2.5-12,2.1-18.2c-0.4-6.1-1.5-12.2-1.8-18.3c-0.2-2.7-0.2-5.5,0.4-8.2c0.6-2.7,1.7-5.3,3.7-7.2
					c2.1-2.1,5-3.2,8-3.7s5.9-0.3,8.9,0s5.9,0.6,8.9,0.4c3-0.2,6-0.9,8.5-2.6c2.2-1.5,3.9-3.7,5.2-6.1c1.3-2.4,2.2-4.9,3.2-7.4
					s2-5,3.6-7.2S100.2,495.8,102.8,494.8"/>
				<path class="st46" d="M100.6,488.9c2.3-1.1,4.9-1.4,7.4-0.8c2.5,0.5,4.8,1.7,6.7,3.3c3.9,3.1,6.4,7.7,8.7,12.1
					c5.3,10.2,10.2,20.6,16.6,30.1c4.6,6.9,9.9,13.4,14.6,20.3c6.3,9.4,11.4,19.7,13.6,30.7c1.4,7.4,1.4,15.4-2.2,22.1
					c-2.4,4.4-6.2,8-10.7,10.3c-4.5,2.2-9.7,3.2-14.7,2.7c-7.9-0.7-15.2-4.6-22.6-7.3c-13.3-4.8-27.6-6-41.3-9.6
					c-5.8-1.5-11.4-3.5-17.2-4.7c-2.6-0.5-5.2-0.9-7.7-1.9c-2.5-0.9-4.8-2.5-6-4.7c-0.9-1.6-1.2-3.5-1-5.3c0.1-1.8,0.7-3.6,1.4-5.3
					c1.4-3.4,3.5-6.4,4.7-9.9c1.6-5.1,1-10.6-0.3-15.9s-3-10.3-3.5-15.7c-0.2-2.4-0.2-4.8,0.3-7.1s1.6-4.6,3.4-6.2
					c2.2-2.1,5.4-3.2,8.5-3.5s6.2,0.1,9.3,0.6s6.2,0.9,9.3,0.8c3.1-0.2,6.3-1,8.7-2.9c2.4-1.9,3.9-4.7,4.8-7.6c0.9-2.9,1.2-6,1.5-9
					c0.4-3,0.8-6.1,2-8.9C95.9,492.9,97.9,490.3,100.6,488.9L100.6,488.9z"/>
				
					<linearGradient id="SVGID_00000116925023753430267920000015634052626149551012_" gradientUnits="userSpaceOnUse" x1="838295" y1="552469.3125" x2="838319.125" y2="552514.625" gradientTransform="matrix(1.569520e-02 0 0 1.569520e-02 -13003.3955 -8113.0981)">
					<stop  offset="0" style="stop-color:#EBC40C"/>
					<stop  offset="1" style="stop-color:#EBC40C;stop-opacity:0"/>
				</linearGradient>
				<path style="fill:url(#SVGID_00000116925023753430267920000015634052626149551012_);" d="M128.9,514.3
					c4.2,7.6,6.7,16.2,10.9,23.9c3.8,7,8.2,14.2,12,20.7c1.7,2.9,5.7,7.3,9.8,14.2c3.7,6.2,7.4,14.9,9.5,17.8
					c-1.2-3.4-3.7-12.6-6.6-19.1c-2.7-6.1-5.9-9.6-7.9-12.9c-3.9-6.5-8-12.3-12-18.4C139.1,531.9,134.9,522.4,128.9,514.3
					L128.9,514.3z"/>
			</g>
		</g>
	</g>
	<path class="st48" d="M-93.6,369.3h6.3v15.1h9v5.2h-15.2v-20.3H-93.6z M-74.3,369.3h6.3v20.3h-6.3V369.3z M-63.4,369.3h6.4
		l5.9,10.9h0.1v-10.9h5.9v20.3h-6.1l-6.2-11.1h-0.1v11.1h-5.9L-63.4,369.3z M-22,381.8c0,5.7-3,8.3-9.2,8.3s-9.3-2.7-9.3-8.3v-12.4
		h6.3v11.1c0,2,0,4.7,3,4.7s3-2.6,3-4.7v-11.1h6.3L-22,381.8L-22,381.8z M-12.1,378.8l-6.7-9.5h7.3l3,5.5l3-5.5h6.9l-6.5,9.6
		l7.2,10.7h-7.5l-3.5-6l-3.6,6h-7.2L-12.1,378.8z"/>
</g>
</svg>
