<?xml version="1.0" encoding="utf-8"?>
<!-- Generator: Adobe Illustrator 26.0.3, SVG Export Plug-In . SVG Version: 6.00 Build 0)  -->
<svg version="1.1" id="Layer_1" xmlns="http://www.w3.org/2000/svg" xmlns:xlink="http://www.w3.org/1999/xlink" x="0px" y="0px"
	 viewBox="0 0 166 110" style="enable-background:new 0 0 166 110;" xml:space="preserve">
<style type="text/css">
	.st0{fill:#FFFFFF;}
</style>
<path class="st0" d="M103.5,44.8v2.9c0,0.5-0.2,0.9-0.5,0.9c-0.4,0-1.1-0.1-1.4-0.1c-2.1,0-3.3,2.2-3.3,6.5v10.4
	c0,0.5-0.2,0.9-0.5,0.9h-1.9c-0.3,0-0.5-0.4-0.5-0.9V44.5c0-0.5,0.2-0.9,0.5-0.9h1.8c0.3,0,0.5,0.4,0.5,0.9v1.3
	c0.8-1.6,2.2-2.5,3.9-2.5c0.3,0,0.6,0.1,0.9,0.1C103.3,43.6,103.5,44.1,103.5,44.8z M84.3,53.5c-0.1-0.3-0.1-0.5,0-0.8l4.6-8.2
	c0.2-0.4,0.1-1.1-0.2-1.1H86c-0.1,0-0.3,0.1-0.3,0.3l-5.2,8.7C80.3,52.8,80,52.6,80,52v-7.5c0-0.5-0.2-0.9-0.5-0.9h-2
	c-0.3,0-0.5,0.4-0.5,0.9v20.9c0,0.5,0.2,0.9,0.5,0.9h1.9c0.3,0,0.5-0.4,0.5-0.9v-4.9c0-0.3,0.1-0.5,0.2-0.7l1.6-2.8
	c0.1-0.3,0.4-0.3,0.5,0l3.9,8.9c0.1,0.3,0.2,0.4,0.4,0.4h2.7c0.3,0,0.4-0.5,0.3-0.9L84.3,53.5z M68.9,43.6H67
	c-0.3,0-0.5,0.4-0.5,0.9v20.9c0,0.5,0.2,0.9,0.5,0.9h1.9c0.3,0,0.5-0.4,0.5-0.9V44.5C69.4,44,69.2,43.6,68.9,43.6z M136.2,43.6
	h-11.4c-0.3,0-0.5,0.4-0.5,0.9v3c0,0.5,0.2,0.9,0.5,0.9h3.8c0.2,0,0.3,0.3,0.3,0.5v16.4c0,0.5,0.2,0.9,0.5,0.9h1.9
	c0.3,0,0.5-0.4,0.5-0.9V49c0-0.3,0.1-0.5,0.3-0.5h3.8c0.3,0,0.5-0.4,0.5-0.9v-3C136.7,44,136.5,43.6,136.2,43.6z M120.5,54.9
	c0,6.7-2.7,11.6-6.5,11.6s-6.5-4.9-6.5-11.6s2.7-11.6,6.5-11.6C117.8,43.3,120.5,48.2,120.5,54.9z M117.6,54.9
	c0-4.1-1.4-6.7-3.5-6.7s-3.6,2.8-3.6,6.7s1.5,6.9,3.6,6.9C116.1,61.8,117.6,58.9,117.6,54.9z M145,43.6h-2c-0.3,0-0.5,0.4-0.5,0.9
	v20.9c0,0.5,0.2,0.9,0.5,0.9h1.9c0.3,0,0.5-0.4,0.5-0.9V44.5C145.5,44,145.3,43.6,145,43.6z M53.8,43.3c-1.7,0-3.2,1.1-4.2,2.9
	c-0.1,0.3-0.4,0.3-0.5,0c-0.9-1.9-2.2-2.9-3.9-2.9c-1.5,0-2.8,0.8-3.7,2.2v-1.1c0-0.5-0.2-0.9-0.5-0.9h-1.7c-0.3,0-0.5,0.4-0.5,0.9
	v20.9c0,0.5,0.2,0.9,0.5,0.9h1.9c0.3,0,0.5-0.4,0.5-0.9V54.7c0-4.1,1.1-6.3,3.1-6.3c1.8,0,2.6,1.9,2.6,5.6v11.6
	c0,0.5,0.2,0.9,0.5,0.9h1.9c0.3,0,0.5-0.4,0.5-0.9V54.8c0-4.1,1.1-6.3,3.1-6.3c1.8,0,2.6,1.9,2.6,5.6v11.6c0,0.5,0.2,0.9,0.5,0.9
	h1.9c0.3,0,0.5-0.4,0.5-0.9v-12C59.1,47,57.1,43.3,53.8,43.3z M165.5,65.4l-5.1-11.8c-0.1-0.3-0.1-0.5,0-0.8l4.6-8.2
	c0.2-0.4,0.1-1.1-0.2-1.1h-2.7c-0.1,0-0.3,0.1-0.3,0.3l-5.2,8.6c-0.2,0.4-0.5,0.1-0.5-0.4v-7.5c0-0.5-0.2-0.9-0.5-0.9h-1.9
	c-0.3,0-0.5,0.4-0.5,0.9v20.9c0,0.5,0.2,0.9,0.5,0.9h1.9c0.3,0,0.5-0.4,0.5-0.9v-4.9c0-0.3,0.1-0.5,0.2-0.7l1.6-2.8
	c0.1-0.3,0.4-0.3,0.5,0l3.9,8.9c0.1,0.3,0.2,0.4,0.4,0.4h2.7C165.5,66.3,165.6,65.8,165.5,65.4z M28.1,42.6c0-0.1-0.1-0.3-0.1-0.4
	s-0.1-0.3-0.1-0.4c-0.3-0.7-0.7-1.2-1.3-1.9l-4.8-4.8l-4.7-4.8c-0.6-0.5-1.1-0.9-1.6-1.1c-0.1,0-0.2,0-0.3,0c-0.5,0-1.1,0.4-1.8,1.1
	l-4.7,4.8L3.9,40c-0.6,0.5-1,1.2-1.3,1.9c-0.1,0.1-0.1,0.3-0.1,0.4s-0.1,0.3-0.1,0.4C2.1,43.3,2,44.4,2,45.5v18.9
	c0,1.5,0.1,2.5,0.4,3.3s0.8,1.5,1.5,2.2l4.7,4.8l4.7,4.8c0.6,0.5,1.1,0.9,1.6,1.1c0.1,0,0.2,0,0.3,0s0.2,0,0.3,0
	c0.5-0.1,1-0.5,1.6-1.1l9.6-9.5c0.7-0.7,1.2-1.5,1.5-2.2c0-0.1,0.1-0.3,0.1-0.4c0.2-0.8,0.3-1.7,0.3-2.9v-19
	C28.4,44.4,28.3,43.3,28.1,42.6z M9.6,64.7c0,0.4-0.3,0.7-0.5,0.5l-1.7-1.7c-0.4-0.4-0.6-1.2-0.6-2v-9.1c0-0.4,0.3-0.7,0.5-0.5l2,2
	c0.2,0.3,0.3,0.5,0.3,1.1L9.6,64.7L9.6,64.7z M23.6,61.5c0,0.8-0.2,1.6-0.6,2l-1.7,1.7c-0.2,0.3-0.5,0-0.5-0.5V52.6
	c0-0.4-0.3-0.7-0.5-0.5l-3.1,3c-0.4,0.4-0.6,1.2-0.6,2v12c0,0.4-0.1,0.8-0.3,1.1l-0.5,0.5c-0.4,0.4-0.8,0.4-1.2,0L14,70.1
	c-0.2-0.3-0.3-0.5-0.3-1.1V57c0-0.8-0.2-1.6-0.6-2l-6.3-6.3V48c0-0.8,0.2-1.6,0.6-2l0.7-0.7c0.4-0.4,0.8-0.4,1.2,0l5.2,5.3
	c0.4,0.4,0.8,0.4,1.2,0l2.4-2.4c0.2-0.3,0.2-0.8,0-1.1l-5.4-5.4c-0.2-0.3-0.2-0.8,0-1.1l1.8-1.9c0.4-0.4,0.8-0.4,1.2,0l7.2,7.1
	c0.4,0.4,0.6,1.2,0.6,2L23.6,61.5L23.6,61.5z"/>
</svg>
