<?xml version="1.0" encoding="utf-8"?>
<!-- Generator: Adobe Illustrator 26.0.3, SVG Export Plug-In . SVG Version: 6.00 Build 0)  -->
<svg version="1.1" id="Camada_3" xmlns="http://www.w3.org/2000/svg" xmlns:xlink="http://www.w3.org/1999/xlink" x="0px" y="0px"
	 viewBox="0 0 166 110" style="enable-background:new 0 0 166 110;" xml:space="preserve">
<style type="text/css">
	.st0{clip-path:url(#SVGID_00000050625441525665970430000004330967225821851783_);fill:#D40000;}
	.st1{clip-path:url(#SVGID_00000033335193022537695760000011425624464869027716_);fill:#FFFFFF;}
	.st2{clip-path:url(#SVGID_00000058569455687076526430000000776038816020933793_);fill:#FFFFFF;}
	.st3{clip-path:url(#SVGID_00000144308448458851302800000007595782663982342275_);fill:#FFFFFF;}
	.st4{clip-path:url(#SVGID_00000051373527501130599190000002241909655504117946_);fill:#FFFFFF;}
	.st5{clip-path:url(#SVGID_00000008871400132815096950000003121530890571155340_);fill:#FFFFFF;}
	.st6{clip-path:url(#SVGID_00000156588195919382099880000012969817255594861969_);fill:#FFFFFF;}
</style>
<g>
	<g>
		<defs>
			<rect id="SVGID_1_" x="-0.5" y="33" width="167" height="44"/>
		</defs>
		<clipPath id="SVGID_00000034067681302273897770000013713726838092815531_">
			<use xlink:href="#SVGID_1_"  style="overflow:visible;"/>
		</clipPath>
		
			<rect x="-181" y="81.9" style="clip-path:url(#SVGID_00000034067681302273897770000013713726838092815531_);fill:#D40000;" width="167" height="110"/>
	</g>
</g>
<g>
	<g>
		<defs>
			<rect id="SVGID_00000132811124269129387500000004734996680090196415_" x="-0.5" y="33" width="167" height="44"/>
		</defs>
		<clipPath id="SVGID_00000134966490393776913440000012605528927900041863_">
			<use xlink:href="#SVGID_00000132811124269129387500000004734996680090196415_"  style="overflow:visible;"/>
		</clipPath>
		<polygon style="clip-path:url(#SVGID_00000134966490393776913440000012605528927900041863_);fill:#FFFFFF;" points="6.5,40 
			30.5,40 30.5,43.2 11.1,67 31.5,67 31.5,71 5.5,71 5.5,67.3 25.6,44 6.5,44 		"/>
	</g>
</g>
<g>
	<g>
		<defs>
			<rect id="SVGID_00000146495147036579351530000007277077785868886202_" x="-0.5" y="33" width="167" height="44"/>
		</defs>
		<clipPath id="SVGID_00000026854660592331219720000001786058451551212712_">
			<use xlink:href="#SVGID_00000146495147036579351530000007277077785868886202_"  style="overflow:visible;"/>
		</clipPath>
		<path style="clip-path:url(#SVGID_00000026854660592331219720000001786058451551212712_);fill:#FFFFFF;" d="M47.6,43.8L41.9,59
			h11.3L47.6,43.8z M45.2,40h4.7l11.9,31h-4.2l-2.9-8H40.5l-2.9,8h-4.3L45.2,40z"/>
	</g>
</g>
<g>
	<g>
		<defs>
			<rect id="SVGID_00000124137550965377195570000005137774418357017999_" x="-0.5" y="33" width="167" height="44"/>
		</defs>
		<clipPath id="SVGID_00000050645079557730048770000002986351079527991978_">
			<use xlink:href="#SVGID_00000124137550965377195570000005137774418357017999_"  style="overflow:visible;"/>
		</clipPath>
		<path style="clip-path:url(#SVGID_00000050645079557730048770000002986351079527991978_);fill:#FFFFFF;" d="M70.5,56v11H77
			c2.2,0,3.8-0.5,4.9-1.4s1.6-2.3,1.6-4.1s-0.5-3.2-1.6-4.1C80.8,56.5,79.2,56,77,56H70.5z M70.5,43v9h6c1.9,0,3.5-0.4,4.5-1.1
			c1-0.8,1.5-1.9,1.5-3.4S82,44.9,81,44.1c-1-0.8-2.4-1.1-4.5-1.1H70.5z M66.5,40h10.8c3.2,0,5.6,0.7,7.5,2c1.7,1.3,2.6,3.2,2.6,5.7
			c0,1.9-0.4,3.4-1.3,4.6c-0.9,1.1-2.2,1.8-3.9,2.1c2.1,0.4,3.7,1.3,4.8,2.7s1.7,3.1,1.7,5.3c0,2.7-0.9,4.9-2.8,6.4S81.3,71,77.8,71
			H66.5V40z"/>
	</g>
</g>
<g>
	<g>
		<defs>
			<rect id="SVGID_00000092426619563394142870000002090950756451963549_" x="-0.5" y="33" width="167" height="44"/>
		</defs>
		<clipPath id="SVGID_00000150081819414396497740000010960844264073197441_">
			<use xlink:href="#SVGID_00000092426619563394142870000002090950756451963549_"  style="overflow:visible;"/>
		</clipPath>
		<path style="clip-path:url(#SVGID_00000150081819414396497740000010960844264073197441_);fill:#FFFFFF;" d="M98.5,56v11h6.5
			c2.1,0,3.8-0.5,4.9-1.4s1.6-2.3,1.6-4.1s-0.5-3.2-1.6-4.1c-1.1-0.9-2.7-1.4-4.9-1.4H98.5z M98.5,43v9h6c1.9,0,3.5-0.4,4.5-1.1
			c1-0.8,1.5-1.9,1.5-3.4s-0.5-2.6-1.5-3.4c-1-0.8-2.4-1.1-4.5-1.1H98.5z M94.5,40h10.8c3.2,0,5.6,0.7,7.5,2
			c1.7,1.3,2.6,3.2,2.6,5.7c0,1.9-0.4,3.4-1.3,4.6c-0.9,1.1-2.2,1.8-3.9,2.1c2.1,0.4,3.7,1.3,4.8,2.7s1.7,3.1,1.7,5.3
			c0,2.7-0.9,4.9-2.8,6.4s-4.5,2.2-8.1,2.2H94.5V40z"/>
	</g>
</g>
<g>
	<g>
		<defs>
			<rect id="SVGID_00000014601797375659245990000000770394569447709330_" x="-0.5" y="33" width="167" height="44"/>
		</defs>
		<clipPath id="SVGID_00000176759493885823592540000003741637581504421775_">
			<use xlink:href="#SVGID_00000014601797375659245990000000770394569447709330_"  style="overflow:visible;"/>
		</clipPath>
		<polygon style="clip-path:url(#SVGID_00000176759493885823592540000003741637581504421775_);fill:#FFFFFF;" points="134.9,40 
			139.6,40 146.9,51.1 154.4,40 158.8,40 149.1,54.5 160,71 155.4,71 146.8,58 138.3,71 133.7,71 144.6,54.6 		"/>
	</g>
</g>
<g>
	<g>
		<defs>
			<rect id="SVGID_00000113329221431914264130000002844990086044102787_" x="-0.5" y="33" width="167" height="44"/>
		</defs>
		<clipPath id="SVGID_00000074442780728197259140000007114398108144264328_">
			<use xlink:href="#SVGID_00000113329221431914264130000002844990086044102787_"  style="overflow:visible;"/>
		</clipPath>
		
			<rect x="123.5" y="40" style="clip-path:url(#SVGID_00000074442780728197259140000007114398108144264328_);fill:#FFFFFF;" width="4" height="31"/>
	</g>
</g>
</svg>
